M48
; DRILL file {KiCad (6.0.1)} date Mon Oct 23 01:26:03 2023
; FORMAT={-:-/ absolute / inch / decimal}
; #@! TF.CreationDate,2023-10-23T01:26:03+01:00
; #@! TF.GenerationSoftware,Kicad,Pcbnew,(6.0.1)
; #@! TF.FileFunction,Plated,1,2,PTH
FMAT,2
INCH
; #@! TA.AperFunction,Plated,PTH,ViaDrill
T1C0.0157
; #@! TA.AperFunction,Plated,PTH,ComponentDrill
T2C0.0300
; #@! TA.AperFunction,Plated,PTH,ComponentDrill
T3C0.0315
; #@! TA.AperFunction,Plated,PTH,ComponentDrill
T4C0.0394
; #@! TA.AperFunction,Plated,PTH,ComponentDrill
T5C0.0402
; #@! TA.AperFunction,Plated,PTH,ComponentDrill
T6C0.0433
; #@! TA.AperFunction,Plated,PTH,ComponentDrill
T7C0.0701
; #@! TA.AperFunction,Plated,PTH,ComponentDrill
T8C0.1693
%
G90
G05
T1
X2.2858Y-2.8485
X2.2955Y-2.7373
X2.2977Y-2.9553
X2.3003Y-4.7333
X2.3054Y-1.3854
X2.3076Y-3.447
X2.3079Y-3.163
X2.3089Y-5.4066
X2.3098Y-2.5639
X2.3118Y-1.18
X2.3146Y-3.829
X2.3155Y-2.077
X2.3242Y-4.5172
X2.3245Y-1.6952
X2.3322Y-5.032
X2.4474Y-5.4578
X2.448Y-2.8726
X2.4485Y-2.921
X2.449Y-2.7715
X2.449Y-2.8185
X2.4661Y-2.2687
X2.4695Y-2.2239
X2.4751Y-2.5555
X2.4751Y-3.1806
X2.4762Y-2.5129
X2.4795Y-3.1324
X2.4818Y-2.7314
X2.4829Y-2.9913
X2.4888Y-4.6802
X2.4947Y-4.4932
X2.5143Y-5.6342
X2.5796Y-1.4242
X2.5811Y-5.6276
X2.6317Y-4.2644
X2.639Y-3.2046
X2.6394Y-2.8061
X2.6395Y-2.8541
X2.64Y-2.764
X2.641Y-3.1593
X2.6415Y-3.114
X2.6417Y-2.581
X2.6428Y-2.2001
X2.6428Y-2.2449
X2.6428Y-2.2919
X2.6428Y-2.4869
X2.6439Y-2.5317
X2.6553Y-5.5455
X2.7143Y-4.1229
X2.7184Y-4.7051
X2.7248Y-4.2355
X2.7421Y-4.9241
X2.7547Y-5.3885
X2.7585Y-4.1434
X2.7788Y-5.6591
X2.8052Y-5.4777
X2.8146Y-5.3941
X2.8458Y-4.2381
X2.8651Y-3.1603
X2.8731Y-1.5603
X2.8779Y-2.9771
X2.8787Y-1.9789
X2.8795Y-2.8001
X2.8973Y-3.8514
X2.9046Y-3.1608
X2.9073Y-2.7264
X2.9101Y-3.007
X2.9228Y-1.0739
X2.9458Y-3.1603
X2.9574Y-2.211
X2.9606Y-5.4217
X2.9619Y-2.0889
X2.963Y-5.4911
X2.9697Y-5.5501
X2.9706Y-2.7968
X2.9776Y-3.434
X2.98Y-3.7985
X2.9835Y-2.7432
X2.9836Y-4.1382
X2.9839Y-5.5963
X2.9861Y-3.1603
X2.988Y-2.6368
X2.9895Y-4.988
X2.9955Y-2.4608
X2.9966Y-2.3544
X3.0108Y-5.1844
X3.0238Y-5.6567
X3.0972Y-5.6543
X3.0984Y-3.1925
X3.0984Y-3.6056
X3.1031Y-3.0185
X3.109Y-4.0766
X3.1209Y-4.5619
X3.122Y-5.1217
X3.1232Y-4.2838
X3.1244Y-4.8412
X3.155Y-1.6562
X3.1573Y-1.9679
X3.1604Y-1.8558
X3.19Y-1.0848
X3.1934Y-5.3404
X3.2049Y-1.6098
X3.2054Y-3.1104
X3.2062Y-2.3285
X3.2062Y-2.5857
X3.207Y-2.0847
X3.207Y-2.8469
X3.2086Y-3.3314
X3.2838Y-1.5793
X3.2857Y-5.6268
X3.2857Y-5.6615
X3.289Y-1.8185
X3.2979Y-5.4268
X3.3195Y-1.5363
X3.348Y-5.5119
X3.3682Y-5.162
X3.3694Y-3.9701
X3.3694Y-4.7773
X3.3718Y-4.0506
X3.3718Y-4.9974
X3.3719Y-1.9269
X3.3741Y-3.8695
X3.3777Y-4.2494
X3.3777Y-4.3417
X3.3801Y-3.7725
X3.3905Y-1.6306
X3.394Y-1.7083
X3.3954Y-4.1346
X3.4021Y-4.4426
X3.4055Y-4.6422
X3.4167Y-5.5558
X3.4918Y-2.0407
X3.5027Y-5.611
X3.5033Y-1.6262
X3.5047Y-5.3164
X3.5258Y-1.7762
X3.5439Y-2.6338
X3.5455Y-2.7625
X3.5486Y-3.6651
X3.5518Y-2.4642
X3.5518Y-3.355
X3.5534Y-2.9368
X3.5534Y-3.0583
X3.555Y-2.3316
X3.5557Y-3.2382
X3.5605Y-3.5349
X3.5682Y-5.6197
X3.5821Y-1.0739
X3.5826Y-2.1257
X3.5988Y-2.002
X3.5991Y-1.921
X3.6023Y-1.8543
X3.6168Y-1.1824
X3.6227Y-5.5975
X3.6251Y-5.3158
X3.6374Y-1.4739
X3.6438Y-1.6493
X3.6491Y-2.2143
X3.6744Y-1.9444
X3.6785Y-2.0075
X3.6812Y-2.1233
X3.6867Y-1.4392
X3.6895Y-1.6493
X3.7576Y-1.1966
X3.7622Y-1.3528
X3.7704Y-2.1517
X3.7716Y-1.6919
X3.7748Y-1.9894
X3.7751Y-2.3316
X3.7755Y-1.7369
X3.7861Y-2.4603
X3.7861Y-2.6354
X3.7877Y-2.9384
X3.7877Y-3.0591
X3.7885Y-2.7609
X3.7976Y-1.4784
X3.7996Y-3.2446
X3.8144Y-5.1075
X3.8251Y-5.3158
X3.8281Y-1.9888
X3.8331Y-1.6596
X3.8351Y-2.2243
X3.8355Y-1.733
X3.8381Y-5.5975
X3.8464Y-1.8909
X3.854Y-3.6666
X3.8825Y-1.987
X3.8852Y-1.6943
X3.886Y-1.9294
X3.904Y-2.0911
X3.9041Y-2.9214
X3.9064Y-3.061
X3.9084Y-3.355
X3.9087Y-1.068
X3.91Y-2.289
X3.9281Y-1.8919
X3.931Y-1.6612
X3.9347Y-1.9888
X3.9357Y-1.7298
X3.9421Y-1.4873
X3.9449Y-1.5516
X3.9696Y-3.2291
X4.0036Y-1.6612
X4.0141Y-1.5873
X4.0181Y-1.7436
X4.0286Y-5.1264
X4.0631Y-1.3596
X4.0683Y-2.0848
X4.0683Y-1.658
X4.0982Y-1.9822
X4.0985Y-5.5987
X4.1002Y-3.5373
X4.1007Y-1.9384
X4.1008Y-4.8957
X4.1142Y-1.6429
X4.1277Y-2.0784
X4.1374Y-5.3616
X4.1404Y-2.3256
X4.1432Y-1.6004
X4.146Y-1.3607
X4.146Y-1.4728
X4.1813Y-1.9892
X4.196Y-1.8931
X4.2034Y-2.0772
X4.2162Y-3.6667
X4.2245Y-2.6298
X4.2304Y-2.9281
X4.2334Y-4.8107
X4.2476Y-5.3561
X4.2493Y-3.0677
X4.2542Y-1.753
X4.2639Y-3.5313
X4.2675Y-4.133
X4.2731Y-1.5902
X4.2754Y-3.3684
X4.279Y-4.5154
X4.2813Y-3.2299
X4.2851Y-1.0774
X4.2878Y-5.6022
X4.2921Y-2.0668
X4.293Y-1.7699
X4.301Y-4.7238
X4.3283Y-1.3611
X4.3293Y-5.0519
X4.3332Y-2.0668
X4.3398Y-1.9769
X4.3769Y-2.0668
X4.3905Y-4.5229
X4.3957Y-1.43
X4.3964Y-3.6623
X4.4001Y-4.7258
X4.4047Y-4.1906
X4.4291Y-1.6193
X4.4322Y-5.5904
X4.4368Y-1.6927
X4.4462Y-1.4844
X4.4472Y-2.0843
X4.4484Y-1.852
X4.4612Y-1.5598
X4.4617Y-1.2451
X4.4809Y-1.6509
X4.4813Y-3.9437
X4.5006Y-4.7243
X4.5037Y-1.8195
X4.5109Y-1.6012
X4.5322Y-1.9902
X4.5345Y-4.0875
X4.5392Y-2.0351
X4.5583Y-1.7657
X4.5732Y-3.8453
X4.592Y-4.8968
X4.5984Y-2.9245
X4.5997Y-4.7248
X4.6064Y-1.9894
X4.6086Y-5.3513
X4.609Y-1.9188
X4.6096Y-1.3749
X4.612Y-1.7119
X4.6182Y-3.0666
X4.6347Y-4.2689
X4.6372Y-1.5957
X4.6395Y-2.0399
X4.6458Y-2.6176
X4.6458Y-3.9132
X4.6494Y-1.3402
X4.6602Y-1.8503
X4.6671Y-2.3217
X4.6748Y-1.9442
X4.6755Y-1.61
X4.6755Y-1.6619
X4.6806Y-1.9957
X4.7003Y-4.7248
X4.7181Y-1.6212
X4.7274Y-1.1931
X4.7294Y-2.085
X4.7411Y-5.6011
X4.7452Y-2.2381
X4.7468Y-3.5297
X4.7491Y-1.068
X4.7515Y-4.2683
X4.7523Y-3.6615
X4.7539Y-3.3222
X4.7547Y-2.515
X4.7547Y-3.8083
X4.7555Y-2.4053
X4.7555Y-3.1462
X4.7562Y-2.7746
X4.7674Y-1.4694
X4.7692Y-1.958
X4.7783Y-2.1607
X4.7823Y-4.0513
X4.8193Y-5.0483
X4.8209Y-1.1043
X4.8233Y-4.3696
X4.8391Y-4.4758
X4.8514Y-4.2432
X4.8525Y-1.8137
X4.8535Y-1.857
X4.8661Y-1.95
X4.8716Y-1.6373
X4.8812Y-1.7268
X4.8935Y-2.3761
X4.897Y-1.6074
X4.8975Y-2.2657
X4.8979Y-2.6511
X4.8998Y-4.7228
X4.8998Y-2.1023
X4.9014Y-2.0329
X4.9014Y-2.5403
X4.9063Y-1.3903
X4.9069Y-3.9637
X4.9089Y-3.6572
X4.9109Y-1.9486
X4.9164Y-2.9821
X4.918Y-2.7975
X4.9199Y-5.3501
X4.9219Y-3.1573
X4.922Y-1.4478
X4.9243Y-3.4224
X4.933Y-4.4134
X4.9338Y-4.5531
X4.9448Y-4.7966
X4.9611Y-3.6897
X4.9765Y-1.2364
X4.983Y-2.1817
X4.9846Y-2.2795
X4.9949Y-3.5886
X4.9999Y-4.7248
X5.0233Y-3.7584
X5.0266Y-1.4634
X5.0562Y-1.5917
X5.0572Y-4.8945
X5.0659Y-2.3821
X5.0706Y-2.4681
X5.0714Y-5.594
X5.0781Y-1.3925
X5.0821Y-4.3592
X5.0964Y-3.6757
X5.0994Y-1.0739
X5.1004Y-4.7238
X5.1048Y-4.5339
X5.1072Y-1.2312
X5.113Y-1.6904
X5.1381Y-4.9739
X5.1405Y-4.392
X5.1474Y-5.0484
X5.1487Y-2.5604
X5.1579Y-1.6454
X5.159Y-4.4477
X5.1621Y-1.3956
X5.1715Y-1.447
X5.1803Y-4.9252
X5.1813Y-2.1319
X5.1854Y-4.2416
X5.1931Y-5.0053
X5.1977Y-2.693
X5.1995Y-4.7233
X5.2095Y-1.9539
X5.2297Y-4.5578
X5.2305Y-4.404
X5.2406Y-5.3561
X5.2511Y-1.2194
X5.2537Y-5.2152
X5.2584Y-2.8058
X5.2585Y-3.8252
X5.2631Y-3.0806
X5.2751Y-1.3542
X5.2755Y-1.4203
X5.2896Y-1.7357
X5.2996Y-4.7243
X5.3172Y-4.4896
X5.3209Y-1.4793
X5.3511Y-5.0264
X5.3521Y-3.2883
X5.3528Y-3.2
X5.3567Y-5.2069
X5.3603Y-4.1017
X5.3613Y-1.2515
X5.3905Y-3.3912
X5.3918Y-3.5477
X5.3925Y-1.4312
X5.3997Y-1.9409
X5.4001Y-4.7243
X5.4253Y-4.9547
X5.4322Y-2.0731
X5.4366Y-4.4959
X5.4457Y-1.476
X5.4502Y-1.9384
X5.4517Y-1.8549
X5.4517Y-1.8156
X5.4526Y-5.2164
X5.4622Y-1.3743
X5.4647Y-3.7204
X5.4655Y-5.5975
X5.4746Y-1.0715
X5.4843Y-1.2504
X5.4939Y-5.0614
X5.5012Y-4.7253
X5.5122Y-3.5915
X5.5309Y-1.4016
X5.5343Y-3.3177
X5.5637Y-4.9679
X5.5661Y-4.8744
X5.5726Y-3.1359
X5.5728Y-1.4755
X5.5732Y-5.3561
X5.5741Y-2.1121
X5.5749Y-2.7955
X5.5749Y-3.0006
X5.5749Y-2.2667
X5.5761Y-2.5366
X5.6008Y-4.7243
X5.6162Y-4.2035
X5.6178Y-1.2515
X5.638Y-5.2254
X5.6592Y-2.1507
X5.6592Y-2.2341
X5.6592Y-2.3019
X5.6595Y-2.0337
X5.6599Y-2.3782
X5.6601Y-1.8836
X5.6604Y-1.8151
X5.6608Y-1.9536
X5.6624Y-4.7834
X5.675Y-1.3502
X5.6769Y-1.435
X5.6893Y-4.4292
X5.6972Y-2.6575
X5.7012Y-2.5757
X5.7043Y-2.4957
X5.7248Y-5.3075
X5.7428Y-1.2525
X5.7436Y-2.15
X5.7438Y-1.7516
X5.7547Y-1.9843
X5.7588Y-1.9024
X5.7618Y-1.8224
X5.769Y-4.0425
X5.7721Y-5.3632
X5.7756Y-2.567
X5.7766Y-2.4906
X5.7774Y-2.6567
X5.7993Y-1.7512
X5.8093Y-1.4359
X5.8299Y-3.3627
X5.8341Y-1.8173
X5.8348Y-1.9016
X5.835Y-1.9834
X5.8388Y-3.3099
X5.852Y-2.6567
X5.8528Y-2.5724
X5.8536Y-1.7512
X5.8577Y-2.4922
X5.8626Y-5.2553
X5.8721Y-1.2525
X5.8733Y-4.5376
X5.8754Y-4.6764
X5.8821Y-3.9331
X5.9044Y-3.3189
X5.9095Y-1.9834
X5.9103Y-1.8991
X5.9118Y-5.3572
X5.9152Y-1.8189
X5.9308Y-1.4378
X5.935Y-1.0691
X5.9455Y-5.2583
X5.9548Y-2.4018
X5.9925Y-3.34
X5.9993Y-1.2504
X6.01Y-5.5975
X6.0226Y-1.4312
X6.0261Y-5.2553
X6.0316Y-1.3545
X6.0373Y-3.2732
X6.0474Y-2.3912
X6.0489Y-2.6438
X6.0502Y-4.8672
X6.053Y-2.5619
X6.0534Y-4.9689
X6.0561Y-2.4819
X6.0803Y-1.48
X6.0908Y-3.273
X6.0963Y-3.6394
X6.1003Y-2.1423
X6.1041Y-1.9767
X6.1081Y-1.8948
X6.1094Y-5.3537
X6.111Y-4.3866
X6.1112Y-1.8148
X6.1167Y-5.5863
X6.1254Y-1.2504
X6.1284Y-2.4768
X6.1292Y-2.643
X6.1299Y-2.5685
X6.1614Y-5.5863
X6.1835Y-1.8097
X6.1843Y-1.9759
X6.186Y-1.3978
X6.1863Y-1.894
X6.1958Y-5.2673
X6.2037Y-2.643
X6.2046Y-2.5587
X6.2094Y-2.4784
X6.2204Y-1.3662
X6.2303Y-3.4189
X6.2357Y-3.5016
X6.2358Y-2.3939
X6.2362Y-3.7085
X6.2367Y-3.5897
X6.2562Y-5.4649
X6.2568Y-1.2483
X6.2589Y-1.9759
X6.2597Y-1.8916
X6.2616Y-3.273
X6.2645Y-1.8113
X6.2951Y-4.5622
X6.3081Y-5.245
X6.3102Y-1.0739
X6.3205Y-2.3928
X6.333Y-1.4713
X6.344Y-5.2107
X6.345Y-5.4649
X6.3586Y-4.6796
X6.365Y-2.6512
X6.3684Y-4.3884
X6.3691Y-2.5693
X6.3722Y-2.4893
X6.3853Y-3.279
X6.4003Y-1.2408
X6.4091Y-3.4227
X6.4116Y-2.391
X6.4306Y-2.1537
X6.4361Y-3.2811
X6.4404Y-1.9743
X6.4422Y-1.4741
X6.4445Y-1.8924
X6.4445Y-2.4842
X6.4449Y-2.5685
X6.4453Y-2.6504
X6.4475Y-1.8124
X6.4657Y-5.5892
X6.4679Y-3.2465
X6.4936Y-1.6799
X6.5015Y-3.3887
X6.5084Y-5.5191
X6.5199Y-1.8073
X6.5199Y-2.6504
X6.5204Y-1.8898
X6.5207Y-1.9735
X6.5207Y-2.5661
X6.5231Y-4.8598
X6.5255Y-2.4858
X6.535Y-3.2573
X6.547Y-5.2703
X6.5561Y-2.3924
X6.5644Y-1.6797
X6.5714Y-4.9562
X6.5816Y-1.4708
X6.584Y-5.4305
X6.5874Y-5.5802
X6.592Y-1.3267
X6.5937Y-1.2398
X6.5952Y-1.9735
X6.596Y-1.8892
X6.6009Y-1.8089
X6.6061Y-3.5775
X6.6116Y-3.7216
X6.6146Y-4.655
X6.6414Y-1.4091
X6.6449Y-5.516
X6.6489Y-5.5854
X6.6581Y-3.245
X6.6634Y-2.3896
X6.6904Y-5.3134
X6.6996Y-1.0727
X6.7111Y-1.4741
X6.7179Y-4.7411
X6.7225Y-2.6494
X6.7261Y-5.0898
X6.7265Y-2.5676
X6.7296Y-2.4876
X6.7327Y-4.8394
X6.7474Y-1.6582
X6.7521Y-1.4345
X6.7639Y-2.3888
X6.7863Y-2.1523
X6.7874Y-4.9516
X6.793Y-1.2383
X6.793Y-1.9753
X6.7971Y-1.8935
X6.7992Y-2.5685
X6.8001Y-1.8135
X6.8019Y-2.4825
X6.8027Y-2.6486
X6.8029Y-4.7346
X6.8107Y-4.8413
X6.8278Y-5.1914
X6.8478Y-1.683
X6.8505Y-1.4793
X6.8534Y-4.723
X6.8534Y-4.9495
X6.8537Y-4.3627
X6.8561Y-4.642
X6.8687Y-2.3896
X6.8724Y-1.8083
X6.8732Y-1.9745
X6.876Y-1.8926
X6.8773Y-2.6486
X6.8781Y-2.5643
X6.883Y-2.4841
X6.9002Y-4.7207
X6.9002Y-4.9518
X6.9183Y-4.0832
X6.924Y-5.2755
X6.9284Y-3.2633
X6.9297Y-5.0874
X6.9372Y-4.16
X6.9466Y-4.7277
X6.9466Y-4.9448
X6.9478Y-1.9745
X6.9486Y-1.8902
X6.9535Y-1.81
X6.9562Y-3.1346
X6.959Y-4.2429
X6.9619Y-2.9277
X6.9619Y-3.0488
X6.9669Y-1.4694
X6.9724Y-4.327
X6.9728Y-1.6823
X6.9746Y-4.6491
X6.9854Y-4.7091
X6.9854Y-4.9633
X6.9888Y-1.2363
X6.9897Y-3.099
X7.0028Y-5.2763
X7.0039Y-3.885
X7.0041Y-2.4031
X7.0046Y-3.3914
X7.0049Y-2.853
X7.0062Y-3.5843
X7.0067Y-3.7107
X7.0073Y-3.0569
X7.0084Y-2.9791
X7.0085Y-4.2924
X7.01Y-3.2973
X7.0105Y-3.5064
X7.0146Y-3.1941
X7.0212Y-4.8413
X7.0219Y-4.7466
X7.0268Y-4.9381
X7.0788Y-5.5276
X7.0789Y-1.6298
X7.0819Y-1.0762
X7.0819Y-4.5771
X7.0859Y-5.4564
X7.0876Y-1.3316
X7.0883Y-4.6887
X7.0971Y-1.4604
X7.1069Y-1.952
X7.1127Y-2.6463
X7.1135Y-2.3464
X7.1135Y-2.8506
X7.1143Y-2.7492
X7.1148Y-3.4476
X7.1154Y-3.2465
X7.1154Y-3.6491
X7.1159Y-3.0466
X7.1159Y-3.146
X7.1159Y-3.547
X7.1159Y-2.549
X7.1166Y-5.5739
X7.117Y-2.9466
X7.117Y-3.346
X7.1175Y-3.7469
X7.1183Y-2.4469
X7.1382Y-5.3003
X7.156Y-5.3768
X7.1853Y-1.9987
X7.1882Y-1.2308
X7.1883Y-1.4643
X7.1958Y-3.0466
X7.1979Y-3.6474
X7.1986Y-4.0469
X7.1989Y-3.3476
X7.2111Y-5.303
X7.2122Y-2.383
X7.2128Y-2.8854
X7.2163Y-1.8901
X7.2171Y-1.7276
X7.2174Y-2.0214
X7.2179Y-2.7973
X7.2191Y-2.7539
X7.2195Y-2.6289
X7.2247Y-5.4115
X7.2352Y-4.908
X7.2389Y-2.5653
X7.2401Y-2.4571
X7.2416Y-2.6667
X7.2426Y-2.8554
X7.244Y-2.0504
X7.2444Y-5.0744
X7.2471Y-5.3379
X7.2549Y-4.2351
X7.2704Y-5.4916
X7.2742Y-4.8635
X7.2833Y-5.2334
X7.2836Y-4.3151
X7.2918Y-5.3549
X7.2958Y-4.407
X7.3241Y-5.5447
X7.33Y-5.3958
X7.334Y-5.3122
X7.3379Y-1.4692
X7.3423Y-1.3456
X7.3651Y-2.9685
X7.3737Y-4.9797
X7.3751Y-5.0398
X7.3773Y-3.1047
X7.3862Y-3.2141
X7.3898Y-3.5567
X7.3898Y-3.911
X7.3912Y-1.2308
X7.3962Y-2.7743
X7.3992Y-2.0696
X7.3993Y-1.7338
X7.3995Y-4.3683
X7.4Y-2.9077
X7.4009Y-2.6297
X7.4016Y-2.1952
X7.4022Y-2.4593
X7.4024Y-1.9148
X7.429Y-1.7655
X7.4318Y-5.4163
X7.4346Y-1.0715
X7.4353Y-2.2872
X7.4445Y-5.4881
X7.4484Y-4.6589
X7.4541Y-1.4717
X7.4603Y-1.7981
X7.4626Y-4.505
X7.4674Y-1.5927
X7.4857Y-4.7105
X7.5052Y-4.4536
X7.513Y-1.1523
X7.5143Y-1.9197
X7.5163Y-1.6456
X7.5223Y-4.6568
X7.537Y-2.5178
X7.5373Y-4.5007
X7.5378Y-1.5551
X7.5386Y-4.2236
X7.5386Y-3.0633
X7.5394Y-2.8874
X7.541Y-2.654
X7.541Y-2.9442
X7.5472Y-3.3205
X7.5472Y-3.6354
X7.5472Y-4.0291
X7.5577Y-2.846
X7.5586Y-2.7
X7.5595Y-2.7484
X7.5595Y-2.8023
X7.5597Y-4.709
X7.5621Y-2.2901
X7.5709Y-4.4521
X7.5838Y-1.1523
X7.597Y-4.6583
X7.6026Y-2.1985
X7.6045Y-4.5029
X7.6091Y-2.0672
X7.6172Y-2.4514
X7.6205Y-2.7043
X7.6221Y-2.838
X7.6311Y-1.2183
X7.6373Y-4.4521
X7.6411Y-4.7075
X7.6412Y-1.1518
X7.6654Y-3.0843
X7.6654Y-3.6354
X7.6654Y-3.8323
X7.6654Y-4.1079
X7.6687Y-4.5022
X7.6739Y-4.656
X7.6999Y-2.8866
X7.7092Y-1.0798
X7.737Y-4.5222
X7.7391Y-1.8596
X7.7416Y-1.785
X7.7465Y-2.6137
X7.7518Y-2.7072
X7.7924Y-2.3527
X7.7947Y-2.4961
X7.8074Y-1.1828
X7.8098Y-1.5733
X7.8133Y-2.8457
X7.837Y-2.7072
X7.8427Y-2.1245
X7.8501Y-4.3544
X7.8507Y-2.2093
X7.8554Y-3.4194
X7.8554Y-3.9626
X7.8576Y-4.4684
X7.8595Y-1.6301
X7.9092Y-2.0172
X7.9113Y-4.474
X7.9376Y-2.8492
X7.9467Y-5.5275
X7.9707Y-2.6764
X7.9753Y-3.1787
X7.9897Y-2.545
X7.998Y-2.2657
X8.0228Y-3.0552
X8.024Y-2.4255
X8.0536Y-2.7439
X8.0745Y-4.487
X8.0801Y-4.3423
X8.1045Y-2.3202
X8.1376Y-2.6705
X8.1379Y-3.23
X8.1655Y-3.1416
X8.1779Y-2.4231
X8.227Y-2.6295
X8.228Y-2.3026
X8.2318Y-2.9365
X8.2319Y-3.2669
X8.2331Y-3.0709
X8.2342Y-3.109
X8.2364Y-2.4727
X8.2364Y-2.7427
X8.2364Y-2.7807
X8.2376Y-2.4324
X8.2432Y-2.1097
X8.2443Y-2.1467
X8.3854Y-2.7998
X8.3866Y-2.7202
X8.3866Y-2.7606
X8.3866Y-3.0877
X8.3866Y-3.1314
X8.3877Y-3.044
X8.3944Y-2.4906
X8.3955Y-2.4144
X8.3955Y-2.4525
X8.3989Y-2.0851
X8.3989Y-2.1232
X8.3989Y-2.1635
X8.4641Y-2.0736
X8.4641Y-1.7234
X8.4679Y-1.153
X8.4774Y-2.6936
X8.4831Y-1.3927
X8.4869Y-3.3498
X8.4907Y-4.5956
X8.4923Y-3.6779
X8.4964Y-4.0326
X8.504Y-5.4001
T2
X2.3738Y-4.3165
X2.3738Y-5.3165
X2.4738Y-4.3165
X2.4738Y-5.3165
X2.5738Y-4.3165
X2.5738Y-5.3165
X2.6738Y-4.3165
X2.6738Y-5.3165
X2.7738Y-4.3165
X2.7738Y-5.3165
X2.8738Y-4.3165
X2.8738Y-5.3165
X2.9738Y-4.3165
X2.9738Y-5.3165
X3.0738Y-4.3165
X3.0738Y-5.3165
X3.2885Y-1.2851
X3.3771Y-1.5312
X3.3869Y-1.2851
X3.4853Y-1.2851
X3.505Y-1.5312
X3.5838Y-1.2851
X3.633Y-1.5312
X3.6822Y-1.2851
X3.7609Y-1.5312
X3.7806Y-1.2851
X3.879Y-1.2851
X3.8889Y-1.5312
X3.9775Y-1.2851
X4.0168Y-1.5312
X4.0759Y-1.2851
X4.1448Y-1.5312
X4.1743Y-1.2851
X4.2727Y-1.2851
X4.2727Y-1.5312
X4.3712Y-1.2851
X4.4007Y-1.5312
X4.4597Y-1.3147
X4.5286Y-1.2556
X4.5286Y-1.5312
X4.5877Y-1.3147
X4.6566Y-1.2556
X4.6566Y-1.5312
X4.7156Y-1.3147
X4.7845Y-1.2556
X4.7845Y-1.5312
X4.8436Y-1.3147
X4.9125Y-1.2556
X4.9125Y-1.5312
X4.9716Y-1.3147
X5.0405Y-1.2556
X5.0405Y-1.5312
X5.0995Y-1.3147
X5.1684Y-1.2556
X5.1684Y-1.5312
X5.2275Y-1.3147
X5.2964Y-1.2556
X5.2964Y-1.5312
X5.3554Y-1.3147
X5.4243Y-1.2556
X5.4243Y-1.5312
X5.4834Y-1.3147
X5.5523Y-1.2556
X5.5523Y-1.5312
X5.6113Y-1.3147
X5.6802Y-1.2556
X5.6802Y-1.5312
X5.7393Y-1.3147
X5.8082Y-1.2556
X5.8082Y-1.5312
X5.8672Y-1.3147
X5.9361Y-1.2556
X5.9361Y-1.5312
X5.9952Y-1.3147
X6.0641Y-1.2556
X6.0641Y-1.5312
X6.1231Y-1.3147
X6.192Y-1.2556
X6.192Y-1.5312
X6.2511Y-1.3147
X6.32Y-1.5312
X6.3495Y-1.2851
X6.4479Y-1.2851
X6.4479Y-1.5312
X6.5464Y-1.2851
X6.5759Y-1.5312
X6.6448Y-1.2851
X6.7038Y-1.5312
X6.7432Y-1.2851
X6.8318Y-1.5312
X6.8416Y-1.2851
X6.9401Y-1.2851
X6.9597Y-1.5312
X7.0385Y-1.2851
X7.0877Y-1.5312
X7.1369Y-1.2851
X7.2156Y-1.5312
X7.2353Y-1.2851
X7.3338Y-1.2851
X7.3436Y-1.5312
X7.4322Y-1.2851
X7.4716Y-1.5312
X7.4908Y-4.5797
X7.4908Y-5.5797
X7.5306Y-1.2851
X7.5908Y-4.5797
X7.5908Y-5.5797
X7.629Y-1.2851
X7.6908Y-4.5797
X7.6908Y-5.5797
X7.7908Y-4.5797
X7.7908Y-5.5797
X7.8908Y-4.5797
X7.8908Y-5.5797
X7.9908Y-4.5797
X7.9908Y-5.5797
X8.0908Y-4.5797
X8.0908Y-5.5797
X8.1908Y-4.5797
X8.1908Y-5.5797
T3
X3.9808Y-2.5634
X4.1186Y-2.5634
T4
X3.4551Y-2.0975
X3.4551Y-2.1975
X3.4551Y-2.2975
X3.4551Y-2.3975
X3.4551Y-2.4975
X3.4551Y-2.5975
X3.4551Y-2.6975
X3.4551Y-2.7975
X3.4551Y-2.8975
X3.4551Y-2.9975
X3.4551Y-3.0975
X3.4551Y-3.1975
X3.4551Y-3.2975
X3.4551Y-3.3975
X3.4551Y-3.4975
X3.4551Y-3.5975
X3.4551Y-3.6975
X3.4551Y-3.7975
X3.4551Y-3.8975
X3.4551Y-3.9975
X3.4551Y-4.0975
X3.4551Y-4.1975
X3.4551Y-4.2975
X3.4551Y-4.3975
X3.4551Y-4.4975
X3.4551Y-4.5975
X3.4551Y-4.6975
X3.4551Y-4.7975
X3.4551Y-4.8975
X3.4551Y-4.9975
X3.4551Y-5.0975
X3.4551Y-5.1975
X4.0887Y-4.6116
X4.1124Y-2.2166
X4.1887Y-4.6116
X4.2124Y-2.2166
X4.2887Y-4.6116
X4.3124Y-2.2166
X4.3887Y-4.6116
X4.4124Y-2.2166
X4.4887Y-4.6116
X4.5124Y-2.2166
X4.5887Y-4.6116
X4.6124Y-2.2166
X4.6887Y-4.6116
X4.7887Y-4.6116
X4.8887Y-4.6116
X4.9887Y-4.6116
X5.0051Y-5.1585
X5.0887Y-4.6116
X5.1051Y-5.1585
X5.1887Y-4.6116
X5.2051Y-5.1585
X5.2887Y-4.6116
X5.3051Y-5.1585
X5.3887Y-4.6116
X5.4051Y-5.1585
X5.4887Y-4.6116
X5.5051Y-5.1585
X5.5887Y-4.6116
X5.6051Y-5.1585
X5.7051Y-5.1585
X5.8051Y-5.1585
X5.9051Y-5.1585
X6.0051Y-5.1585
X6.1051Y-5.1585
X6.2051Y-5.1585
X6.3051Y-5.1585
X6.4051Y-5.1585
X6.5051Y-5.1585
X7.1525Y-2.0973
X7.1525Y-2.1973
X7.1525Y-2.2973
X7.1525Y-2.3973
X7.1525Y-2.4973
X7.1525Y-2.5973
X7.1525Y-2.6973
X7.1525Y-2.7973
X7.1525Y-2.8973
X7.1525Y-2.9973
X7.1525Y-3.0973
X7.1525Y-3.1973
X7.1525Y-3.2973
X7.1525Y-3.3973
X7.1525Y-3.4973
X7.1525Y-3.5973
X7.1525Y-3.6973
X7.1525Y-3.7973
X7.1525Y-3.8973
X7.1525Y-3.9973
X7.1525Y-4.0973
X7.1525Y-4.1973
X7.1525Y-4.2973
X7.1525Y-4.3973
X7.1525Y-4.4973
X7.1525Y-4.5973
X7.1525Y-4.6973
X7.1525Y-4.7973
X7.1525Y-4.8973
X7.1525Y-4.9973
X7.1525Y-5.0973
X7.1525Y-5.1973
T5
X2.4574Y-4.0608
X2.4574Y-4.1789
X2.5755Y-4.0608
X2.5755Y-4.1789
X2.6936Y-4.0608
X2.6936Y-4.1789
X2.8117Y-4.0608
X2.8117Y-4.1789
X7.7814Y-4.2861
X7.7814Y-4.4042
X7.8995Y-4.2861
X7.8995Y-4.4042
X8.0176Y-4.2861
X8.0176Y-4.4042
X8.1357Y-4.2861
X8.1357Y-4.4042
T6
X6.0798Y-4.006
X6.1782Y-4.006
X6.2766Y-4.006
X6.375Y-4.006
X6.4735Y-4.006
T7
X7.4395Y-1.9899
X7.4395Y-2.3804
X7.5734Y-1.9899
X7.5734Y-2.3804
T8
X2.5204Y-1.1966
X8.257Y-1.2064
T0
M30
