%TF.GenerationSoftware,KiCad,Pcbnew,(6.0.1)*%
%TF.CreationDate,2023-10-23T01:26:03+01:00*%
%TF.ProjectId,Polygonus-Universal-Base,506f6c79-676f-46e7-9573-2d556e697665,rev?*%
%TF.SameCoordinates,Original*%
%TF.FileFunction,Legend,Top*%
%TF.FilePolarity,Positive*%
%FSLAX46Y46*%
G04 Gerber Fmt 4.6, Leading zero omitted, Abs format (unit mm)*
G04 Created by KiCad (PCBNEW (6.0.1)) date 2023-10-23 01:26:03*
%MOMM*%
%LPD*%
G01*
G04 APERTURE LIST*
G04 Aperture macros list*
%AMRoundRect*
0 Rectangle with rounded corners*
0 $1 Rounding radius*
0 $2 $3 $4 $5 $6 $7 $8 $9 X,Y pos of 4 corners*
0 Add a 4 corners polygon primitive as box body*
4,1,4,$2,$3,$4,$5,$6,$7,$8,$9,$2,$3,0*
0 Add four circle primitives for the rounded corners*
1,1,$1+$1,$2,$3*
1,1,$1+$1,$4,$5*
1,1,$1+$1,$6,$7*
1,1,$1+$1,$8,$9*
0 Add four rect primitives between the rounded corners*
20,1,$1+$1,$2,$3,$4,$5,0*
20,1,$1+$1,$4,$5,$6,$7,0*
20,1,$1+$1,$6,$7,$8,$9,0*
20,1,$1+$1,$8,$9,$2,$3,0*%
%AMFreePoly0*
4,1,22,0.550000,-0.750000,0.000000,-0.750000,0.000000,-0.745033,-0.079941,-0.743568,-0.215256,-0.701293,-0.333266,-0.622738,-0.424486,-0.514219,-0.481581,-0.384460,-0.499164,-0.250000,-0.500000,-0.250000,-0.500000,0.250000,-0.499164,0.250000,-0.499963,0.256109,-0.478152,0.396186,-0.417904,0.524511,-0.324060,0.630769,-0.204165,0.706417,-0.067858,0.745374,0.000000,0.744959,0.000000,0.750000,
0.550000,0.750000,0.550000,-0.750000,0.550000,-0.750000,$1*%
%AMFreePoly1*
4,1,20,0.000000,0.744959,0.073905,0.744508,0.209726,0.703889,0.328688,0.626782,0.421226,0.519385,0.479903,0.390333,0.500000,0.250000,0.500000,-0.250000,0.499851,-0.262216,0.476331,-0.402017,0.414519,-0.529596,0.319384,-0.634700,0.198574,-0.708877,0.061801,-0.746166,0.000000,-0.745033,0.000000,-0.750000,-0.550000,-0.750000,-0.550000,0.750000,0.000000,0.750000,0.000000,0.744959,
0.000000,0.744959,$1*%
G04 Aperture macros list end*
%ADD10C,0.300000*%
%ADD11C,0.150000*%
%ADD12C,0.120000*%
%ADD13C,0.249936*%
%ADD14RoundRect,0.250000X-0.475000X0.337500X-0.475000X-0.337500X0.475000X-0.337500X0.475000X0.337500X0*%
%ADD15C,1.524000*%
%ADD16R,0.800000X0.500000*%
%ADD17R,0.800000X0.400000*%
%ADD18R,1.200000X2.200000*%
%ADD19R,5.800000X6.400000*%
%ADD20R,2.000000X1.500000*%
%ADD21R,2.000000X3.800000*%
%ADD22R,1.600000X1.600000*%
%ADD23C,1.600000*%
%ADD24RoundRect,0.150000X-0.825000X-0.150000X0.825000X-0.150000X0.825000X0.150000X-0.825000X0.150000X0*%
%ADD25RoundRect,0.250000X0.450000X-0.262500X0.450000X0.262500X-0.450000X0.262500X-0.450000X-0.262500X0*%
%ADD26RoundRect,0.250000X0.250000X0.475000X-0.250000X0.475000X-0.250000X-0.475000X0.250000X-0.475000X0*%
%ADD27C,3.000000*%
%ADD28RoundRect,0.250001X-0.499999X-0.499999X0.499999X-0.499999X0.499999X0.499999X-0.499999X0.499999X0*%
%ADD29C,1.500000*%
%ADD30RoundRect,0.250000X-0.250000X-0.475000X0.250000X-0.475000X0.250000X0.475000X-0.250000X0.475000X0*%
%ADD31R,0.300000X1.400000*%
%ADD32R,2.000000X0.650000*%
%ADD33R,4.500000X8.100000*%
%ADD34RoundRect,0.250000X0.262500X0.450000X-0.262500X0.450000X-0.262500X-0.450000X0.262500X-0.450000X0*%
%ADD35RoundRect,0.250000X0.625000X-0.312500X0.625000X0.312500X-0.625000X0.312500X-0.625000X-0.312500X0*%
%ADD36RoundRect,0.249999X-0.325001X-0.450001X0.325001X-0.450001X0.325001X0.450001X-0.325001X0.450001X0*%
%ADD37C,2.780000*%
%ADD38RoundRect,0.250000X-0.312500X-0.625000X0.312500X-0.625000X0.312500X0.625000X-0.312500X0.625000X0*%
%ADD39RoundRect,0.250000X-0.475000X0.250000X-0.475000X-0.250000X0.475000X-0.250000X0.475000X0.250000X0*%
%ADD40RoundRect,0.150000X0.587500X0.150000X-0.587500X0.150000X-0.587500X-0.150000X0.587500X-0.150000X0*%
%ADD41RoundRect,0.150000X-0.587500X-0.150000X0.587500X-0.150000X0.587500X0.150000X-0.587500X0.150000X0*%
%ADD42RoundRect,0.250000X0.650000X-0.325000X0.650000X0.325000X-0.650000X0.325000X-0.650000X-0.325000X0*%
%ADD43RoundRect,0.250000X0.475000X-0.250000X0.475000X0.250000X-0.475000X0.250000X-0.475000X-0.250000X0*%
%ADD44C,6.000000*%
%ADD45RoundRect,0.150000X0.825000X0.150000X-0.825000X0.150000X-0.825000X-0.150000X0.825000X-0.150000X0*%
%ADD46FreePoly0,180.000000*%
%ADD47R,1.000000X1.500000*%
%ADD48FreePoly1,180.000000*%
%ADD49R,1.700000X1.700000*%
%ADD50O,1.700000X1.700000*%
%ADD51RoundRect,0.250000X-0.450000X0.262500X-0.450000X-0.262500X0.450000X-0.262500X0.450000X0.262500X0*%
G04 APERTURE END LIST*
D10*
X84404292Y-111028914D02*
X82904292Y-111028914D01*
X84404292Y-110314628D02*
X82904292Y-110314628D01*
X84404292Y-109457486D01*
X82904292Y-109457486D01*
X84261435Y-107886057D02*
X84332863Y-107957486D01*
X84404292Y-108171771D01*
X84404292Y-108314628D01*
X84332863Y-108528914D01*
X84190006Y-108671771D01*
X84047149Y-108743200D01*
X83761435Y-108814628D01*
X83547149Y-108814628D01*
X83261435Y-108743200D01*
X83118578Y-108671771D01*
X82975721Y-108528914D01*
X82904292Y-108314628D01*
X82904292Y-108171771D01*
X82975721Y-107957486D01*
X83047149Y-107886057D01*
X82904292Y-106957486D02*
X82904292Y-106671771D01*
X82975721Y-106528914D01*
X83118578Y-106386057D01*
X83404292Y-106314628D01*
X83904292Y-106314628D01*
X84190006Y-106386057D01*
X84332863Y-106528914D01*
X84404292Y-106671771D01*
X84404292Y-106957486D01*
X84332863Y-107100343D01*
X84190006Y-107243200D01*
X83904292Y-107314628D01*
X83404292Y-107314628D01*
X83118578Y-107243200D01*
X82975721Y-107100343D01*
X82904292Y-106957486D01*
X84404292Y-105671771D02*
X82904292Y-105671771D01*
X83975721Y-105171771D01*
X82904292Y-104671771D01*
X84404292Y-104671771D01*
X84404292Y-103957486D02*
X82904292Y-103957486D01*
X82904292Y-103386057D01*
X82975721Y-103243200D01*
X83047149Y-103171771D01*
X83190006Y-103100343D01*
X83404292Y-103100343D01*
X83547149Y-103171771D01*
X83618578Y-103243200D01*
X83690006Y-103386057D01*
X83690006Y-103957486D01*
X83975721Y-102528914D02*
X83975721Y-101814628D01*
X84404292Y-102671771D02*
X82904292Y-102171771D01*
X84404292Y-101671771D01*
X82904292Y-101386057D02*
X82904292Y-100528914D01*
X84404292Y-100957486D02*
X82904292Y-100957486D01*
X84404292Y-100028914D02*
X82904292Y-100028914D01*
X83618578Y-98814628D02*
X83690006Y-98600343D01*
X83761435Y-98528914D01*
X83904292Y-98457485D01*
X84118578Y-98457485D01*
X84261435Y-98528914D01*
X84332863Y-98600343D01*
X84404292Y-98743200D01*
X84404292Y-99314628D01*
X82904292Y-99314628D01*
X82904292Y-98814628D01*
X82975721Y-98671771D01*
X83047149Y-98600343D01*
X83190006Y-98528914D01*
X83332863Y-98528914D01*
X83475721Y-98600343D01*
X83547149Y-98671771D01*
X83618578Y-98814628D01*
X83618578Y-99314628D01*
X84404292Y-97100343D02*
X84404292Y-97814628D01*
X82904292Y-97814628D01*
X83618578Y-96600343D02*
X83618578Y-96100343D01*
X84404292Y-95886057D02*
X84404292Y-96600343D01*
X82904292Y-96600343D01*
X82904292Y-95886057D01*
X82904292Y-94243200D02*
X84404292Y-93886057D01*
X83332863Y-93600343D01*
X84404292Y-93314628D01*
X82904292Y-92957485D01*
X84404292Y-92386057D02*
X82904292Y-92386057D01*
X82904292Y-91886057D02*
X82904292Y-91028914D01*
X84404292Y-91457486D02*
X82904292Y-91457486D01*
X84404292Y-90528914D02*
X82904292Y-90528914D01*
X83618578Y-90528914D02*
X83618578Y-89671771D01*
X84404292Y-89671771D02*
X82904292Y-89671771D01*
X83618578Y-87314628D02*
X83690006Y-87100343D01*
X83761435Y-87028914D01*
X83904292Y-86957486D01*
X84118578Y-86957486D01*
X84261435Y-87028914D01*
X84332863Y-87100343D01*
X84404292Y-87243200D01*
X84404292Y-87814628D01*
X82904292Y-87814628D01*
X82904292Y-87314628D01*
X82975721Y-87171771D01*
X83047149Y-87100343D01*
X83190006Y-87028914D01*
X83332863Y-87028914D01*
X83475721Y-87100343D01*
X83547149Y-87171771D01*
X83618578Y-87314628D01*
X83618578Y-87814628D01*
X84404292Y-86314628D02*
X82904292Y-86314628D01*
X83975721Y-85814628D01*
X82904292Y-85314628D01*
X84404292Y-85314628D01*
X82904292Y-84743200D02*
X84404292Y-84386057D01*
X83332863Y-84100343D01*
X84404292Y-83814628D01*
X82904292Y-83457486D01*
X83547149Y-81528914D02*
X83475721Y-81671771D01*
X83404292Y-81743200D01*
X83261435Y-81814628D01*
X83190006Y-81814628D01*
X83047149Y-81743200D01*
X82975721Y-81671771D01*
X82904292Y-81528914D01*
X82904292Y-81243200D01*
X82975721Y-81100343D01*
X83047149Y-81028914D01*
X83190006Y-80957486D01*
X83261435Y-80957486D01*
X83404292Y-81028914D01*
X83475721Y-81100343D01*
X83547149Y-81243200D01*
X83547149Y-81528914D01*
X83618578Y-81671771D01*
X83690006Y-81743200D01*
X83832863Y-81814628D01*
X84118578Y-81814628D01*
X84261435Y-81743200D01*
X84332863Y-81671771D01*
X84404292Y-81528914D01*
X84404292Y-81243200D01*
X84332863Y-81100343D01*
X84261435Y-81028914D01*
X84118578Y-80957486D01*
X83832863Y-80957486D01*
X83690006Y-81028914D01*
X83618578Y-81100343D01*
X83547149Y-81243200D01*
X83547149Y-80100343D02*
X83475721Y-80243200D01*
X83404292Y-80314628D01*
X83261435Y-80386057D01*
X83190006Y-80386057D01*
X83047149Y-80314628D01*
X82975721Y-80243200D01*
X82904292Y-80100343D01*
X82904292Y-79814628D01*
X82975721Y-79671771D01*
X83047149Y-79600343D01*
X83190006Y-79528914D01*
X83261435Y-79528914D01*
X83404292Y-79600343D01*
X83475721Y-79671771D01*
X83547149Y-79814628D01*
X83547149Y-80100343D01*
X83618578Y-80243200D01*
X83690006Y-80314628D01*
X83832863Y-80386057D01*
X84118578Y-80386057D01*
X84261435Y-80314628D01*
X84332863Y-80243200D01*
X84404292Y-80100343D01*
X84404292Y-79814628D01*
X84332863Y-79671771D01*
X84261435Y-79600343D01*
X84118578Y-79528914D01*
X83832863Y-79528914D01*
X83690006Y-79600343D01*
X83618578Y-79671771D01*
X83547149Y-79814628D01*
X84404292Y-77743200D02*
X82904292Y-77743200D01*
X82904292Y-77171771D01*
X82975721Y-77028914D01*
X83047149Y-76957486D01*
X83190006Y-76886057D01*
X83404292Y-76886057D01*
X83547149Y-76957486D01*
X83618578Y-77028914D01*
X83690006Y-77171771D01*
X83690006Y-77743200D01*
X84404292Y-76243200D02*
X82904292Y-76243200D01*
X84404292Y-75528914D02*
X82904292Y-75528914D01*
X84404292Y-74671771D01*
X82904292Y-74671771D01*
X84404292Y-72814628D02*
X82904292Y-72814628D01*
X82904292Y-72243200D01*
X82975721Y-72100343D01*
X83047149Y-72028914D01*
X83190006Y-71957486D01*
X83404292Y-71957486D01*
X83547149Y-72028914D01*
X83618578Y-72100343D01*
X83690006Y-72243200D01*
X83690006Y-72814628D01*
X84404292Y-71314628D02*
X82904292Y-71314628D01*
X84404292Y-70457486D01*
X82904292Y-70457486D01*
X84404292Y-69743200D02*
X82904292Y-69743200D01*
X82904292Y-69171771D01*
X82975721Y-69028914D01*
X83047149Y-68957486D01*
X83190006Y-68886057D01*
X83404292Y-68886057D01*
X83547149Y-68957486D01*
X83618578Y-69028914D01*
X83690006Y-69171771D01*
X83690006Y-69743200D01*
X83975721Y-67171771D02*
X83975721Y-66457486D01*
X84404292Y-67314628D02*
X82904292Y-66814628D01*
X84404292Y-66314628D01*
X84404292Y-65814628D02*
X82904292Y-65814628D01*
X82904292Y-65243200D01*
X82975721Y-65100343D01*
X83047149Y-65028914D01*
X83190006Y-64957486D01*
X83404292Y-64957486D01*
X83547149Y-65028914D01*
X83618578Y-65100343D01*
X83690006Y-65243200D01*
X83690006Y-65814628D01*
X84404292Y-64314628D02*
X82904292Y-64314628D01*
X82904292Y-63743200D01*
X82975721Y-63600343D01*
X83047149Y-63528914D01*
X83190006Y-63457486D01*
X83404292Y-63457486D01*
X83547149Y-63528914D01*
X83618578Y-63600343D01*
X83690006Y-63743200D01*
X83690006Y-64314628D01*
X84404292Y-62100343D02*
X84404292Y-62814628D01*
X82904292Y-62814628D01*
X84404292Y-61600343D02*
X82904292Y-61600343D01*
X84261435Y-60028914D02*
X84332863Y-60100343D01*
X84404292Y-60314628D01*
X84404292Y-60457486D01*
X84332863Y-60671771D01*
X84190006Y-60814628D01*
X84047149Y-60886057D01*
X83761435Y-60957486D01*
X83547149Y-60957486D01*
X83261435Y-60886057D01*
X83118578Y-60814628D01*
X82975721Y-60671771D01*
X82904292Y-60457486D01*
X82904292Y-60314628D01*
X82975721Y-60100343D01*
X83047149Y-60028914D01*
X83975721Y-59457486D02*
X83975721Y-58743200D01*
X84404292Y-59600343D02*
X82904292Y-59100343D01*
X84404292Y-58600343D01*
X82904292Y-58314628D02*
X82904292Y-57457486D01*
X84404292Y-57886057D02*
X82904292Y-57886057D01*
X84404292Y-56957486D02*
X82904292Y-56957486D01*
X82904292Y-55957486D02*
X82904292Y-55671771D01*
X82975721Y-55528914D01*
X83118578Y-55386057D01*
X83404292Y-55314628D01*
X83904292Y-55314628D01*
X84190006Y-55386057D01*
X84332863Y-55528914D01*
X84404292Y-55671771D01*
X84404292Y-55957486D01*
X84332863Y-56100343D01*
X84190006Y-56243200D01*
X83904292Y-56314628D01*
X83404292Y-56314628D01*
X83118578Y-56243200D01*
X82975721Y-56100343D01*
X82904292Y-55957486D01*
X84404292Y-54671771D02*
X82904292Y-54671771D01*
X84404292Y-53814628D01*
X82904292Y-53814628D01*
X84332863Y-53171771D02*
X84404292Y-52957485D01*
X84404292Y-52600343D01*
X84332863Y-52457485D01*
X84261435Y-52386057D01*
X84118578Y-52314628D01*
X83975721Y-52314628D01*
X83832863Y-52386057D01*
X83761435Y-52457485D01*
X83690006Y-52600343D01*
X83618578Y-52886057D01*
X83547149Y-53028914D01*
X83475721Y-53100343D01*
X83332863Y-53171771D01*
X83190006Y-53171771D01*
X83047149Y-53100343D01*
X82975721Y-53028914D01*
X82904292Y-52886057D01*
X82904292Y-52528914D01*
X82975721Y-52314628D01*
D11*
X161956754Y-75613651D02*
X161956754Y-74613651D01*
X162956754Y-74661271D02*
X162861516Y-74613651D01*
X162718659Y-74613651D01*
X162575802Y-74661271D01*
X162480564Y-74756509D01*
X162432945Y-74851747D01*
X162385326Y-75042223D01*
X162385326Y-75185080D01*
X162432945Y-75375556D01*
X162480564Y-75470794D01*
X162575802Y-75566032D01*
X162718659Y-75613651D01*
X162813897Y-75613651D01*
X162956754Y-75566032D01*
X163004373Y-75518413D01*
X163004373Y-75185080D01*
X162813897Y-75185080D01*
X163766278Y-75089842D02*
X163909135Y-75137461D01*
X163956754Y-75185080D01*
X164004373Y-75280318D01*
X164004373Y-75423175D01*
X163956754Y-75518413D01*
X163909135Y-75566032D01*
X163813897Y-75613651D01*
X163432945Y-75613651D01*
X163432945Y-74613651D01*
X163766278Y-74613651D01*
X163861516Y-74661271D01*
X163909135Y-74708890D01*
X163956754Y-74804128D01*
X163956754Y-74899366D01*
X163909135Y-74994604D01*
X163861516Y-75042223D01*
X163766278Y-75089842D01*
X163432945Y-75089842D01*
X164290088Y-74613651D02*
X164861516Y-74613651D01*
X164575802Y-75613651D02*
X164575802Y-74613651D01*
X166385326Y-74946985D02*
X166385326Y-75613651D01*
X166147230Y-74566032D02*
X165909135Y-75280318D01*
X166528183Y-75280318D01*
D10*
X78102783Y-103784506D02*
X79317069Y-103784506D01*
X79459926Y-103713077D01*
X79531354Y-103641649D01*
X79602783Y-103498792D01*
X79602783Y-103213077D01*
X79531354Y-103070220D01*
X79459926Y-102998792D01*
X79317069Y-102927363D01*
X78102783Y-102927363D01*
X79602783Y-102213077D02*
X78102783Y-102213077D01*
X79602783Y-101355934D01*
X78102783Y-101355934D01*
X79602783Y-100641649D02*
X78102783Y-100641649D01*
X78102783Y-100141649D02*
X79602783Y-99641649D01*
X78102783Y-99141649D01*
X78817069Y-98641649D02*
X78817069Y-98141649D01*
X79602783Y-97927363D02*
X79602783Y-98641649D01*
X78102783Y-98641649D01*
X78102783Y-97927363D01*
X79602783Y-96427363D02*
X78888497Y-96927363D01*
X79602783Y-97284506D02*
X78102783Y-97284506D01*
X78102783Y-96713077D01*
X78174212Y-96570220D01*
X78245640Y-96498792D01*
X78388497Y-96427363D01*
X78602783Y-96427363D01*
X78745640Y-96498792D01*
X78817069Y-96570220D01*
X78888497Y-96713077D01*
X78888497Y-97284506D01*
X79531354Y-95855934D02*
X79602783Y-95641649D01*
X79602783Y-95284506D01*
X79531354Y-95141649D01*
X79459926Y-95070220D01*
X79317069Y-94998792D01*
X79174212Y-94998792D01*
X79031354Y-95070220D01*
X78959926Y-95141649D01*
X78888497Y-95284506D01*
X78817069Y-95570220D01*
X78745640Y-95713077D01*
X78674212Y-95784506D01*
X78531354Y-95855934D01*
X78388497Y-95855934D01*
X78245640Y-95784506D01*
X78174212Y-95713077D01*
X78102783Y-95570220D01*
X78102783Y-95213077D01*
X78174212Y-94998792D01*
X79174212Y-94427363D02*
X79174212Y-93713077D01*
X79602783Y-94570220D02*
X78102783Y-94070220D01*
X79602783Y-93570220D01*
X79602783Y-92355934D02*
X79602783Y-93070220D01*
X78102783Y-93070220D01*
X78817069Y-90213077D02*
X78888497Y-89998792D01*
X78959926Y-89927363D01*
X79102783Y-89855934D01*
X79317069Y-89855934D01*
X79459926Y-89927363D01*
X79531354Y-89998792D01*
X79602783Y-90141649D01*
X79602783Y-90713077D01*
X78102783Y-90713077D01*
X78102783Y-90213077D01*
X78174212Y-90070220D01*
X78245640Y-89998792D01*
X78388497Y-89927363D01*
X78531354Y-89927363D01*
X78674212Y-89998792D01*
X78745640Y-90070220D01*
X78817069Y-90213077D01*
X78817069Y-90713077D01*
X79174212Y-89284506D02*
X79174212Y-88570220D01*
X79602783Y-89427363D02*
X78102783Y-88927363D01*
X79602783Y-88427363D01*
X79531354Y-87998792D02*
X79602783Y-87784506D01*
X79602783Y-87427363D01*
X79531354Y-87284506D01*
X79459926Y-87213077D01*
X79317069Y-87141649D01*
X79174212Y-87141649D01*
X79031354Y-87213077D01*
X78959926Y-87284506D01*
X78888497Y-87427363D01*
X78817069Y-87713077D01*
X78745640Y-87855934D01*
X78674212Y-87927363D01*
X78531354Y-87998792D01*
X78388497Y-87998792D01*
X78245640Y-87927363D01*
X78174212Y-87855934D01*
X78102783Y-87713077D01*
X78102783Y-87355934D01*
X78174212Y-87141649D01*
X78817069Y-86498792D02*
X78817069Y-85998792D01*
X79602783Y-85784506D02*
X79602783Y-86498792D01*
X78102783Y-86498792D01*
X78102783Y-85784506D01*
X78817069Y-83498792D02*
X78888497Y-83284506D01*
X78959926Y-83213077D01*
X79102783Y-83141649D01*
X79317069Y-83141649D01*
X79459926Y-83213077D01*
X79531354Y-83284506D01*
X79602783Y-83427363D01*
X79602783Y-83998792D01*
X78102783Y-83998792D01*
X78102783Y-83498792D01*
X78174212Y-83355934D01*
X78245640Y-83284506D01*
X78388497Y-83213077D01*
X78531354Y-83213077D01*
X78674212Y-83284506D01*
X78745640Y-83355934D01*
X78817069Y-83498792D01*
X78817069Y-83998792D01*
X78102783Y-82213077D02*
X78102783Y-81927363D01*
X78174212Y-81784506D01*
X78317069Y-81641649D01*
X78602783Y-81570220D01*
X79102783Y-81570220D01*
X79388497Y-81641649D01*
X79531354Y-81784506D01*
X79602783Y-81927363D01*
X79602783Y-82213077D01*
X79531354Y-82355934D01*
X79388497Y-82498792D01*
X79102783Y-82570220D01*
X78602783Y-82570220D01*
X78317069Y-82498792D01*
X78174212Y-82355934D01*
X78102783Y-82213077D01*
X79174212Y-80998792D02*
X79174212Y-80284506D01*
X79602783Y-81141649D02*
X78102783Y-80641649D01*
X79602783Y-80141649D01*
X79602783Y-78784506D02*
X78888497Y-79284506D01*
X79602783Y-79641649D02*
X78102783Y-79641649D01*
X78102783Y-79070220D01*
X78174212Y-78927363D01*
X78245640Y-78855934D01*
X78388497Y-78784506D01*
X78602783Y-78784506D01*
X78745640Y-78855934D01*
X78817069Y-78927363D01*
X78888497Y-79070220D01*
X78888497Y-79641649D01*
X79602783Y-78141649D02*
X78102783Y-78141649D01*
X78102783Y-77784506D01*
X78174212Y-77570220D01*
X78317069Y-77427363D01*
X78459926Y-77355934D01*
X78745640Y-77284506D01*
X78959926Y-77284506D01*
X79245640Y-77355934D01*
X79388497Y-77427363D01*
X79531354Y-77570220D01*
X79602783Y-77784506D01*
X79602783Y-78141649D01*
X79602783Y-75498792D02*
X78102783Y-75498792D01*
X79602783Y-74641649D01*
X78102783Y-74641649D01*
X78102783Y-73641649D02*
X78102783Y-73355934D01*
X78174212Y-73213077D01*
X78317069Y-73070220D01*
X78602783Y-72998792D01*
X79102783Y-72998792D01*
X79388497Y-73070220D01*
X79531354Y-73213077D01*
X79602783Y-73355934D01*
X79602783Y-73641649D01*
X79531354Y-73784506D01*
X79388497Y-73927363D01*
X79102783Y-73998792D01*
X78602783Y-73998792D01*
X78317069Y-73927363D01*
X78174212Y-73784506D01*
X78102783Y-73641649D01*
X78102783Y-72570220D02*
X78102783Y-71713077D01*
X79602783Y-72141649D02*
X78102783Y-72141649D01*
X78817069Y-69570220D02*
X78817069Y-70070220D01*
X79602783Y-70070220D02*
X78102783Y-70070220D01*
X78102783Y-69355934D01*
X78102783Y-68498792D02*
X78102783Y-68213077D01*
X78174212Y-68070220D01*
X78317069Y-67927363D01*
X78602783Y-67855934D01*
X79102783Y-67855934D01*
X79388497Y-67927363D01*
X79531354Y-68070220D01*
X79602783Y-68213077D01*
X79602783Y-68498792D01*
X79531354Y-68641649D01*
X79388497Y-68784506D01*
X79102783Y-68855934D01*
X78602783Y-68855934D01*
X78317069Y-68784506D01*
X78174212Y-68641649D01*
X78102783Y-68498792D01*
X79602783Y-66355934D02*
X78888497Y-66855934D01*
X79602783Y-67213077D02*
X78102783Y-67213077D01*
X78102783Y-66641649D01*
X78174212Y-66498792D01*
X78245640Y-66427363D01*
X78388497Y-66355934D01*
X78602783Y-66355934D01*
X78745640Y-66427363D01*
X78817069Y-66498792D01*
X78888497Y-66641649D01*
X78888497Y-67213077D01*
X79602783Y-64570220D02*
X78102783Y-64570220D01*
X78102783Y-63998792D01*
X78174212Y-63855934D01*
X78245640Y-63784506D01*
X78388497Y-63713077D01*
X78602783Y-63713077D01*
X78745640Y-63784506D01*
X78817069Y-63855934D01*
X78888497Y-63998792D01*
X78888497Y-64570220D01*
X79602783Y-63070220D02*
X78102783Y-63070220D01*
X79602783Y-62213077D01*
X78102783Y-62213077D01*
X79602783Y-61498792D02*
X78102783Y-61498792D01*
X78102783Y-60927363D01*
X78174212Y-60784506D01*
X78245640Y-60713077D01*
X78388497Y-60641649D01*
X78602783Y-60641649D01*
X78745640Y-60713077D01*
X78817069Y-60784506D01*
X78888497Y-60927363D01*
X78888497Y-61498792D01*
X78102783Y-58855934D02*
X79317069Y-58855934D01*
X79459926Y-58784506D01*
X79531354Y-58713077D01*
X79602783Y-58570220D01*
X79602783Y-58284506D01*
X79531354Y-58141649D01*
X79459926Y-58070220D01*
X79317069Y-57998792D01*
X78102783Y-57998792D01*
X79531354Y-57355934D02*
X79602783Y-57141649D01*
X79602783Y-56784506D01*
X79531354Y-56641649D01*
X79459926Y-56570220D01*
X79317069Y-56498792D01*
X79174212Y-56498792D01*
X79031354Y-56570220D01*
X78959926Y-56641649D01*
X78888497Y-56784506D01*
X78817069Y-57070220D01*
X78745640Y-57213077D01*
X78674212Y-57284506D01*
X78531354Y-57355934D01*
X78388497Y-57355934D01*
X78245640Y-57284506D01*
X78174212Y-57213077D01*
X78102783Y-57070220D01*
X78102783Y-56713077D01*
X78174212Y-56498792D01*
X78817069Y-55855934D02*
X78817069Y-55355934D01*
X79602783Y-55141649D02*
X79602783Y-55855934D01*
X78102783Y-55855934D01*
X78102783Y-55141649D01*
D11*
X144408026Y-75559821D02*
X144408026Y-74559821D01*
X145408026Y-74607441D02*
X145312788Y-74559821D01*
X145169931Y-74559821D01*
X145027074Y-74607441D01*
X144931836Y-74702679D01*
X144884217Y-74797917D01*
X144836598Y-74988393D01*
X144836598Y-75131250D01*
X144884217Y-75321726D01*
X144931836Y-75416964D01*
X145027074Y-75512202D01*
X145169931Y-75559821D01*
X145265169Y-75559821D01*
X145408026Y-75512202D01*
X145455645Y-75464583D01*
X145455645Y-75131250D01*
X145265169Y-75131250D01*
X146217550Y-75036012D02*
X146360407Y-75083631D01*
X146408026Y-75131250D01*
X146455645Y-75226488D01*
X146455645Y-75369345D01*
X146408026Y-75464583D01*
X146360407Y-75512202D01*
X146265169Y-75559821D01*
X145884217Y-75559821D01*
X145884217Y-74559821D01*
X146217550Y-74559821D01*
X146312788Y-74607441D01*
X146360407Y-74655060D01*
X146408026Y-74750298D01*
X146408026Y-74845536D01*
X146360407Y-74940774D01*
X146312788Y-74988393D01*
X146217550Y-75036012D01*
X145884217Y-75036012D01*
X146741360Y-74559821D02*
X147312788Y-74559821D01*
X147027074Y-75559821D02*
X147027074Y-74559821D01*
X148550883Y-74988393D02*
X148455645Y-74940774D01*
X148408026Y-74893155D01*
X148360407Y-74797917D01*
X148360407Y-74750298D01*
X148408026Y-74655060D01*
X148455645Y-74607441D01*
X148550883Y-74559821D01*
X148741360Y-74559821D01*
X148836598Y-74607441D01*
X148884217Y-74655060D01*
X148931836Y-74750298D01*
X148931836Y-74797917D01*
X148884217Y-74893155D01*
X148836598Y-74940774D01*
X148741360Y-74988393D01*
X148550883Y-74988393D01*
X148455645Y-75036012D01*
X148408026Y-75083631D01*
X148360407Y-75178869D01*
X148360407Y-75369345D01*
X148408026Y-75464583D01*
X148455645Y-75512202D01*
X148550883Y-75559821D01*
X148741360Y-75559821D01*
X148836598Y-75512202D01*
X148884217Y-75464583D01*
X148931836Y-75369345D01*
X148931836Y-75178869D01*
X148884217Y-75083631D01*
X148836598Y-75036012D01*
X148741360Y-74988393D01*
D10*
X184221212Y-100715763D02*
X185192640Y-100715763D01*
X185306926Y-100658620D01*
X185364069Y-100601477D01*
X185421212Y-100487191D01*
X185421212Y-100258620D01*
X185364069Y-100144334D01*
X185306926Y-100087191D01*
X185192640Y-100030048D01*
X184221212Y-100030048D01*
X184621212Y-99458620D02*
X185421212Y-99458620D01*
X184735497Y-99458620D02*
X184678355Y-99401477D01*
X184621212Y-99287191D01*
X184621212Y-99115763D01*
X184678355Y-99001477D01*
X184792640Y-98944334D01*
X185421212Y-98944334D01*
X185421212Y-98372906D02*
X184621212Y-98372906D01*
X184221212Y-98372906D02*
X184278355Y-98430048D01*
X184335497Y-98372906D01*
X184278355Y-98315763D01*
X184221212Y-98372906D01*
X184335497Y-98372906D01*
X184621212Y-97915763D02*
X185421212Y-97630048D01*
X184621212Y-97344334D01*
X185364069Y-96430048D02*
X185421212Y-96544334D01*
X185421212Y-96772906D01*
X185364069Y-96887191D01*
X185249783Y-96944334D01*
X184792640Y-96944334D01*
X184678355Y-96887191D01*
X184621212Y-96772906D01*
X184621212Y-96544334D01*
X184678355Y-96430048D01*
X184792640Y-96372906D01*
X184906926Y-96372906D01*
X185021212Y-96944334D01*
X185421212Y-95858620D02*
X184621212Y-95858620D01*
X184849783Y-95858620D02*
X184735497Y-95801477D01*
X184678355Y-95744334D01*
X184621212Y-95630048D01*
X184621212Y-95515763D01*
X185364069Y-95172906D02*
X185421212Y-95058620D01*
X185421212Y-94830048D01*
X185364069Y-94715763D01*
X185249783Y-94658620D01*
X185192640Y-94658620D01*
X185078355Y-94715763D01*
X185021212Y-94830048D01*
X185021212Y-95001477D01*
X184964069Y-95115763D01*
X184849783Y-95172906D01*
X184792640Y-95172906D01*
X184678355Y-95115763D01*
X184621212Y-95001477D01*
X184621212Y-94830048D01*
X184678355Y-94715763D01*
X185421212Y-93630048D02*
X184792640Y-93630048D01*
X184678355Y-93687191D01*
X184621212Y-93801477D01*
X184621212Y-94030048D01*
X184678355Y-94144334D01*
X185364069Y-93630048D02*
X185421212Y-93744334D01*
X185421212Y-94030048D01*
X185364069Y-94144334D01*
X185249783Y-94201477D01*
X185135497Y-94201477D01*
X185021212Y-94144334D01*
X184964069Y-94030048D01*
X184964069Y-93744334D01*
X184906926Y-93630048D01*
X185421212Y-92887191D02*
X185364069Y-93001477D01*
X185249783Y-93058620D01*
X184221212Y-93058620D01*
X184735497Y-91344334D02*
X184678355Y-91458620D01*
X184621212Y-91515763D01*
X184506926Y-91572906D01*
X184449783Y-91572906D01*
X184335497Y-91515763D01*
X184278355Y-91458620D01*
X184221212Y-91344334D01*
X184221212Y-91115763D01*
X184278355Y-91001477D01*
X184335497Y-90944334D01*
X184449783Y-90887191D01*
X184506926Y-90887191D01*
X184621212Y-90944334D01*
X184678355Y-91001477D01*
X184735497Y-91115763D01*
X184735497Y-91344334D01*
X184792640Y-91458620D01*
X184849783Y-91515763D01*
X184964069Y-91572906D01*
X185192640Y-91572906D01*
X185306926Y-91515763D01*
X185364069Y-91458620D01*
X185421212Y-91344334D01*
X185421212Y-91115763D01*
X185364069Y-91001477D01*
X185306926Y-90944334D01*
X185192640Y-90887191D01*
X184964069Y-90887191D01*
X184849783Y-90944334D01*
X184792640Y-91001477D01*
X184735497Y-91115763D01*
X184735497Y-90201477D02*
X184678355Y-90315763D01*
X184621212Y-90372906D01*
X184506926Y-90430048D01*
X184449783Y-90430048D01*
X184335497Y-90372906D01*
X184278355Y-90315763D01*
X184221212Y-90201477D01*
X184221212Y-89972906D01*
X184278355Y-89858620D01*
X184335497Y-89801477D01*
X184449783Y-89744334D01*
X184506926Y-89744334D01*
X184621212Y-89801477D01*
X184678355Y-89858620D01*
X184735497Y-89972906D01*
X184735497Y-90201477D01*
X184792640Y-90315763D01*
X184849783Y-90372906D01*
X184964069Y-90430048D01*
X185192640Y-90430048D01*
X185306926Y-90372906D01*
X185364069Y-90315763D01*
X185421212Y-90201477D01*
X185421212Y-89972906D01*
X185364069Y-89858620D01*
X185306926Y-89801477D01*
X185192640Y-89744334D01*
X184964069Y-89744334D01*
X184849783Y-89801477D01*
X184792640Y-89858620D01*
X184735497Y-89972906D01*
X184621212Y-88315763D02*
X185821212Y-88315763D01*
X184678355Y-88315763D02*
X184621212Y-88201477D01*
X184621212Y-87972906D01*
X184678355Y-87858620D01*
X184735497Y-87801477D01*
X184849783Y-87744334D01*
X185192640Y-87744334D01*
X185306926Y-87801477D01*
X185364069Y-87858620D01*
X185421212Y-87972906D01*
X185421212Y-88201477D01*
X185364069Y-88315763D01*
X185421212Y-87230048D02*
X184621212Y-87230048D01*
X184221212Y-87230048D02*
X184278355Y-87287191D01*
X184335497Y-87230048D01*
X184278355Y-87172906D01*
X184221212Y-87230048D01*
X184335497Y-87230048D01*
X184621212Y-86658620D02*
X185421212Y-86658620D01*
X184735497Y-86658620D02*
X184678355Y-86601477D01*
X184621212Y-86487191D01*
X184621212Y-86315763D01*
X184678355Y-86201477D01*
X184792640Y-86144334D01*
X185421212Y-86144334D01*
X184792640Y-84258620D02*
X184849783Y-84087191D01*
X184906926Y-84030048D01*
X185021212Y-83972906D01*
X185192640Y-83972906D01*
X185306926Y-84030048D01*
X185364069Y-84087191D01*
X185421212Y-84201477D01*
X185421212Y-84658620D01*
X184221212Y-84658620D01*
X184221212Y-84258620D01*
X184278355Y-84144334D01*
X184335497Y-84087191D01*
X184449783Y-84030048D01*
X184564069Y-84030048D01*
X184678355Y-84087191D01*
X184735497Y-84144334D01*
X184792640Y-84258620D01*
X184792640Y-84658620D01*
X185421212Y-82944334D02*
X184792640Y-82944334D01*
X184678355Y-83001477D01*
X184621212Y-83115763D01*
X184621212Y-83344334D01*
X184678355Y-83458620D01*
X185364069Y-82944334D02*
X185421212Y-83058620D01*
X185421212Y-83344334D01*
X185364069Y-83458620D01*
X185249783Y-83515763D01*
X185135497Y-83515763D01*
X185021212Y-83458620D01*
X184964069Y-83344334D01*
X184964069Y-83058620D01*
X184906926Y-82944334D01*
X185364069Y-82430048D02*
X185421212Y-82315763D01*
X185421212Y-82087191D01*
X185364069Y-81972906D01*
X185249783Y-81915763D01*
X185192640Y-81915763D01*
X185078355Y-81972906D01*
X185021212Y-82087191D01*
X185021212Y-82258620D01*
X184964069Y-82372906D01*
X184849783Y-82430048D01*
X184792640Y-82430048D01*
X184678355Y-82372906D01*
X184621212Y-82258620D01*
X184621212Y-82087191D01*
X184678355Y-81972906D01*
X185364069Y-80944334D02*
X185421212Y-81058620D01*
X185421212Y-81287191D01*
X185364069Y-81401477D01*
X185249783Y-81458620D01*
X184792640Y-81458620D01*
X184678355Y-81401477D01*
X184621212Y-81287191D01*
X184621212Y-81058620D01*
X184678355Y-80944334D01*
X184792640Y-80887191D01*
X184906926Y-80887191D01*
X185021212Y-81458620D01*
X184792640Y-79058620D02*
X184849783Y-78887191D01*
X184906926Y-78830048D01*
X185021212Y-78772906D01*
X185192640Y-78772906D01*
X185306926Y-78830048D01*
X185364069Y-78887191D01*
X185421212Y-79001477D01*
X185421212Y-79458620D01*
X184221212Y-79458620D01*
X184221212Y-79058620D01*
X184278355Y-78944334D01*
X184335497Y-78887191D01*
X184449783Y-78830048D01*
X184564069Y-78830048D01*
X184678355Y-78887191D01*
X184735497Y-78944334D01*
X184792640Y-79058620D01*
X184792640Y-79458620D01*
X185421212Y-78087191D02*
X185364069Y-78201477D01*
X185306926Y-78258620D01*
X185192640Y-78315763D01*
X184849783Y-78315763D01*
X184735497Y-78258620D01*
X184678355Y-78201477D01*
X184621212Y-78087191D01*
X184621212Y-77915763D01*
X184678355Y-77801477D01*
X184735497Y-77744334D01*
X184849783Y-77687191D01*
X185192640Y-77687191D01*
X185306926Y-77744334D01*
X185364069Y-77801477D01*
X185421212Y-77915763D01*
X185421212Y-78087191D01*
X185421212Y-76658620D02*
X184792640Y-76658620D01*
X184678355Y-76715763D01*
X184621212Y-76830048D01*
X184621212Y-77058620D01*
X184678355Y-77172906D01*
X185364069Y-76658620D02*
X185421212Y-76772906D01*
X185421212Y-77058620D01*
X185364069Y-77172906D01*
X185249783Y-77230048D01*
X185135497Y-77230048D01*
X185021212Y-77172906D01*
X184964069Y-77058620D01*
X184964069Y-76772906D01*
X184906926Y-76658620D01*
X185421212Y-76087191D02*
X184621212Y-76087191D01*
X184849783Y-76087191D02*
X184735497Y-76030048D01*
X184678355Y-75972906D01*
X184621212Y-75858620D01*
X184621212Y-75744334D01*
X185421212Y-74830048D02*
X184221212Y-74830048D01*
X185364069Y-74830048D02*
X185421212Y-74944334D01*
X185421212Y-75172906D01*
X185364069Y-75287191D01*
X185306926Y-75344334D01*
X185192640Y-75401477D01*
X184849783Y-75401477D01*
X184735497Y-75344334D01*
X184678355Y-75287191D01*
X184621212Y-75172906D01*
X184621212Y-74944334D01*
X184678355Y-74830048D01*
X188656640Y-100115763D02*
X188656640Y-100515763D01*
X189285212Y-100515763D02*
X188085212Y-100515763D01*
X188085212Y-99944334D01*
X188485212Y-98972906D02*
X189285212Y-98972906D01*
X188485212Y-99487191D02*
X189113783Y-99487191D01*
X189228069Y-99430048D01*
X189285212Y-99315763D01*
X189285212Y-99144334D01*
X189228069Y-99030048D01*
X189170926Y-98972906D01*
X188485212Y-98572906D02*
X188485212Y-98115763D01*
X188085212Y-98401477D02*
X189113783Y-98401477D01*
X189228069Y-98344334D01*
X189285212Y-98230048D01*
X189285212Y-98115763D01*
X188485212Y-97201477D02*
X189285212Y-97201477D01*
X188485212Y-97715763D02*
X189113783Y-97715763D01*
X189228069Y-97658620D01*
X189285212Y-97544334D01*
X189285212Y-97372906D01*
X189228069Y-97258620D01*
X189170926Y-97201477D01*
X189285212Y-96630048D02*
X188485212Y-96630048D01*
X188713783Y-96630048D02*
X188599497Y-96572906D01*
X188542355Y-96515763D01*
X188485212Y-96401477D01*
X188485212Y-96287191D01*
X189228069Y-95430048D02*
X189285212Y-95544334D01*
X189285212Y-95772906D01*
X189228069Y-95887191D01*
X189113783Y-95944334D01*
X188656640Y-95944334D01*
X188542355Y-95887191D01*
X188485212Y-95772906D01*
X188485212Y-95544334D01*
X188542355Y-95430048D01*
X188656640Y-95372906D01*
X188770926Y-95372906D01*
X188885212Y-95944334D01*
X189285212Y-94858620D02*
X188085212Y-94858620D01*
X188085212Y-94401477D01*
X188142355Y-94287191D01*
X188199497Y-94230048D01*
X188313783Y-94172906D01*
X188485212Y-94172906D01*
X188599497Y-94230048D01*
X188656640Y-94287191D01*
X188713783Y-94401477D01*
X188713783Y-94858620D01*
X189285212Y-93658620D02*
X188485212Y-93658620D01*
X188713783Y-93658620D02*
X188599497Y-93601477D01*
X188542355Y-93544334D01*
X188485212Y-93430048D01*
X188485212Y-93315763D01*
X189285212Y-92744334D02*
X189228069Y-92858620D01*
X189170926Y-92915763D01*
X189056640Y-92972906D01*
X188713783Y-92972906D01*
X188599497Y-92915763D01*
X188542355Y-92858620D01*
X188485212Y-92744334D01*
X188485212Y-92572906D01*
X188542355Y-92458620D01*
X188599497Y-92401477D01*
X188713783Y-92344334D01*
X189056640Y-92344334D01*
X189170926Y-92401477D01*
X189228069Y-92458620D01*
X189285212Y-92572906D01*
X189285212Y-92744334D01*
X189285212Y-91658620D02*
X189228069Y-91772906D01*
X189170926Y-91830048D01*
X189056640Y-91887191D01*
X188713783Y-91887191D01*
X188599497Y-91830048D01*
X188542355Y-91772906D01*
X188485212Y-91658620D01*
X188485212Y-91487191D01*
X188542355Y-91372906D01*
X188599497Y-91315763D01*
X188713783Y-91258620D01*
X189056640Y-91258620D01*
X189170926Y-91315763D01*
X189228069Y-91372906D01*
X189285212Y-91487191D01*
X189285212Y-91658620D01*
X188485212Y-90915763D02*
X188485212Y-90458620D01*
X189285212Y-90744334D02*
X188256640Y-90744334D01*
X188142355Y-90687191D01*
X188085212Y-90572906D01*
X188085212Y-90458620D01*
X189285212Y-90058620D02*
X188085212Y-90058620D01*
X188085212Y-89601477D01*
X188142355Y-89487191D01*
X188199497Y-89430048D01*
X188313783Y-89372906D01*
X188485212Y-89372906D01*
X188599497Y-89430048D01*
X188656640Y-89487191D01*
X188713783Y-89601477D01*
X188713783Y-90058620D01*
X189228069Y-88401477D02*
X189285212Y-88515763D01*
X189285212Y-88744334D01*
X189228069Y-88858620D01*
X189113783Y-88915763D01*
X188656640Y-88915763D01*
X188542355Y-88858620D01*
X188485212Y-88744334D01*
X188485212Y-88515763D01*
X188542355Y-88401477D01*
X188656640Y-88344334D01*
X188770926Y-88344334D01*
X188885212Y-88915763D01*
X189285212Y-87830048D02*
X188485212Y-87830048D01*
X188713783Y-87830048D02*
X188599497Y-87772906D01*
X188542355Y-87715763D01*
X188485212Y-87601477D01*
X188485212Y-87487191D01*
X188485212Y-87258620D02*
X188485212Y-86801477D01*
X189285212Y-87087191D02*
X188256640Y-87087191D01*
X188142355Y-87030048D01*
X188085212Y-86915763D01*
X188085212Y-86801477D01*
X189285212Y-86230048D02*
X189228069Y-86344334D01*
X189170926Y-86401477D01*
X189056640Y-86458620D01*
X188713783Y-86458620D01*
X188599497Y-86401477D01*
X188542355Y-86344334D01*
X188485212Y-86230048D01*
X188485212Y-86058620D01*
X188542355Y-85944334D01*
X188599497Y-85887191D01*
X188713783Y-85830048D01*
X189056640Y-85830048D01*
X189170926Y-85887191D01*
X189228069Y-85944334D01*
X189285212Y-86058620D01*
X189285212Y-86230048D01*
X189285212Y-85315763D02*
X188485212Y-85315763D01*
X188713783Y-85315763D02*
X188599497Y-85258620D01*
X188542355Y-85201477D01*
X188485212Y-85087191D01*
X188485212Y-84972906D01*
X189285212Y-84572906D02*
X188485212Y-84572906D01*
X188599497Y-84572906D02*
X188542355Y-84515763D01*
X188485212Y-84401477D01*
X188485212Y-84230048D01*
X188542355Y-84115763D01*
X188656640Y-84058620D01*
X189285212Y-84058620D01*
X188656640Y-84058620D02*
X188542355Y-84001477D01*
X188485212Y-83887191D01*
X188485212Y-83715763D01*
X188542355Y-83601477D01*
X188656640Y-83544334D01*
X189285212Y-83544334D01*
X189285212Y-82458620D02*
X188656640Y-82458620D01*
X188542355Y-82515763D01*
X188485212Y-82630048D01*
X188485212Y-82858620D01*
X188542355Y-82972906D01*
X189228069Y-82458620D02*
X189285212Y-82572906D01*
X189285212Y-82858620D01*
X189228069Y-82972906D01*
X189113783Y-83030048D01*
X188999497Y-83030048D01*
X188885212Y-82972906D01*
X188828069Y-82858620D01*
X188828069Y-82572906D01*
X188770926Y-82458620D01*
X188485212Y-81887191D02*
X189285212Y-81887191D01*
X188599497Y-81887191D02*
X188542355Y-81830048D01*
X188485212Y-81715763D01*
X188485212Y-81544334D01*
X188542355Y-81430048D01*
X188656640Y-81372906D01*
X189285212Y-81372906D01*
X189228069Y-80287191D02*
X189285212Y-80401477D01*
X189285212Y-80630048D01*
X189228069Y-80744334D01*
X189170926Y-80801477D01*
X189056640Y-80858620D01*
X188713783Y-80858620D01*
X188599497Y-80801477D01*
X188542355Y-80744334D01*
X188485212Y-80630048D01*
X188485212Y-80401477D01*
X188542355Y-80287191D01*
X189228069Y-79315763D02*
X189285212Y-79430048D01*
X189285212Y-79658620D01*
X189228069Y-79772906D01*
X189113783Y-79830048D01*
X188656640Y-79830048D01*
X188542355Y-79772906D01*
X188485212Y-79658620D01*
X188485212Y-79430048D01*
X188542355Y-79315763D01*
X188656640Y-79258620D01*
X188770926Y-79258620D01*
X188885212Y-79830048D01*
X189170926Y-78744334D02*
X189228069Y-78687191D01*
X189285212Y-78744334D01*
X189228069Y-78801477D01*
X189170926Y-78744334D01*
X189285212Y-78744334D01*
X189228069Y-77658620D02*
X189285212Y-77772906D01*
X189285212Y-78001477D01*
X189228069Y-78115763D01*
X189170926Y-78172906D01*
X189056640Y-78230048D01*
X188713783Y-78230048D01*
X188599497Y-78172906D01*
X188542355Y-78115763D01*
X188485212Y-78001477D01*
X188485212Y-77772906D01*
X188542355Y-77658620D01*
X189285212Y-76972906D02*
X189228069Y-77087191D01*
X189170926Y-77144334D01*
X189056640Y-77201477D01*
X188713783Y-77201477D01*
X188599497Y-77144334D01*
X188542355Y-77087191D01*
X188485212Y-76972906D01*
X188485212Y-76801477D01*
X188542355Y-76687191D01*
X188599497Y-76630048D01*
X188713783Y-76572906D01*
X189056640Y-76572906D01*
X189170926Y-76630048D01*
X189228069Y-76687191D01*
X189285212Y-76801477D01*
X189285212Y-76972906D01*
X189285212Y-76058620D02*
X188485212Y-76058620D01*
X188599497Y-76058620D02*
X188542355Y-76001477D01*
X188485212Y-75887191D01*
X188485212Y-75715763D01*
X188542355Y-75601477D01*
X188656640Y-75544334D01*
X189285212Y-75544334D01*
X188656640Y-75544334D02*
X188542355Y-75487191D01*
X188485212Y-75372906D01*
X188485212Y-75201477D01*
X188542355Y-75087191D01*
X188656640Y-75030048D01*
X189285212Y-75030048D01*
X192520640Y-101058620D02*
X192520640Y-101458620D01*
X193149212Y-101458620D02*
X191949212Y-101458620D01*
X191949212Y-100887191D01*
X193149212Y-100258620D02*
X193092069Y-100372906D01*
X193034926Y-100430048D01*
X192920640Y-100487191D01*
X192577783Y-100487191D01*
X192463497Y-100430048D01*
X192406355Y-100372906D01*
X192349212Y-100258620D01*
X192349212Y-100087191D01*
X192406355Y-99972906D01*
X192463497Y-99915763D01*
X192577783Y-99858620D01*
X192920640Y-99858620D01*
X193034926Y-99915763D01*
X193092069Y-99972906D01*
X193149212Y-100087191D01*
X193149212Y-100258620D01*
X193149212Y-99344334D02*
X192349212Y-99344334D01*
X192577783Y-99344334D02*
X192463497Y-99287191D01*
X192406355Y-99230048D01*
X192349212Y-99115763D01*
X192349212Y-99001477D01*
X192349212Y-97172906D02*
X193149212Y-97172906D01*
X192349212Y-97687191D02*
X192977783Y-97687191D01*
X193092069Y-97630048D01*
X193149212Y-97515763D01*
X193149212Y-97344334D01*
X193092069Y-97230048D01*
X193034926Y-97172906D01*
X193092069Y-96658620D02*
X193149212Y-96544334D01*
X193149212Y-96315763D01*
X193092069Y-96201477D01*
X192977783Y-96144334D01*
X192920640Y-96144334D01*
X192806355Y-96201477D01*
X192749212Y-96315763D01*
X192749212Y-96487191D01*
X192692069Y-96601477D01*
X192577783Y-96658620D01*
X192520640Y-96658620D01*
X192406355Y-96601477D01*
X192349212Y-96487191D01*
X192349212Y-96315763D01*
X192406355Y-96201477D01*
X193092069Y-95172906D02*
X193149212Y-95287191D01*
X193149212Y-95515763D01*
X193092069Y-95630048D01*
X192977783Y-95687191D01*
X192520640Y-95687191D01*
X192406355Y-95630048D01*
X192349212Y-95515763D01*
X192349212Y-95287191D01*
X192406355Y-95172906D01*
X192520640Y-95115763D01*
X192634926Y-95115763D01*
X192749212Y-95687191D01*
X192349212Y-93801477D02*
X193149212Y-93572906D01*
X192577783Y-93344334D01*
X193149212Y-93115763D01*
X192349212Y-92887191D01*
X193149212Y-92430048D02*
X192349212Y-92430048D01*
X191949212Y-92430048D02*
X192006355Y-92487191D01*
X192063497Y-92430048D01*
X192006355Y-92372906D01*
X191949212Y-92430048D01*
X192063497Y-92430048D01*
X192349212Y-92030048D02*
X192349212Y-91572906D01*
X191949212Y-91858620D02*
X192977783Y-91858620D01*
X193092069Y-91801477D01*
X193149212Y-91687191D01*
X193149212Y-91572906D01*
X193149212Y-91172906D02*
X191949212Y-91172906D01*
X193149212Y-90658620D02*
X192520640Y-90658620D01*
X192406355Y-90715763D01*
X192349212Y-90830048D01*
X192349212Y-91001477D01*
X192406355Y-91115763D01*
X192463497Y-91172906D01*
X193149212Y-89172906D02*
X191949212Y-89172906D01*
X191949212Y-88715763D01*
X192006355Y-88601477D01*
X192063497Y-88544334D01*
X192177783Y-88487191D01*
X192349212Y-88487191D01*
X192463497Y-88544334D01*
X192520640Y-88601477D01*
X192577783Y-88715763D01*
X192577783Y-89172906D01*
X193149212Y-87801477D02*
X193092069Y-87915763D01*
X193034926Y-87972906D01*
X192920640Y-88030048D01*
X192577783Y-88030048D01*
X192463497Y-87972906D01*
X192406355Y-87915763D01*
X192349212Y-87801477D01*
X192349212Y-87630048D01*
X192406355Y-87515763D01*
X192463497Y-87458620D01*
X192577783Y-87401477D01*
X192920640Y-87401477D01*
X193034926Y-87458620D01*
X193092069Y-87515763D01*
X193149212Y-87630048D01*
X193149212Y-87801477D01*
X193149212Y-86715763D02*
X193092069Y-86830048D01*
X192977783Y-86887191D01*
X191949212Y-86887191D01*
X192349212Y-86372906D02*
X193149212Y-86087191D01*
X192349212Y-85801477D02*
X193149212Y-86087191D01*
X193434926Y-86201477D01*
X193492069Y-86258620D01*
X193549212Y-86372906D01*
X192349212Y-84830048D02*
X193320640Y-84830048D01*
X193434926Y-84887191D01*
X193492069Y-84944334D01*
X193549212Y-85058620D01*
X193549212Y-85230048D01*
X193492069Y-85344334D01*
X193092069Y-84830048D02*
X193149212Y-84944334D01*
X193149212Y-85172906D01*
X193092069Y-85287191D01*
X193034926Y-85344334D01*
X192920640Y-85401477D01*
X192577783Y-85401477D01*
X192463497Y-85344334D01*
X192406355Y-85287191D01*
X192349212Y-85172906D01*
X192349212Y-84944334D01*
X192406355Y-84830048D01*
X193149212Y-84087191D02*
X193092069Y-84201477D01*
X193034926Y-84258620D01*
X192920640Y-84315763D01*
X192577783Y-84315763D01*
X192463497Y-84258620D01*
X192406355Y-84201477D01*
X192349212Y-84087191D01*
X192349212Y-83915763D01*
X192406355Y-83801477D01*
X192463497Y-83744334D01*
X192577783Y-83687191D01*
X192920640Y-83687191D01*
X193034926Y-83744334D01*
X193092069Y-83801477D01*
X193149212Y-83915763D01*
X193149212Y-84087191D01*
X192349212Y-83172906D02*
X193149212Y-83172906D01*
X192463497Y-83172906D02*
X192406355Y-83115763D01*
X192349212Y-83001477D01*
X192349212Y-82830048D01*
X192406355Y-82715763D01*
X192520640Y-82658620D01*
X193149212Y-82658620D01*
X192349212Y-81572906D02*
X193149212Y-81572906D01*
X192349212Y-82087191D02*
X192977783Y-82087191D01*
X193092069Y-82030048D01*
X193149212Y-81915763D01*
X193149212Y-81744334D01*
X193092069Y-81630048D01*
X193034926Y-81572906D01*
X193092069Y-81058620D02*
X193149212Y-80944334D01*
X193149212Y-80715763D01*
X193092069Y-80601477D01*
X192977783Y-80544334D01*
X192920640Y-80544334D01*
X192806355Y-80601477D01*
X192749212Y-80715763D01*
X192749212Y-80887191D01*
X192692069Y-81001477D01*
X192577783Y-81058620D01*
X192520640Y-81058620D01*
X192406355Y-81001477D01*
X192349212Y-80887191D01*
X192349212Y-80715763D01*
X192406355Y-80601477D01*
X192520640Y-78715763D02*
X192577783Y-78544334D01*
X192634926Y-78487191D01*
X192749212Y-78430048D01*
X192920640Y-78430048D01*
X193034926Y-78487191D01*
X193092069Y-78544334D01*
X193149212Y-78658620D01*
X193149212Y-79115763D01*
X191949212Y-79115763D01*
X191949212Y-78715763D01*
X192006355Y-78601477D01*
X192063497Y-78544334D01*
X192177783Y-78487191D01*
X192292069Y-78487191D01*
X192406355Y-78544334D01*
X192463497Y-78601477D01*
X192520640Y-78715763D01*
X192520640Y-79115763D01*
X193149212Y-77915763D02*
X192349212Y-77915763D01*
X192577783Y-77915763D02*
X192463497Y-77858620D01*
X192406355Y-77801477D01*
X192349212Y-77687191D01*
X192349212Y-77572906D01*
X193149212Y-76658620D02*
X192520640Y-76658620D01*
X192406355Y-76715763D01*
X192349212Y-76830048D01*
X192349212Y-77058620D01*
X192406355Y-77172906D01*
X193092069Y-76658620D02*
X193149212Y-76772906D01*
X193149212Y-77058620D01*
X193092069Y-77172906D01*
X192977783Y-77230048D01*
X192863497Y-77230048D01*
X192749212Y-77172906D01*
X192692069Y-77058620D01*
X192692069Y-76772906D01*
X192634926Y-76658620D01*
X193149212Y-76087191D02*
X192349212Y-76087191D01*
X191949212Y-76087191D02*
X192006355Y-76144334D01*
X192063497Y-76087191D01*
X192006355Y-76030048D01*
X191949212Y-76087191D01*
X192063497Y-76087191D01*
X192349212Y-75515763D02*
X193149212Y-75515763D01*
X192463497Y-75515763D02*
X192406355Y-75458620D01*
X192349212Y-75344334D01*
X192349212Y-75172906D01*
X192406355Y-75058620D01*
X192520640Y-75001477D01*
X193149212Y-75001477D01*
X72410489Y-92986637D02*
X73910489Y-92629494D01*
X72839060Y-92343779D01*
X73910489Y-92058065D01*
X72410489Y-91700922D01*
X73124775Y-90629494D02*
X73196203Y-90415208D01*
X73267632Y-90343779D01*
X73410489Y-90272351D01*
X73624775Y-90272351D01*
X73767632Y-90343779D01*
X73839060Y-90415208D01*
X73910489Y-90558065D01*
X73910489Y-91129494D01*
X72410489Y-91129494D01*
X72410489Y-90629494D01*
X72481918Y-90486637D01*
X72553346Y-90415208D01*
X72696203Y-90343779D01*
X72839060Y-90343779D01*
X72981918Y-90415208D01*
X73053346Y-90486637D01*
X73124775Y-90629494D01*
X73124775Y-91129494D01*
X72410489Y-89343779D02*
X72410489Y-89058065D01*
X72481918Y-88915208D01*
X72624775Y-88772351D01*
X72910489Y-88700922D01*
X73410489Y-88700922D01*
X73696203Y-88772351D01*
X73839060Y-88915208D01*
X73910489Y-89058065D01*
X73910489Y-89343779D01*
X73839060Y-89486637D01*
X73696203Y-89629494D01*
X73410489Y-89700922D01*
X72910489Y-89700922D01*
X72624775Y-89629494D01*
X72481918Y-89486637D01*
X72410489Y-89343779D01*
X73910489Y-86915208D02*
X72410489Y-86915208D01*
X72410489Y-86343779D01*
X72481918Y-86200922D01*
X72553346Y-86129494D01*
X72696203Y-86058065D01*
X72910489Y-86058065D01*
X73053346Y-86129494D01*
X73124775Y-86200922D01*
X73196203Y-86343779D01*
X73196203Y-86915208D01*
X73910489Y-85200922D02*
X73839060Y-85343779D01*
X73696203Y-85415208D01*
X72410489Y-85415208D01*
X72910489Y-83986637D02*
X73910489Y-83986637D01*
X72910489Y-84629494D02*
X73696203Y-84629494D01*
X73839060Y-84558065D01*
X73910489Y-84415208D01*
X73910489Y-84200922D01*
X73839060Y-84058065D01*
X73767632Y-83986637D01*
X72910489Y-82629494D02*
X74124775Y-82629494D01*
X74267632Y-82700922D01*
X74339060Y-82772351D01*
X74410489Y-82915208D01*
X74410489Y-83129494D01*
X74339060Y-83272351D01*
X73839060Y-82629494D02*
X73910489Y-82772351D01*
X73910489Y-83058065D01*
X73839060Y-83200922D01*
X73767632Y-83272351D01*
X73624775Y-83343779D01*
X73196203Y-83343779D01*
X73053346Y-83272351D01*
X72981918Y-83200922D01*
X72910489Y-83058065D01*
X72910489Y-82772351D01*
X72981918Y-82629494D01*
D11*
X164056142Y-58414821D02*
X164056142Y-57414821D01*
X165056142Y-57462441D02*
X164960904Y-57414821D01*
X164818047Y-57414821D01*
X164675190Y-57462441D01*
X164579952Y-57557679D01*
X164532333Y-57652917D01*
X164484714Y-57843393D01*
X164484714Y-57986250D01*
X164532333Y-58176726D01*
X164579952Y-58271964D01*
X164675190Y-58367202D01*
X164818047Y-58414821D01*
X164913285Y-58414821D01*
X165056142Y-58367202D01*
X165103761Y-58319583D01*
X165103761Y-57986250D01*
X164913285Y-57986250D01*
X165865666Y-57891012D02*
X166008523Y-57938631D01*
X166056142Y-57986250D01*
X166103761Y-58081488D01*
X166103761Y-58224345D01*
X166056142Y-58319583D01*
X166008523Y-58367202D01*
X165913285Y-58414821D01*
X165532333Y-58414821D01*
X165532333Y-57414821D01*
X165865666Y-57414821D01*
X165960904Y-57462441D01*
X166008523Y-57510060D01*
X166056142Y-57605298D01*
X166056142Y-57700536D01*
X166008523Y-57795774D01*
X165960904Y-57843393D01*
X165865666Y-57891012D01*
X165532333Y-57891012D01*
X166389476Y-57414821D02*
X166960904Y-57414821D01*
X166675190Y-58414821D02*
X166675190Y-57414821D01*
X167960904Y-57414821D02*
X168579952Y-57414821D01*
X168246618Y-57795774D01*
X168389476Y-57795774D01*
X168484714Y-57843393D01*
X168532333Y-57891012D01*
X168579952Y-57986250D01*
X168579952Y-58224345D01*
X168532333Y-58319583D01*
X168484714Y-58367202D01*
X168389476Y-58414821D01*
X168103761Y-58414821D01*
X168008523Y-58367202D01*
X167960904Y-58319583D01*
D10*
X192488131Y-119800658D02*
X192845274Y-121300658D01*
X193130988Y-120229229D01*
X193416703Y-121300658D01*
X193773845Y-119800658D01*
X194845274Y-120514944D02*
X195059560Y-120586372D01*
X195130988Y-120657801D01*
X195202417Y-120800658D01*
X195202417Y-121014944D01*
X195130988Y-121157801D01*
X195059560Y-121229229D01*
X194916703Y-121300658D01*
X194345274Y-121300658D01*
X194345274Y-119800658D01*
X194845274Y-119800658D01*
X194988131Y-119872087D01*
X195059560Y-119943515D01*
X195130988Y-120086372D01*
X195130988Y-120229229D01*
X195059560Y-120372087D01*
X194988131Y-120443515D01*
X194845274Y-120514944D01*
X194345274Y-120514944D01*
X196130988Y-119800658D02*
X196416703Y-119800658D01*
X196559560Y-119872087D01*
X196702417Y-120014944D01*
X196773845Y-120300658D01*
X196773845Y-120800658D01*
X196702417Y-121086372D01*
X196559560Y-121229229D01*
X196416703Y-121300658D01*
X196130988Y-121300658D01*
X195988131Y-121229229D01*
X195845274Y-121086372D01*
X195773845Y-120800658D01*
X195773845Y-120300658D01*
X195845274Y-120014944D01*
X195988131Y-119872087D01*
X196130988Y-119800658D01*
X198559560Y-121300658D02*
X198559560Y-119800658D01*
X199059560Y-120872087D01*
X199559560Y-119800658D01*
X199559560Y-121300658D01*
X200488131Y-121300658D02*
X200345274Y-121229229D01*
X200273845Y-121157801D01*
X200202417Y-121014944D01*
X200202417Y-120586372D01*
X200273845Y-120443515D01*
X200345274Y-120372087D01*
X200488131Y-120300658D01*
X200702417Y-120300658D01*
X200845274Y-120372087D01*
X200916703Y-120443515D01*
X200988131Y-120586372D01*
X200988131Y-121014944D01*
X200916703Y-121157801D01*
X200845274Y-121229229D01*
X200702417Y-121300658D01*
X200488131Y-121300658D01*
X202273845Y-121300658D02*
X202273845Y-119800658D01*
X202273845Y-121229229D02*
X202130988Y-121300658D01*
X201845274Y-121300658D01*
X201702417Y-121229229D01*
X201630988Y-121157801D01*
X201559560Y-121014944D01*
X201559560Y-120586372D01*
X201630988Y-120443515D01*
X201702417Y-120372087D01*
X201845274Y-120300658D01*
X202130988Y-120300658D01*
X202273845Y-120372087D01*
X203630988Y-120300658D02*
X203630988Y-121300658D01*
X202988131Y-120300658D02*
X202988131Y-121086372D01*
X203059560Y-121229229D01*
X203202417Y-121300658D01*
X203416703Y-121300658D01*
X203559560Y-121229229D01*
X203630988Y-121157801D01*
X204559560Y-121300658D02*
X204416703Y-121229229D01*
X204345274Y-121086372D01*
X204345274Y-119800658D01*
X205702417Y-121229229D02*
X205559560Y-121300658D01*
X205273845Y-121300658D01*
X205130988Y-121229229D01*
X205059560Y-121086372D01*
X205059560Y-120514944D01*
X205130988Y-120372087D01*
X205273845Y-120300658D01*
X205559560Y-120300658D01*
X205702417Y-120372087D01*
X205773845Y-120514944D01*
X205773845Y-120657801D01*
X205059560Y-120800658D01*
D11*
X153505373Y-75721312D02*
X153505373Y-74721312D01*
X154505373Y-74768932D02*
X154410135Y-74721312D01*
X154267278Y-74721312D01*
X154124421Y-74768932D01*
X154029183Y-74864170D01*
X153981564Y-74959408D01*
X153933945Y-75149884D01*
X153933945Y-75292741D01*
X153981564Y-75483217D01*
X154029183Y-75578455D01*
X154124421Y-75673693D01*
X154267278Y-75721312D01*
X154362516Y-75721312D01*
X154505373Y-75673693D01*
X154552992Y-75626074D01*
X154552992Y-75292741D01*
X154362516Y-75292741D01*
X155314897Y-75197503D02*
X155457754Y-75245122D01*
X155505373Y-75292741D01*
X155552992Y-75387979D01*
X155552992Y-75530836D01*
X155505373Y-75626074D01*
X155457754Y-75673693D01*
X155362516Y-75721312D01*
X154981564Y-75721312D01*
X154981564Y-74721312D01*
X155314897Y-74721312D01*
X155410135Y-74768932D01*
X155457754Y-74816551D01*
X155505373Y-74911789D01*
X155505373Y-75007027D01*
X155457754Y-75102265D01*
X155410135Y-75149884D01*
X155314897Y-75197503D01*
X154981564Y-75197503D01*
X155838707Y-74721312D02*
X156410135Y-74721312D01*
X156124421Y-75721312D02*
X156124421Y-74721312D01*
X157933945Y-74721312D02*
X157743469Y-74721312D01*
X157648230Y-74768932D01*
X157600611Y-74816551D01*
X157505373Y-74959408D01*
X157457754Y-75149884D01*
X157457754Y-75530836D01*
X157505373Y-75626074D01*
X157552992Y-75673693D01*
X157648230Y-75721312D01*
X157838707Y-75721312D01*
X157933945Y-75673693D01*
X157981564Y-75626074D01*
X158029183Y-75530836D01*
X158029183Y-75292741D01*
X157981564Y-75197503D01*
X157933945Y-75149884D01*
X157838707Y-75102265D01*
X157648230Y-75102265D01*
X157552992Y-75149884D01*
X157505373Y-75197503D01*
X157457754Y-75292741D01*
D10*
X195168411Y-56433305D02*
X195168411Y-57290448D01*
X195168411Y-56861877D02*
X193668411Y-56861877D01*
X193882697Y-57004734D01*
X194025554Y-57147591D01*
X194096982Y-57290448D01*
X193668411Y-55076162D02*
X193668411Y-55790448D01*
X194382697Y-55861877D01*
X194311268Y-55790448D01*
X194239840Y-55647591D01*
X194239840Y-55290448D01*
X194311268Y-55147591D01*
X194382697Y-55076162D01*
X194525554Y-55004734D01*
X194882697Y-55004734D01*
X195025554Y-55076162D01*
X195096982Y-55147591D01*
X195168411Y-55290448D01*
X195168411Y-55647591D01*
X195096982Y-55790448D01*
X195025554Y-55861877D01*
X194739840Y-54433305D02*
X194739840Y-53719019D01*
X195168411Y-54576162D02*
X193668411Y-54076162D01*
X195168411Y-53576162D01*
X194382697Y-51433305D02*
X194382697Y-51933305D01*
X195168411Y-51933305D02*
X193668411Y-51933305D01*
X193668411Y-51219019D01*
X194168411Y-50004734D02*
X195168411Y-50004734D01*
X194168411Y-50647591D02*
X194954125Y-50647591D01*
X195096982Y-50576162D01*
X195168411Y-50433305D01*
X195168411Y-50219019D01*
X195096982Y-50076162D01*
X195025554Y-50004734D01*
X195096982Y-49361877D02*
X195168411Y-49219019D01*
X195168411Y-48933305D01*
X195096982Y-48790448D01*
X194954125Y-48719019D01*
X194882697Y-48719019D01*
X194739840Y-48790448D01*
X194668411Y-48933305D01*
X194668411Y-49147591D01*
X194596982Y-49290448D01*
X194454125Y-49361877D01*
X194382697Y-49361877D01*
X194239840Y-49290448D01*
X194168411Y-49147591D01*
X194168411Y-48933305D01*
X194239840Y-48790448D01*
X195096982Y-47504734D02*
X195168411Y-47647591D01*
X195168411Y-47933305D01*
X195096982Y-48076162D01*
X194954125Y-48147591D01*
X194382697Y-48147591D01*
X194239840Y-48076162D01*
X194168411Y-47933305D01*
X194168411Y-47647591D01*
X194239840Y-47504734D01*
X194382697Y-47433305D01*
X194525554Y-47433305D01*
X194668411Y-48147591D01*
D11*
X170731119Y-75559821D02*
X170731119Y-74559821D01*
X171731119Y-74607441D02*
X171635881Y-74559821D01*
X171493024Y-74559821D01*
X171350167Y-74607441D01*
X171254929Y-74702679D01*
X171207310Y-74797917D01*
X171159691Y-74988393D01*
X171159691Y-75131250D01*
X171207310Y-75321726D01*
X171254929Y-75416964D01*
X171350167Y-75512202D01*
X171493024Y-75559821D01*
X171588262Y-75559821D01*
X171731119Y-75512202D01*
X171778738Y-75464583D01*
X171778738Y-75131250D01*
X171588262Y-75131250D01*
X172540643Y-75036012D02*
X172683500Y-75083631D01*
X172731119Y-75131250D01*
X172778738Y-75226488D01*
X172778738Y-75369345D01*
X172731119Y-75464583D01*
X172683500Y-75512202D01*
X172588262Y-75559821D01*
X172207310Y-75559821D01*
X172207310Y-74559821D01*
X172540643Y-74559821D01*
X172635881Y-74607441D01*
X172683500Y-74655060D01*
X172731119Y-74750298D01*
X172731119Y-74845536D01*
X172683500Y-74940774D01*
X172635881Y-74988393D01*
X172540643Y-75036012D01*
X172207310Y-75036012D01*
X173064453Y-74559821D02*
X173635881Y-74559821D01*
X173350167Y-75559821D02*
X173350167Y-74559821D01*
X174683500Y-74655060D02*
X174731119Y-74607441D01*
X174826357Y-74559821D01*
X175064453Y-74559821D01*
X175159691Y-74607441D01*
X175207310Y-74655060D01*
X175254929Y-74750298D01*
X175254929Y-74845536D01*
X175207310Y-74988393D01*
X174635881Y-75559821D01*
X175254929Y-75559821D01*
X146157516Y-58549397D02*
X146157516Y-57549397D01*
X147157516Y-57597017D02*
X147062278Y-57549397D01*
X146919421Y-57549397D01*
X146776564Y-57597017D01*
X146681326Y-57692255D01*
X146633707Y-57787493D01*
X146586088Y-57977969D01*
X146586088Y-58120826D01*
X146633707Y-58311302D01*
X146681326Y-58406540D01*
X146776564Y-58501778D01*
X146919421Y-58549397D01*
X147014659Y-58549397D01*
X147157516Y-58501778D01*
X147205135Y-58454159D01*
X147205135Y-58120826D01*
X147014659Y-58120826D01*
X147967040Y-58025588D02*
X148109897Y-58073207D01*
X148157516Y-58120826D01*
X148205135Y-58216064D01*
X148205135Y-58358921D01*
X148157516Y-58454159D01*
X148109897Y-58501778D01*
X148014659Y-58549397D01*
X147633707Y-58549397D01*
X147633707Y-57549397D01*
X147967040Y-57549397D01*
X148062278Y-57597017D01*
X148109897Y-57644636D01*
X148157516Y-57739874D01*
X148157516Y-57835112D01*
X148109897Y-57930350D01*
X148062278Y-57977969D01*
X147967040Y-58025588D01*
X147633707Y-58025588D01*
X148490850Y-57549397D02*
X149062278Y-57549397D01*
X148776564Y-58549397D02*
X148776564Y-57549397D01*
X150062278Y-57549397D02*
X150728945Y-57549397D01*
X150300373Y-58549397D01*
X155201032Y-58307160D02*
X155201032Y-57307160D01*
X156201032Y-57354780D02*
X156105794Y-57307160D01*
X155962937Y-57307160D01*
X155820080Y-57354780D01*
X155724842Y-57450018D01*
X155677223Y-57545256D01*
X155629604Y-57735732D01*
X155629604Y-57878589D01*
X155677223Y-58069065D01*
X155724842Y-58164303D01*
X155820080Y-58259541D01*
X155962937Y-58307160D01*
X156058175Y-58307160D01*
X156201032Y-58259541D01*
X156248651Y-58211922D01*
X156248651Y-57878589D01*
X156058175Y-57878589D01*
X157010556Y-57783351D02*
X157153413Y-57830970D01*
X157201032Y-57878589D01*
X157248651Y-57973827D01*
X157248651Y-58116684D01*
X157201032Y-58211922D01*
X157153413Y-58259541D01*
X157058175Y-58307160D01*
X156677223Y-58307160D01*
X156677223Y-57307160D01*
X157010556Y-57307160D01*
X157105794Y-57354780D01*
X157153413Y-57402399D01*
X157201032Y-57497637D01*
X157201032Y-57592875D01*
X157153413Y-57688113D01*
X157105794Y-57735732D01*
X157010556Y-57783351D01*
X156677223Y-57783351D01*
X157534366Y-57307160D02*
X158105794Y-57307160D01*
X157820080Y-58307160D02*
X157820080Y-57307160D01*
X159677223Y-57307160D02*
X159201032Y-57307160D01*
X159153413Y-57783351D01*
X159201032Y-57735732D01*
X159296270Y-57688113D01*
X159534366Y-57688113D01*
X159629604Y-57735732D01*
X159677223Y-57783351D01*
X159724842Y-57878589D01*
X159724842Y-58116684D01*
X159677223Y-58211922D01*
X159629604Y-58259541D01*
X159534366Y-58307160D01*
X159296270Y-58307160D01*
X159201032Y-58259541D01*
X159153413Y-58211922D01*
D10*
X62439483Y-112865181D02*
X62796626Y-114365181D01*
X63082340Y-113293752D01*
X63368055Y-114365181D01*
X63725197Y-112865181D01*
X64796626Y-113579467D02*
X65010912Y-113650895D01*
X65082340Y-113722324D01*
X65153769Y-113865181D01*
X65153769Y-114079467D01*
X65082340Y-114222324D01*
X65010912Y-114293752D01*
X64868055Y-114365181D01*
X64296626Y-114365181D01*
X64296626Y-112865181D01*
X64796626Y-112865181D01*
X64939483Y-112936610D01*
X65010912Y-113008038D01*
X65082340Y-113150895D01*
X65082340Y-113293752D01*
X65010912Y-113436610D01*
X64939483Y-113508038D01*
X64796626Y-113579467D01*
X64296626Y-113579467D01*
X66082340Y-112865181D02*
X66368055Y-112865181D01*
X66510912Y-112936610D01*
X66653769Y-113079467D01*
X66725197Y-113365181D01*
X66725197Y-113865181D01*
X66653769Y-114150895D01*
X66510912Y-114293752D01*
X66368055Y-114365181D01*
X66082340Y-114365181D01*
X65939483Y-114293752D01*
X65796626Y-114150895D01*
X65725197Y-113865181D01*
X65725197Y-113365181D01*
X65796626Y-113079467D01*
X65939483Y-112936610D01*
X66082340Y-112865181D01*
X68510912Y-114365181D02*
X68510912Y-112865181D01*
X69010912Y-113936610D01*
X69510912Y-112865181D01*
X69510912Y-114365181D01*
X70439483Y-114365181D02*
X70296626Y-114293752D01*
X70225197Y-114222324D01*
X70153769Y-114079467D01*
X70153769Y-113650895D01*
X70225197Y-113508038D01*
X70296626Y-113436610D01*
X70439483Y-113365181D01*
X70653769Y-113365181D01*
X70796626Y-113436610D01*
X70868055Y-113508038D01*
X70939483Y-113650895D01*
X70939483Y-114079467D01*
X70868055Y-114222324D01*
X70796626Y-114293752D01*
X70653769Y-114365181D01*
X70439483Y-114365181D01*
X72225197Y-114365181D02*
X72225197Y-112865181D01*
X72225197Y-114293752D02*
X72082340Y-114365181D01*
X71796626Y-114365181D01*
X71653769Y-114293752D01*
X71582340Y-114222324D01*
X71510912Y-114079467D01*
X71510912Y-113650895D01*
X71582340Y-113508038D01*
X71653769Y-113436610D01*
X71796626Y-113365181D01*
X72082340Y-113365181D01*
X72225197Y-113436610D01*
X73582340Y-113365181D02*
X73582340Y-114365181D01*
X72939483Y-113365181D02*
X72939483Y-114150895D01*
X73010912Y-114293752D01*
X73153769Y-114365181D01*
X73368055Y-114365181D01*
X73510912Y-114293752D01*
X73582340Y-114222324D01*
X74510912Y-114365181D02*
X74368055Y-114293752D01*
X74296626Y-114150895D01*
X74296626Y-112865181D01*
X75653769Y-114293752D02*
X75510912Y-114365181D01*
X75225197Y-114365181D01*
X75082340Y-114293752D01*
X75010912Y-114150895D01*
X75010912Y-113579467D01*
X75082340Y-113436610D01*
X75225197Y-113365181D01*
X75510912Y-113365181D01*
X75653769Y-113436610D01*
X75725197Y-113579467D01*
X75725197Y-113722324D01*
X75010912Y-113865181D01*
X213221244Y-113566888D02*
X214721244Y-113209745D01*
X213649815Y-112924030D01*
X214721244Y-112638316D01*
X213221244Y-112281173D01*
X213935530Y-111209745D02*
X214006958Y-110995459D01*
X214078387Y-110924030D01*
X214221244Y-110852602D01*
X214435530Y-110852602D01*
X214578387Y-110924030D01*
X214649815Y-110995459D01*
X214721244Y-111138316D01*
X214721244Y-111709745D01*
X213221244Y-111709745D01*
X213221244Y-111209745D01*
X213292673Y-111066888D01*
X213364101Y-110995459D01*
X213506958Y-110924030D01*
X213649815Y-110924030D01*
X213792673Y-110995459D01*
X213864101Y-111066888D01*
X213935530Y-111209745D01*
X213935530Y-111709745D01*
X213221244Y-109924030D02*
X213221244Y-109638316D01*
X213292673Y-109495459D01*
X213435530Y-109352602D01*
X213721244Y-109281173D01*
X214221244Y-109281173D01*
X214506958Y-109352602D01*
X214649815Y-109495459D01*
X214721244Y-109638316D01*
X214721244Y-109924030D01*
X214649815Y-110066888D01*
X214506958Y-110209745D01*
X214221244Y-110281173D01*
X213721244Y-110281173D01*
X213435530Y-110209745D01*
X213292673Y-110066888D01*
X213221244Y-109924030D01*
X214721244Y-107495459D02*
X213221244Y-107495459D01*
X213221244Y-106924030D01*
X213292673Y-106781173D01*
X213364101Y-106709745D01*
X213506958Y-106638316D01*
X213721244Y-106638316D01*
X213864101Y-106709745D01*
X213935530Y-106781173D01*
X214006958Y-106924030D01*
X214006958Y-107495459D01*
X214721244Y-105781173D02*
X214649815Y-105924030D01*
X214506958Y-105995459D01*
X213221244Y-105995459D01*
X213721244Y-104566888D02*
X214721244Y-104566888D01*
X213721244Y-105209745D02*
X214506958Y-105209745D01*
X214649815Y-105138316D01*
X214721244Y-104995459D01*
X214721244Y-104781173D01*
X214649815Y-104638316D01*
X214578387Y-104566888D01*
X213721244Y-103209745D02*
X214935530Y-103209745D01*
X215078387Y-103281173D01*
X215149815Y-103352602D01*
X215221244Y-103495459D01*
X215221244Y-103709745D01*
X215149815Y-103852602D01*
X214649815Y-103209745D02*
X214721244Y-103352602D01*
X214721244Y-103638316D01*
X214649815Y-103781173D01*
X214578387Y-103852602D01*
X214435530Y-103924030D01*
X214006958Y-103924030D01*
X213864101Y-103852602D01*
X213792673Y-103781173D01*
X213721244Y-103638316D01*
X213721244Y-103352602D01*
X213792673Y-103209745D01*
D11*
X172621789Y-58329215D02*
X172621789Y-57329215D01*
X173621789Y-57376835D02*
X173526551Y-57329215D01*
X173383694Y-57329215D01*
X173240837Y-57376835D01*
X173145599Y-57472073D01*
X173097980Y-57567311D01*
X173050361Y-57757787D01*
X173050361Y-57900644D01*
X173097980Y-58091120D01*
X173145599Y-58186358D01*
X173240837Y-58281596D01*
X173383694Y-58329215D01*
X173478932Y-58329215D01*
X173621789Y-58281596D01*
X173669408Y-58233977D01*
X173669408Y-57900644D01*
X173478932Y-57900644D01*
X174431313Y-57805406D02*
X174574170Y-57853025D01*
X174621789Y-57900644D01*
X174669408Y-57995882D01*
X174669408Y-58138739D01*
X174621789Y-58233977D01*
X174574170Y-58281596D01*
X174478932Y-58329215D01*
X174097980Y-58329215D01*
X174097980Y-57329215D01*
X174431313Y-57329215D01*
X174526551Y-57376835D01*
X174574170Y-57424454D01*
X174621789Y-57519692D01*
X174621789Y-57614930D01*
X174574170Y-57710168D01*
X174526551Y-57757787D01*
X174431313Y-57805406D01*
X174097980Y-57805406D01*
X174955123Y-57329215D02*
X175526551Y-57329215D01*
X175240837Y-58329215D02*
X175240837Y-57329215D01*
X177145599Y-58329215D02*
X176574170Y-58329215D01*
X176859885Y-58329215D02*
X176859885Y-57329215D01*
X176764646Y-57472073D01*
X176669408Y-57567311D01*
X176574170Y-57614930D01*
%TO.C,C6*%
X138641616Y-64791617D02*
X138689235Y-64839236D01*
X138736854Y-64982093D01*
X138736854Y-65077331D01*
X138689235Y-65220189D01*
X138593997Y-65315427D01*
X138498759Y-65363046D01*
X138308283Y-65410665D01*
X138165426Y-65410665D01*
X137974950Y-65363046D01*
X137879712Y-65315427D01*
X137784474Y-65220189D01*
X137736854Y-65077331D01*
X137736854Y-64982093D01*
X137784474Y-64839236D01*
X137832093Y-64791617D01*
X137736854Y-63934474D02*
X137736854Y-64124951D01*
X137784474Y-64220189D01*
X137832093Y-64267808D01*
X137974950Y-64363046D01*
X138165426Y-64410665D01*
X138546378Y-64410665D01*
X138641616Y-64363046D01*
X138689235Y-64315427D01*
X138736854Y-64220189D01*
X138736854Y-64029712D01*
X138689235Y-63934474D01*
X138641616Y-63886855D01*
X138546378Y-63839236D01*
X138308283Y-63839236D01*
X138213045Y-63886855D01*
X138165426Y-63934474D01*
X138117807Y-64029712D01*
X138117807Y-64220189D01*
X138165426Y-64315427D01*
X138213045Y-64363046D01*
X138308283Y-64410665D01*
%TO.C,U14*%
X78162563Y-123578095D02*
X78972087Y-123578095D01*
X79067325Y-123530476D01*
X79114944Y-123482857D01*
X79162563Y-123387619D01*
X79162563Y-123197142D01*
X79114944Y-123101904D01*
X79067325Y-123054285D01*
X78972087Y-123006666D01*
X78162563Y-123006666D01*
X79162563Y-122006666D02*
X79162563Y-122578095D01*
X79162563Y-122292380D02*
X78162563Y-122292380D01*
X78305421Y-122387619D01*
X78400659Y-122482857D01*
X78448278Y-122578095D01*
X78495897Y-121149523D02*
X79162563Y-121149523D01*
X78114944Y-121387619D02*
X78829230Y-121625714D01*
X78829230Y-121006666D01*
%TO.C,RN3*%
X59494484Y-69980233D02*
X59161151Y-69504043D01*
X58923056Y-69980233D02*
X58923056Y-68980233D01*
X59304008Y-68980233D01*
X59399246Y-69027853D01*
X59446865Y-69075472D01*
X59494484Y-69170710D01*
X59494484Y-69313567D01*
X59446865Y-69408805D01*
X59399246Y-69456424D01*
X59304008Y-69504043D01*
X58923056Y-69504043D01*
X59923056Y-69980233D02*
X59923056Y-68980233D01*
X60494484Y-69980233D01*
X60494484Y-68980233D01*
X60875437Y-68980233D02*
X61494484Y-68980233D01*
X61161151Y-69361186D01*
X61304008Y-69361186D01*
X61399246Y-69408805D01*
X61446865Y-69456424D01*
X61494484Y-69551662D01*
X61494484Y-69789757D01*
X61446865Y-69884995D01*
X61399246Y-69932614D01*
X61304008Y-69980233D01*
X61018294Y-69980233D01*
X60923056Y-69932614D01*
X60875437Y-69884995D01*
%TO.C,Q2*%
X165405728Y-44279033D02*
X165310490Y-44231414D01*
X165215252Y-44136175D01*
X165072395Y-43993318D01*
X164977157Y-43945699D01*
X164881919Y-43945699D01*
X164929538Y-44183794D02*
X164834300Y-44136175D01*
X164739062Y-44040937D01*
X164691443Y-43850461D01*
X164691443Y-43517128D01*
X164739062Y-43326652D01*
X164834300Y-43231414D01*
X164929538Y-43183794D01*
X165120014Y-43183794D01*
X165215252Y-43231414D01*
X165310490Y-43326652D01*
X165358109Y-43517128D01*
X165358109Y-43850461D01*
X165310490Y-44040937D01*
X165215252Y-44136175D01*
X165120014Y-44183794D01*
X164929538Y-44183794D01*
X165739062Y-43279033D02*
X165786681Y-43231414D01*
X165881919Y-43183794D01*
X166120014Y-43183794D01*
X166215252Y-43231414D01*
X166262871Y-43279033D01*
X166310490Y-43374271D01*
X166310490Y-43469509D01*
X166262871Y-43612366D01*
X165691443Y-44183794D01*
X166310490Y-44183794D01*
%TO.C,U10*%
X60783481Y-61290668D02*
X60783481Y-62100192D01*
X60831100Y-62195430D01*
X60878719Y-62243049D01*
X60973957Y-62290668D01*
X61164434Y-62290668D01*
X61259672Y-62243049D01*
X61307291Y-62195430D01*
X61354910Y-62100192D01*
X61354910Y-61290668D01*
X62354910Y-62290668D02*
X61783481Y-62290668D01*
X62069196Y-62290668D02*
X62069196Y-61290668D01*
X61973957Y-61433526D01*
X61878719Y-61528764D01*
X61783481Y-61576383D01*
X62973957Y-61290668D02*
X63069196Y-61290668D01*
X63164434Y-61338288D01*
X63212053Y-61385907D01*
X63259672Y-61481145D01*
X63307291Y-61671621D01*
X63307291Y-61909716D01*
X63259672Y-62100192D01*
X63212053Y-62195430D01*
X63164434Y-62243049D01*
X63069196Y-62290668D01*
X62973957Y-62290668D01*
X62878719Y-62243049D01*
X62831100Y-62195430D01*
X62783481Y-62100192D01*
X62735862Y-61909716D01*
X62735862Y-61671621D01*
X62783481Y-61481145D01*
X62831100Y-61385907D01*
X62878719Y-61338288D01*
X62973957Y-61290668D01*
%TO.C,C11*%
X102219194Y-60217249D02*
X102171575Y-60264868D01*
X102028718Y-60312487D01*
X101933480Y-60312487D01*
X101790623Y-60264868D01*
X101695385Y-60169630D01*
X101647766Y-60074392D01*
X101600147Y-59883916D01*
X101600147Y-59741059D01*
X101647766Y-59550583D01*
X101695385Y-59455345D01*
X101790623Y-59360107D01*
X101933480Y-59312487D01*
X102028718Y-59312487D01*
X102171575Y-59360107D01*
X102219194Y-59407726D01*
X103171575Y-60312487D02*
X102600147Y-60312487D01*
X102885861Y-60312487D02*
X102885861Y-59312487D01*
X102790623Y-59455345D01*
X102695385Y-59550583D01*
X102600147Y-59598202D01*
X104123956Y-60312487D02*
X103552528Y-60312487D01*
X103838242Y-60312487D02*
X103838242Y-59312487D01*
X103743004Y-59455345D01*
X103647766Y-59550583D01*
X103552528Y-59598202D01*
%TO.C,U15*%
X74243528Y-136323925D02*
X74243528Y-137133449D01*
X74291147Y-137228687D01*
X74338766Y-137276306D01*
X74434004Y-137323925D01*
X74624481Y-137323925D01*
X74719719Y-137276306D01*
X74767338Y-137228687D01*
X74814957Y-137133449D01*
X74814957Y-136323925D01*
X75814957Y-137323925D02*
X75243528Y-137323925D01*
X75529243Y-137323925D02*
X75529243Y-136323925D01*
X75434004Y-136466783D01*
X75338766Y-136562021D01*
X75243528Y-136609640D01*
X76719719Y-136323925D02*
X76243528Y-136323925D01*
X76195909Y-136800116D01*
X76243528Y-136752497D01*
X76338766Y-136704878D01*
X76576862Y-136704878D01*
X76672100Y-136752497D01*
X76719719Y-136800116D01*
X76767338Y-136895354D01*
X76767338Y-137133449D01*
X76719719Y-137228687D01*
X76672100Y-137276306D01*
X76576862Y-137323925D01*
X76338766Y-137323925D01*
X76243528Y-137276306D01*
X76195909Y-137228687D01*
%TO.C,RN2*%
X189072067Y-68126193D02*
X188738734Y-67650003D01*
X188500639Y-68126193D02*
X188500639Y-67126193D01*
X188881591Y-67126193D01*
X188976829Y-67173813D01*
X189024448Y-67221432D01*
X189072067Y-67316670D01*
X189072067Y-67459527D01*
X189024448Y-67554765D01*
X188976829Y-67602384D01*
X188881591Y-67650003D01*
X188500639Y-67650003D01*
X189500639Y-68126193D02*
X189500639Y-67126193D01*
X190072067Y-68126193D01*
X190072067Y-67126193D01*
X190500639Y-67221432D02*
X190548258Y-67173813D01*
X190643496Y-67126193D01*
X190881591Y-67126193D01*
X190976829Y-67173813D01*
X191024448Y-67221432D01*
X191072067Y-67316670D01*
X191072067Y-67411908D01*
X191024448Y-67554765D01*
X190453020Y-68126193D01*
X191072067Y-68126193D01*
%TO.C,R12*%
X120506065Y-52726878D02*
X120029875Y-53060211D01*
X120506065Y-53298306D02*
X119506065Y-53298306D01*
X119506065Y-52917354D01*
X119553685Y-52822116D01*
X119601304Y-52774497D01*
X119696542Y-52726878D01*
X119839399Y-52726878D01*
X119934637Y-52774497D01*
X119982256Y-52822116D01*
X120029875Y-52917354D01*
X120029875Y-53298306D01*
X120506065Y-51774497D02*
X120506065Y-52345925D01*
X120506065Y-52060211D02*
X119506065Y-52060211D01*
X119648923Y-52155449D01*
X119744161Y-52250687D01*
X119791780Y-52345925D01*
X119601304Y-51393544D02*
X119553685Y-51345925D01*
X119506065Y-51250687D01*
X119506065Y-51012592D01*
X119553685Y-50917354D01*
X119601304Y-50869735D01*
X119696542Y-50822116D01*
X119791780Y-50822116D01*
X119934637Y-50869735D01*
X120506065Y-51441163D01*
X120506065Y-50822116D01*
%TO.C,U9*%
X61809770Y-54063508D02*
X61809770Y-54873032D01*
X61857389Y-54968270D01*
X61905008Y-55015889D01*
X62000246Y-55063508D01*
X62190722Y-55063508D01*
X62285960Y-55015889D01*
X62333579Y-54968270D01*
X62381198Y-54873032D01*
X62381198Y-54063508D01*
X62905008Y-55063508D02*
X63095484Y-55063508D01*
X63190722Y-55015889D01*
X63238341Y-54968270D01*
X63333579Y-54825413D01*
X63381198Y-54634937D01*
X63381198Y-54253985D01*
X63333579Y-54158747D01*
X63285960Y-54111128D01*
X63190722Y-54063508D01*
X63000246Y-54063508D01*
X62905008Y-54111128D01*
X62857389Y-54158747D01*
X62809770Y-54253985D01*
X62809770Y-54492080D01*
X62857389Y-54587318D01*
X62905008Y-54634937D01*
X63000246Y-54682556D01*
X63190722Y-54682556D01*
X63285960Y-54634937D01*
X63333579Y-54587318D01*
X63381198Y-54492080D01*
%TO.C,C19*%
X64232568Y-142374393D02*
X64184949Y-142422012D01*
X64042092Y-142469631D01*
X63946854Y-142469631D01*
X63803997Y-142422012D01*
X63708759Y-142326774D01*
X63661140Y-142231536D01*
X63613521Y-142041060D01*
X63613521Y-141898203D01*
X63661140Y-141707727D01*
X63708759Y-141612489D01*
X63803997Y-141517251D01*
X63946854Y-141469631D01*
X64042092Y-141469631D01*
X64184949Y-141517251D01*
X64232568Y-141564870D01*
X65184949Y-142469631D02*
X64613521Y-142469631D01*
X64899235Y-142469631D02*
X64899235Y-141469631D01*
X64803997Y-141612489D01*
X64708759Y-141707727D01*
X64613521Y-141755346D01*
X65661140Y-142469631D02*
X65851616Y-142469631D01*
X65946854Y-142422012D01*
X65994473Y-142374393D01*
X66089711Y-142231536D01*
X66137330Y-142041060D01*
X66137330Y-141660108D01*
X66089711Y-141564870D01*
X66042092Y-141517251D01*
X65946854Y-141469631D01*
X65756378Y-141469631D01*
X65661140Y-141517251D01*
X65613521Y-141564870D01*
X65565902Y-141660108D01*
X65565902Y-141898203D01*
X65613521Y-141993441D01*
X65661140Y-142041060D01*
X65756378Y-142088679D01*
X65946854Y-142088679D01*
X66042092Y-142041060D01*
X66089711Y-141993441D01*
X66137330Y-141898203D01*
%TO.C,J5*%
X192247350Y-103897037D02*
X192247350Y-104611323D01*
X192199731Y-104754180D01*
X192104493Y-104849418D01*
X191961636Y-104897037D01*
X191866398Y-104897037D01*
X193199731Y-103897037D02*
X192723541Y-103897037D01*
X192675922Y-104373228D01*
X192723541Y-104325609D01*
X192818779Y-104277990D01*
X193056874Y-104277990D01*
X193152112Y-104325609D01*
X193199731Y-104373228D01*
X193247350Y-104468466D01*
X193247350Y-104706561D01*
X193199731Y-104801799D01*
X193152112Y-104849418D01*
X193056874Y-104897037D01*
X192818779Y-104897037D01*
X192723541Y-104849418D01*
X192675922Y-104801799D01*
%TO.C,U6*%
X213161865Y-55657898D02*
X213161865Y-56467422D01*
X213209484Y-56562660D01*
X213257103Y-56610279D01*
X213352341Y-56657898D01*
X213542817Y-56657898D01*
X213638055Y-56610279D01*
X213685674Y-56562660D01*
X213733293Y-56467422D01*
X213733293Y-55657898D01*
X214638055Y-55657898D02*
X214447579Y-55657898D01*
X214352341Y-55705518D01*
X214304722Y-55753137D01*
X214209484Y-55895994D01*
X214161865Y-56086470D01*
X214161865Y-56467422D01*
X214209484Y-56562660D01*
X214257103Y-56610279D01*
X214352341Y-56657898D01*
X214542817Y-56657898D01*
X214638055Y-56610279D01*
X214685674Y-56562660D01*
X214733293Y-56467422D01*
X214733293Y-56229327D01*
X214685674Y-56134089D01*
X214638055Y-56086470D01*
X214542817Y-56038851D01*
X214352341Y-56038851D01*
X214257103Y-56086470D01*
X214209484Y-56134089D01*
X214161865Y-56229327D01*
%TO.C,C8*%
X123915994Y-44872769D02*
X123868375Y-44920388D01*
X123725518Y-44968007D01*
X123630280Y-44968007D01*
X123487422Y-44920388D01*
X123392184Y-44825150D01*
X123344565Y-44729912D01*
X123296946Y-44539436D01*
X123296946Y-44396579D01*
X123344565Y-44206103D01*
X123392184Y-44110865D01*
X123487422Y-44015627D01*
X123630280Y-43968007D01*
X123725518Y-43968007D01*
X123868375Y-44015627D01*
X123915994Y-44063246D01*
X124487422Y-44396579D02*
X124392184Y-44348960D01*
X124344565Y-44301341D01*
X124296946Y-44206103D01*
X124296946Y-44158484D01*
X124344565Y-44063246D01*
X124392184Y-44015627D01*
X124487422Y-43968007D01*
X124677899Y-43968007D01*
X124773137Y-44015627D01*
X124820756Y-44063246D01*
X124868375Y-44158484D01*
X124868375Y-44206103D01*
X124820756Y-44301341D01*
X124773137Y-44348960D01*
X124677899Y-44396579D01*
X124487422Y-44396579D01*
X124392184Y-44444198D01*
X124344565Y-44491817D01*
X124296946Y-44587055D01*
X124296946Y-44777531D01*
X124344565Y-44872769D01*
X124392184Y-44920388D01*
X124487422Y-44968007D01*
X124677899Y-44968007D01*
X124773137Y-44920388D01*
X124820756Y-44872769D01*
X124868375Y-44777531D01*
X124868375Y-44587055D01*
X124820756Y-44491817D01*
X124773137Y-44444198D01*
X124677899Y-44396579D01*
%TO.C,C15*%
X178112668Y-135017142D02*
X178065049Y-135064761D01*
X177922192Y-135112380D01*
X177826954Y-135112380D01*
X177684097Y-135064761D01*
X177588859Y-134969523D01*
X177541240Y-134874285D01*
X177493621Y-134683809D01*
X177493621Y-134540952D01*
X177541240Y-134350476D01*
X177588859Y-134255238D01*
X177684097Y-134160000D01*
X177826954Y-134112380D01*
X177922192Y-134112380D01*
X178065049Y-134160000D01*
X178112668Y-134207619D01*
X179065049Y-135112380D02*
X178493621Y-135112380D01*
X178779335Y-135112380D02*
X178779335Y-134112380D01*
X178684097Y-134255238D01*
X178588859Y-134350476D01*
X178493621Y-134398095D01*
X179969811Y-134112380D02*
X179493621Y-134112380D01*
X179446002Y-134588571D01*
X179493621Y-134540952D01*
X179588859Y-134493333D01*
X179826954Y-134493333D01*
X179922192Y-134540952D01*
X179969811Y-134588571D01*
X180017430Y-134683809D01*
X180017430Y-134921904D01*
X179969811Y-135017142D01*
X179922192Y-135064761D01*
X179826954Y-135112380D01*
X179588859Y-135112380D01*
X179493621Y-135064761D01*
X179446002Y-135017142D01*
%TO.C,U7*%
X212934238Y-64118038D02*
X212934238Y-64927562D01*
X212981857Y-65022800D01*
X213029476Y-65070419D01*
X213124714Y-65118038D01*
X213315190Y-65118038D01*
X213410428Y-65070419D01*
X213458047Y-65022800D01*
X213505666Y-64927562D01*
X213505666Y-64118038D01*
X213886619Y-64118038D02*
X214553285Y-64118038D01*
X214124714Y-65118038D01*
%TO.C,C16*%
X81175309Y-139600981D02*
X81127690Y-139648600D01*
X80984833Y-139696219D01*
X80889595Y-139696219D01*
X80746738Y-139648600D01*
X80651500Y-139553362D01*
X80603881Y-139458124D01*
X80556262Y-139267648D01*
X80556262Y-139124791D01*
X80603881Y-138934315D01*
X80651500Y-138839077D01*
X80746738Y-138743839D01*
X80889595Y-138696219D01*
X80984833Y-138696219D01*
X81127690Y-138743839D01*
X81175309Y-138791458D01*
X82127690Y-139696219D02*
X81556262Y-139696219D01*
X81841976Y-139696219D02*
X81841976Y-138696219D01*
X81746738Y-138839077D01*
X81651500Y-138934315D01*
X81556262Y-138981934D01*
X82984833Y-138696219D02*
X82794357Y-138696219D01*
X82699119Y-138743839D01*
X82651500Y-138791458D01*
X82556262Y-138934315D01*
X82508643Y-139124791D01*
X82508643Y-139505743D01*
X82556262Y-139600981D01*
X82603881Y-139648600D01*
X82699119Y-139696219D01*
X82889595Y-139696219D01*
X82984833Y-139648600D01*
X83032452Y-139600981D01*
X83080071Y-139505743D01*
X83080071Y-139267648D01*
X83032452Y-139172410D01*
X82984833Y-139124791D01*
X82889595Y-139077172D01*
X82699119Y-139077172D01*
X82603881Y-139124791D01*
X82556262Y-139172410D01*
X82508643Y-139267648D01*
%TO.C,U12*%
X60916263Y-67190004D02*
X60916263Y-67999528D01*
X60963882Y-68094766D01*
X61011501Y-68142385D01*
X61106739Y-68190004D01*
X61297216Y-68190004D01*
X61392454Y-68142385D01*
X61440073Y-68094766D01*
X61487692Y-67999528D01*
X61487692Y-67190004D01*
X62487692Y-68190004D02*
X61916263Y-68190004D01*
X62201978Y-68190004D02*
X62201978Y-67190004D01*
X62106739Y-67332862D01*
X62011501Y-67428100D01*
X61916263Y-67475719D01*
X62868644Y-67285243D02*
X62916263Y-67237624D01*
X63011501Y-67190004D01*
X63249597Y-67190004D01*
X63344835Y-67237624D01*
X63392454Y-67285243D01*
X63440073Y-67380481D01*
X63440073Y-67475719D01*
X63392454Y-67618576D01*
X62821025Y-68190004D01*
X63440073Y-68190004D01*
%TO.C,R5*%
X138308642Y-46568038D02*
X137832452Y-46901372D01*
X138308642Y-47139467D02*
X137308642Y-47139467D01*
X137308642Y-46758514D01*
X137356262Y-46663276D01*
X137403881Y-46615657D01*
X137499119Y-46568038D01*
X137641976Y-46568038D01*
X137737214Y-46615657D01*
X137784833Y-46663276D01*
X137832452Y-46758514D01*
X137832452Y-47139467D01*
X137308642Y-45663276D02*
X137308642Y-46139467D01*
X137784833Y-46187086D01*
X137737214Y-46139467D01*
X137689595Y-46044229D01*
X137689595Y-45806133D01*
X137737214Y-45710895D01*
X137784833Y-45663276D01*
X137880071Y-45615657D01*
X138118166Y-45615657D01*
X138213404Y-45663276D01*
X138261023Y-45710895D01*
X138308642Y-45806133D01*
X138308642Y-46044229D01*
X138261023Y-46139467D01*
X138213404Y-46187086D01*
%TO.C,C13*%
X173429603Y-139075733D02*
X173381984Y-139123352D01*
X173239127Y-139170971D01*
X173143889Y-139170971D01*
X173001032Y-139123352D01*
X172905794Y-139028114D01*
X172858175Y-138932876D01*
X172810556Y-138742400D01*
X172810556Y-138599543D01*
X172858175Y-138409067D01*
X172905794Y-138313829D01*
X173001032Y-138218591D01*
X173143889Y-138170971D01*
X173239127Y-138170971D01*
X173381984Y-138218591D01*
X173429603Y-138266210D01*
X174381984Y-139170971D02*
X173810556Y-139170971D01*
X174096270Y-139170971D02*
X174096270Y-138170971D01*
X174001032Y-138313829D01*
X173905794Y-138409067D01*
X173810556Y-138456686D01*
X174715318Y-138170971D02*
X175334365Y-138170971D01*
X175001032Y-138551924D01*
X175143889Y-138551924D01*
X175239127Y-138599543D01*
X175286746Y-138647162D01*
X175334365Y-138742400D01*
X175334365Y-138980495D01*
X175286746Y-139075733D01*
X175239127Y-139123352D01*
X175143889Y-139170971D01*
X174858175Y-139170971D01*
X174762937Y-139123352D01*
X174715318Y-139075733D01*
%TO.C,Q7*%
X155589698Y-61512097D02*
X155494460Y-61464478D01*
X155399222Y-61369239D01*
X155256365Y-61226382D01*
X155161127Y-61178763D01*
X155065889Y-61178763D01*
X155113508Y-61416858D02*
X155018270Y-61369239D01*
X154923032Y-61274001D01*
X154875413Y-61083525D01*
X154875413Y-60750192D01*
X154923032Y-60559716D01*
X155018270Y-60464478D01*
X155113508Y-60416858D01*
X155303984Y-60416858D01*
X155399222Y-60464478D01*
X155494460Y-60559716D01*
X155542079Y-60750192D01*
X155542079Y-61083525D01*
X155494460Y-61274001D01*
X155399222Y-61369239D01*
X155303984Y-61416858D01*
X155113508Y-61416858D01*
X155875413Y-60416858D02*
X156542079Y-60416858D01*
X156113508Y-61416858D01*
%TO.C,C17*%
X80591873Y-141808971D02*
X80544254Y-141856590D01*
X80401397Y-141904209D01*
X80306159Y-141904209D01*
X80163302Y-141856590D01*
X80068064Y-141761352D01*
X80020445Y-141666114D01*
X79972826Y-141475638D01*
X79972826Y-141332781D01*
X80020445Y-141142305D01*
X80068064Y-141047067D01*
X80163302Y-140951829D01*
X80306159Y-140904209D01*
X80401397Y-140904209D01*
X80544254Y-140951829D01*
X80591873Y-140999448D01*
X81544254Y-141904209D02*
X80972826Y-141904209D01*
X81258540Y-141904209D02*
X81258540Y-140904209D01*
X81163302Y-141047067D01*
X81068064Y-141142305D01*
X80972826Y-141189924D01*
X81877588Y-140904209D02*
X82544254Y-140904209D01*
X82115683Y-141904209D01*
%TO.C,C12*%
X171184938Y-141708187D02*
X171137319Y-141755806D01*
X170994462Y-141803425D01*
X170899224Y-141803425D01*
X170756367Y-141755806D01*
X170661129Y-141660568D01*
X170613510Y-141565330D01*
X170565891Y-141374854D01*
X170565891Y-141231997D01*
X170613510Y-141041521D01*
X170661129Y-140946283D01*
X170756367Y-140851045D01*
X170899224Y-140803425D01*
X170994462Y-140803425D01*
X171137319Y-140851045D01*
X171184938Y-140898664D01*
X172137319Y-141803425D02*
X171565891Y-141803425D01*
X171851605Y-141803425D02*
X171851605Y-140803425D01*
X171756367Y-140946283D01*
X171661129Y-141041521D01*
X171565891Y-141089140D01*
X172518272Y-140898664D02*
X172565891Y-140851045D01*
X172661129Y-140803425D01*
X172899224Y-140803425D01*
X172994462Y-140851045D01*
X173042081Y-140898664D01*
X173089700Y-140993902D01*
X173089700Y-141089140D01*
X173042081Y-141231997D01*
X172470653Y-141803425D01*
X173089700Y-141803425D01*
%TO.C,U3*%
X130673929Y-56842900D02*
X131483453Y-56842900D01*
X131578691Y-56795281D01*
X131626310Y-56747662D01*
X131673929Y-56652424D01*
X131673929Y-56461948D01*
X131626310Y-56366710D01*
X131578691Y-56319091D01*
X131483453Y-56271472D01*
X130673929Y-56271472D01*
X130673929Y-55890519D02*
X130673929Y-55271472D01*
X131054882Y-55604805D01*
X131054882Y-55461948D01*
X131102501Y-55366710D01*
X131150120Y-55319091D01*
X131245358Y-55271472D01*
X131483453Y-55271472D01*
X131578691Y-55319091D01*
X131626310Y-55366710D01*
X131673929Y-55461948D01*
X131673929Y-55747662D01*
X131626310Y-55842900D01*
X131578691Y-55890519D01*
%TO.C,R4*%
X131467966Y-46365558D02*
X130991776Y-46698892D01*
X131467966Y-46936987D02*
X130467966Y-46936987D01*
X130467966Y-46556034D01*
X130515586Y-46460796D01*
X130563205Y-46413177D01*
X130658443Y-46365558D01*
X130801300Y-46365558D01*
X130896538Y-46413177D01*
X130944157Y-46460796D01*
X130991776Y-46556034D01*
X130991776Y-46936987D01*
X130801300Y-45508415D02*
X131467966Y-45508415D01*
X130420347Y-45746511D02*
X131134633Y-45984606D01*
X131134633Y-45365558D01*
%TO.C,U4*%
X213048052Y-80222656D02*
X213048052Y-81032180D01*
X213095671Y-81127418D01*
X213143290Y-81175037D01*
X213238528Y-81222656D01*
X213429004Y-81222656D01*
X213524242Y-81175037D01*
X213571861Y-81127418D01*
X213619480Y-81032180D01*
X213619480Y-80222656D01*
X214524242Y-80555990D02*
X214524242Y-81222656D01*
X214286147Y-80175037D02*
X214048052Y-80889323D01*
X214667099Y-80889323D01*
%TO.C,RN4*%
X73867837Y-76591385D02*
X73534504Y-76115195D01*
X73296409Y-76591385D02*
X73296409Y-75591385D01*
X73677361Y-75591385D01*
X73772599Y-75639005D01*
X73820218Y-75686624D01*
X73867837Y-75781862D01*
X73867837Y-75924719D01*
X73820218Y-76019957D01*
X73772599Y-76067576D01*
X73677361Y-76115195D01*
X73296409Y-76115195D01*
X74296409Y-76591385D02*
X74296409Y-75591385D01*
X74867837Y-76591385D01*
X74867837Y-75591385D01*
X75772599Y-75924719D02*
X75772599Y-76591385D01*
X75534504Y-75543766D02*
X75296409Y-76258052D01*
X75915456Y-76258052D01*
%TO.C,U8*%
X114976001Y-50260984D02*
X114976001Y-51070508D01*
X115023620Y-51165746D01*
X115071239Y-51213365D01*
X115166477Y-51260984D01*
X115356953Y-51260984D01*
X115452191Y-51213365D01*
X115499810Y-51165746D01*
X115547429Y-51070508D01*
X115547429Y-50260984D01*
X116166477Y-50689556D02*
X116071239Y-50641937D01*
X116023620Y-50594318D01*
X115976001Y-50499080D01*
X115976001Y-50451461D01*
X116023620Y-50356223D01*
X116071239Y-50308604D01*
X116166477Y-50260984D01*
X116356953Y-50260984D01*
X116452191Y-50308604D01*
X116499810Y-50356223D01*
X116547429Y-50451461D01*
X116547429Y-50499080D01*
X116499810Y-50594318D01*
X116452191Y-50641937D01*
X116356953Y-50689556D01*
X116166477Y-50689556D01*
X116071239Y-50737175D01*
X116023620Y-50784794D01*
X115976001Y-50880032D01*
X115976001Y-51070508D01*
X116023620Y-51165746D01*
X116071239Y-51213365D01*
X116166477Y-51260984D01*
X116356953Y-51260984D01*
X116452191Y-51213365D01*
X116499810Y-51165746D01*
X116547429Y-51070508D01*
X116547429Y-50880032D01*
X116499810Y-50784794D01*
X116452191Y-50737175D01*
X116356953Y-50689556D01*
%TO.C,R6*%
X136832294Y-51489161D02*
X136498961Y-51012971D01*
X136260865Y-51489161D02*
X136260865Y-50489161D01*
X136641818Y-50489161D01*
X136737056Y-50536781D01*
X136784675Y-50584400D01*
X136832294Y-50679638D01*
X136832294Y-50822495D01*
X136784675Y-50917733D01*
X136737056Y-50965352D01*
X136641818Y-51012971D01*
X136260865Y-51012971D01*
X137689437Y-50489161D02*
X137498961Y-50489161D01*
X137403722Y-50536781D01*
X137356103Y-50584400D01*
X137260865Y-50727257D01*
X137213246Y-50917733D01*
X137213246Y-51298685D01*
X137260865Y-51393923D01*
X137308484Y-51441542D01*
X137403722Y-51489161D01*
X137594199Y-51489161D01*
X137689437Y-51441542D01*
X137737056Y-51393923D01*
X137784675Y-51298685D01*
X137784675Y-51060590D01*
X137737056Y-50965352D01*
X137689437Y-50917733D01*
X137594199Y-50870114D01*
X137403722Y-50870114D01*
X137308484Y-50917733D01*
X137260865Y-50965352D01*
X137213246Y-51060590D01*
%TO.C,U11*%
X60996800Y-77475850D02*
X60996800Y-78285374D01*
X61044419Y-78380612D01*
X61092038Y-78428231D01*
X61187276Y-78475850D01*
X61377753Y-78475850D01*
X61472991Y-78428231D01*
X61520610Y-78380612D01*
X61568229Y-78285374D01*
X61568229Y-77475850D01*
X62568229Y-78475850D02*
X61996800Y-78475850D01*
X62282515Y-78475850D02*
X62282515Y-77475850D01*
X62187276Y-77618708D01*
X62092038Y-77713946D01*
X61996800Y-77761565D01*
X63520610Y-78475850D02*
X62949181Y-78475850D01*
X63234896Y-78475850D02*
X63234896Y-77475850D01*
X63139657Y-77618708D01*
X63044419Y-77713946D01*
X62949181Y-77761565D01*
%TO.C,R15*%
X173646798Y-141308987D02*
X173170608Y-141642320D01*
X173646798Y-141880415D02*
X172646798Y-141880415D01*
X172646798Y-141499463D01*
X172694418Y-141404225D01*
X172742037Y-141356606D01*
X172837275Y-141308987D01*
X172980132Y-141308987D01*
X173075370Y-141356606D01*
X173122989Y-141404225D01*
X173170608Y-141499463D01*
X173170608Y-141880415D01*
X173646798Y-140356606D02*
X173646798Y-140928034D01*
X173646798Y-140642320D02*
X172646798Y-140642320D01*
X172789656Y-140737558D01*
X172884894Y-140832796D01*
X172932513Y-140928034D01*
X172646798Y-139451844D02*
X172646798Y-139928034D01*
X173122989Y-139975653D01*
X173075370Y-139928034D01*
X173027751Y-139832796D01*
X173027751Y-139594701D01*
X173075370Y-139499463D01*
X173122989Y-139451844D01*
X173218227Y-139404225D01*
X173456322Y-139404225D01*
X173551560Y-139451844D01*
X173599179Y-139499463D01*
X173646798Y-139594701D01*
X173646798Y-139832796D01*
X173599179Y-139928034D01*
X173551560Y-139975653D01*
%TO.C,J1*%
X66585041Y-92477446D02*
X66585041Y-93191732D01*
X66537422Y-93334589D01*
X66442184Y-93429827D01*
X66299327Y-93477446D01*
X66204089Y-93477446D01*
X67585041Y-93477446D02*
X67013613Y-93477446D01*
X67299327Y-93477446D02*
X67299327Y-92477446D01*
X67204089Y-92620304D01*
X67108851Y-92715542D01*
X67013613Y-92763161D01*
%TO.C,Q8*%
X146389696Y-61457194D02*
X146294458Y-61409575D01*
X146199220Y-61314336D01*
X146056363Y-61171479D01*
X145961125Y-61123860D01*
X145865887Y-61123860D01*
X145913506Y-61361955D02*
X145818268Y-61314336D01*
X145723030Y-61219098D01*
X145675411Y-61028622D01*
X145675411Y-60695289D01*
X145723030Y-60504813D01*
X145818268Y-60409575D01*
X145913506Y-60361955D01*
X146103982Y-60361955D01*
X146199220Y-60409575D01*
X146294458Y-60504813D01*
X146342077Y-60695289D01*
X146342077Y-61028622D01*
X146294458Y-61219098D01*
X146199220Y-61314336D01*
X146103982Y-61361955D01*
X145913506Y-61361955D01*
X146913506Y-60790527D02*
X146818268Y-60742908D01*
X146770649Y-60695289D01*
X146723030Y-60600051D01*
X146723030Y-60552432D01*
X146770649Y-60457194D01*
X146818268Y-60409575D01*
X146913506Y-60361955D01*
X147103982Y-60361955D01*
X147199220Y-60409575D01*
X147246839Y-60457194D01*
X147294458Y-60552432D01*
X147294458Y-60600051D01*
X147246839Y-60695289D01*
X147199220Y-60742908D01*
X147103982Y-60790527D01*
X146913506Y-60790527D01*
X146818268Y-60838146D01*
X146770649Y-60885765D01*
X146723030Y-60981003D01*
X146723030Y-61171479D01*
X146770649Y-61266717D01*
X146818268Y-61314336D01*
X146913506Y-61361955D01*
X147103982Y-61361955D01*
X147199220Y-61314336D01*
X147246839Y-61266717D01*
X147294458Y-61171479D01*
X147294458Y-60981003D01*
X147246839Y-60885765D01*
X147199220Y-60838146D01*
X147103982Y-60790527D01*
%TO.C,F1*%
X192256764Y-46418918D02*
X191923431Y-46418918D01*
X191923431Y-46942727D02*
X191923431Y-45942727D01*
X192399621Y-45942727D01*
X193304383Y-46942727D02*
X192732955Y-46942727D01*
X193018669Y-46942727D02*
X193018669Y-45942727D01*
X192923431Y-46085585D01*
X192828193Y-46180823D01*
X192732955Y-46228442D01*
%TO.C,R1*%
X100142893Y-52349006D02*
X99666703Y-52682340D01*
X100142893Y-52920435D02*
X99142893Y-52920435D01*
X99142893Y-52539482D01*
X99190513Y-52444244D01*
X99238132Y-52396625D01*
X99333370Y-52349006D01*
X99476227Y-52349006D01*
X99571465Y-52396625D01*
X99619084Y-52444244D01*
X99666703Y-52539482D01*
X99666703Y-52920435D01*
X100142893Y-51396625D02*
X100142893Y-51968054D01*
X100142893Y-51682340D02*
X99142893Y-51682340D01*
X99285751Y-51777578D01*
X99380989Y-51872816D01*
X99428608Y-51968054D01*
%TO.C,U5*%
X212858362Y-71971173D02*
X212858362Y-72780697D01*
X212905981Y-72875935D01*
X212953600Y-72923554D01*
X213048838Y-72971173D01*
X213239314Y-72971173D01*
X213334552Y-72923554D01*
X213382171Y-72875935D01*
X213429790Y-72780697D01*
X213429790Y-71971173D01*
X214382171Y-71971173D02*
X213905981Y-71971173D01*
X213858362Y-72447364D01*
X213905981Y-72399745D01*
X214001219Y-72352126D01*
X214239314Y-72352126D01*
X214334552Y-72399745D01*
X214382171Y-72447364D01*
X214429790Y-72542602D01*
X214429790Y-72780697D01*
X214382171Y-72875935D01*
X214334552Y-72923554D01*
X214239314Y-72971173D01*
X214001219Y-72971173D01*
X213905981Y-72923554D01*
X213858362Y-72875935D01*
%TO.C,R14*%
X136118725Y-135366977D02*
X135642535Y-135700310D01*
X136118725Y-135938405D02*
X135118725Y-135938405D01*
X135118725Y-135557453D01*
X135166345Y-135462215D01*
X135213964Y-135414596D01*
X135309202Y-135366977D01*
X135452059Y-135366977D01*
X135547297Y-135414596D01*
X135594916Y-135462215D01*
X135642535Y-135557453D01*
X135642535Y-135938405D01*
X136118725Y-134414596D02*
X136118725Y-134986024D01*
X136118725Y-134700310D02*
X135118725Y-134700310D01*
X135261583Y-134795548D01*
X135356821Y-134890786D01*
X135404440Y-134986024D01*
X135452059Y-133557453D02*
X136118725Y-133557453D01*
X135071106Y-133795548D02*
X135785392Y-134033643D01*
X135785392Y-133414596D01*
%TO.C,R16*%
X80974892Y-139182425D02*
X80641559Y-138706235D01*
X80403464Y-139182425D02*
X80403464Y-138182425D01*
X80784416Y-138182425D01*
X80879654Y-138230045D01*
X80927273Y-138277664D01*
X80974892Y-138372902D01*
X80974892Y-138515759D01*
X80927273Y-138610997D01*
X80879654Y-138658616D01*
X80784416Y-138706235D01*
X80403464Y-138706235D01*
X81927273Y-139182425D02*
X81355845Y-139182425D01*
X81641559Y-139182425D02*
X81641559Y-138182425D01*
X81546321Y-138325283D01*
X81451083Y-138420521D01*
X81355845Y-138468140D01*
X82784416Y-138182425D02*
X82593940Y-138182425D01*
X82498702Y-138230045D01*
X82451083Y-138277664D01*
X82355845Y-138420521D01*
X82308226Y-138610997D01*
X82308226Y-138991949D01*
X82355845Y-139087187D01*
X82403464Y-139134806D01*
X82498702Y-139182425D01*
X82689178Y-139182425D01*
X82784416Y-139134806D01*
X82832035Y-139087187D01*
X82879654Y-138991949D01*
X82879654Y-138753854D01*
X82832035Y-138658616D01*
X82784416Y-138610997D01*
X82689178Y-138563378D01*
X82498702Y-138563378D01*
X82403464Y-138610997D01*
X82355845Y-138658616D01*
X82308226Y-138753854D01*
%TO.C,C5*%
X138796198Y-61027762D02*
X138843817Y-61075381D01*
X138891436Y-61218238D01*
X138891436Y-61313476D01*
X138843817Y-61456334D01*
X138748579Y-61551572D01*
X138653341Y-61599191D01*
X138462865Y-61646810D01*
X138320008Y-61646810D01*
X138129532Y-61599191D01*
X138034294Y-61551572D01*
X137939056Y-61456334D01*
X137891436Y-61313476D01*
X137891436Y-61218238D01*
X137939056Y-61075381D01*
X137986675Y-61027762D01*
X137891436Y-60123000D02*
X137891436Y-60599191D01*
X138367627Y-60646810D01*
X138320008Y-60599191D01*
X138272389Y-60503953D01*
X138272389Y-60265857D01*
X138320008Y-60170619D01*
X138367627Y-60123000D01*
X138462865Y-60075381D01*
X138700960Y-60075381D01*
X138796198Y-60123000D01*
X138843817Y-60170619D01*
X138891436Y-60265857D01*
X138891436Y-60503953D01*
X138843817Y-60599191D01*
X138796198Y-60646810D01*
%TO.C,D1*%
X170789075Y-142917260D02*
X170789075Y-141917260D01*
X171027171Y-141917260D01*
X171170028Y-141964880D01*
X171265266Y-142060118D01*
X171312885Y-142155356D01*
X171360504Y-142345832D01*
X171360504Y-142488689D01*
X171312885Y-142679165D01*
X171265266Y-142774403D01*
X171170028Y-142869641D01*
X171027171Y-142917260D01*
X170789075Y-142917260D01*
X172312885Y-142917260D02*
X171741456Y-142917260D01*
X172027171Y-142917260D02*
X172027171Y-141917260D01*
X171931932Y-142060118D01*
X171836694Y-142155356D01*
X171741456Y-142202975D01*
%TO.C,R7*%
X135579537Y-57480022D02*
X135103347Y-57813356D01*
X135579537Y-58051451D02*
X134579537Y-58051451D01*
X134579537Y-57670498D01*
X134627157Y-57575260D01*
X134674776Y-57527641D01*
X134770014Y-57480022D01*
X134912871Y-57480022D01*
X135008109Y-57527641D01*
X135055728Y-57575260D01*
X135103347Y-57670498D01*
X135103347Y-58051451D01*
X134579537Y-57146689D02*
X134579537Y-56480022D01*
X135579537Y-56908594D01*
%TO.C,C3*%
X93660490Y-44250559D02*
X93708109Y-44298178D01*
X93755728Y-44441035D01*
X93755728Y-44536273D01*
X93708109Y-44679131D01*
X93612871Y-44774369D01*
X93517633Y-44821988D01*
X93327157Y-44869607D01*
X93184300Y-44869607D01*
X92993824Y-44821988D01*
X92898586Y-44774369D01*
X92803348Y-44679131D01*
X92755728Y-44536273D01*
X92755728Y-44441035D01*
X92803348Y-44298178D01*
X92850967Y-44250559D01*
X92755728Y-43917226D02*
X92755728Y-43298178D01*
X93136681Y-43631512D01*
X93136681Y-43488654D01*
X93184300Y-43393416D01*
X93231919Y-43345797D01*
X93327157Y-43298178D01*
X93565252Y-43298178D01*
X93660490Y-43345797D01*
X93708109Y-43393416D01*
X93755728Y-43488654D01*
X93755728Y-43774369D01*
X93708109Y-43869607D01*
X93660490Y-43917226D01*
%TO.C,D2*%
X85268776Y-140506382D02*
X85268776Y-139506382D01*
X85506872Y-139506382D01*
X85649729Y-139554002D01*
X85744967Y-139649240D01*
X85792586Y-139744478D01*
X85840205Y-139934954D01*
X85840205Y-140077811D01*
X85792586Y-140268287D01*
X85744967Y-140363525D01*
X85649729Y-140458763D01*
X85506872Y-140506382D01*
X85268776Y-140506382D01*
X86221157Y-139601621D02*
X86268776Y-139554002D01*
X86364014Y-139506382D01*
X86602110Y-139506382D01*
X86697348Y-139554002D01*
X86744967Y-139601621D01*
X86792586Y-139696859D01*
X86792586Y-139792097D01*
X86744967Y-139934954D01*
X86173538Y-140506382D01*
X86792586Y-140506382D01*
%TO.C,C1*%
X108995751Y-48685693D02*
X109043370Y-48733312D01*
X109090989Y-48876169D01*
X109090989Y-48971407D01*
X109043370Y-49114265D01*
X108948132Y-49209503D01*
X108852894Y-49257122D01*
X108662418Y-49304741D01*
X108519561Y-49304741D01*
X108329085Y-49257122D01*
X108233847Y-49209503D01*
X108138609Y-49114265D01*
X108090989Y-48971407D01*
X108090989Y-48876169D01*
X108138609Y-48733312D01*
X108186228Y-48685693D01*
X109090989Y-47733312D02*
X109090989Y-48304741D01*
X109090989Y-48019027D02*
X108090989Y-48019027D01*
X108233847Y-48114265D01*
X108329085Y-48209503D01*
X108376704Y-48304741D01*
%TO.C,Q5*%
X172480673Y-61497925D02*
X172385435Y-61450306D01*
X172290197Y-61355067D01*
X172147340Y-61212210D01*
X172052102Y-61164591D01*
X171956864Y-61164591D01*
X172004483Y-61402686D02*
X171909245Y-61355067D01*
X171814007Y-61259829D01*
X171766388Y-61069353D01*
X171766388Y-60736020D01*
X171814007Y-60545544D01*
X171909245Y-60450306D01*
X172004483Y-60402686D01*
X172194959Y-60402686D01*
X172290197Y-60450306D01*
X172385435Y-60545544D01*
X172433054Y-60736020D01*
X172433054Y-61069353D01*
X172385435Y-61259829D01*
X172290197Y-61355067D01*
X172194959Y-61402686D01*
X172004483Y-61402686D01*
X173337816Y-60402686D02*
X172861626Y-60402686D01*
X172814007Y-60878877D01*
X172861626Y-60831258D01*
X172956864Y-60783639D01*
X173194959Y-60783639D01*
X173290197Y-60831258D01*
X173337816Y-60878877D01*
X173385435Y-60974115D01*
X173385435Y-61212210D01*
X173337816Y-61307448D01*
X173290197Y-61355067D01*
X173194959Y-61402686D01*
X172956864Y-61402686D01*
X172861626Y-61355067D01*
X172814007Y-61307448D01*
%TO.C,C18*%
X68670344Y-139773431D02*
X68717963Y-139821050D01*
X68765582Y-139963907D01*
X68765582Y-140059145D01*
X68717963Y-140202002D01*
X68622725Y-140297240D01*
X68527487Y-140344859D01*
X68337011Y-140392478D01*
X68194154Y-140392478D01*
X68003678Y-140344859D01*
X67908440Y-140297240D01*
X67813202Y-140202002D01*
X67765582Y-140059145D01*
X67765582Y-139963907D01*
X67813202Y-139821050D01*
X67860821Y-139773431D01*
X68765582Y-138821050D02*
X68765582Y-139392478D01*
X68765582Y-139106764D02*
X67765582Y-139106764D01*
X67908440Y-139202002D01*
X68003678Y-139297240D01*
X68051297Y-139392478D01*
X68194154Y-138249621D02*
X68146535Y-138344859D01*
X68098916Y-138392478D01*
X68003678Y-138440097D01*
X67956059Y-138440097D01*
X67860821Y-138392478D01*
X67813202Y-138344859D01*
X67765582Y-138249621D01*
X67765582Y-138059145D01*
X67813202Y-137963907D01*
X67860821Y-137916288D01*
X67956059Y-137868669D01*
X68003678Y-137868669D01*
X68098916Y-137916288D01*
X68146535Y-137963907D01*
X68194154Y-138059145D01*
X68194154Y-138249621D01*
X68241773Y-138344859D01*
X68289392Y-138392478D01*
X68384630Y-138440097D01*
X68575106Y-138440097D01*
X68670344Y-138392478D01*
X68717963Y-138344859D01*
X68765582Y-138249621D01*
X68765582Y-138059145D01*
X68717963Y-137963907D01*
X68670344Y-137916288D01*
X68575106Y-137868669D01*
X68384630Y-137868669D01*
X68289392Y-137916288D01*
X68241773Y-137963907D01*
X68194154Y-138059145D01*
%TO.C,Motronic_88pin1*%
X126175238Y-20644896D02*
X126175238Y-19644896D01*
X126508571Y-20359182D01*
X126841904Y-19644896D01*
X126841904Y-20644896D01*
X127460952Y-20644896D02*
X127365714Y-20597277D01*
X127318095Y-20549658D01*
X127270476Y-20454420D01*
X127270476Y-20168706D01*
X127318095Y-20073468D01*
X127365714Y-20025849D01*
X127460952Y-19978230D01*
X127603809Y-19978230D01*
X127699047Y-20025849D01*
X127746666Y-20073468D01*
X127794285Y-20168706D01*
X127794285Y-20454420D01*
X127746666Y-20549658D01*
X127699047Y-20597277D01*
X127603809Y-20644896D01*
X127460952Y-20644896D01*
X128080000Y-19978230D02*
X128460952Y-19978230D01*
X128222857Y-19644896D02*
X128222857Y-20502039D01*
X128270476Y-20597277D01*
X128365714Y-20644896D01*
X128460952Y-20644896D01*
X128794285Y-20644896D02*
X128794285Y-19978230D01*
X128794285Y-20168706D02*
X128841904Y-20073468D01*
X128889523Y-20025849D01*
X128984761Y-19978230D01*
X129080000Y-19978230D01*
X129556190Y-20644896D02*
X129460952Y-20597277D01*
X129413333Y-20549658D01*
X129365714Y-20454420D01*
X129365714Y-20168706D01*
X129413333Y-20073468D01*
X129460952Y-20025849D01*
X129556190Y-19978230D01*
X129699047Y-19978230D01*
X129794285Y-20025849D01*
X129841904Y-20073468D01*
X129889523Y-20168706D01*
X129889523Y-20454420D01*
X129841904Y-20549658D01*
X129794285Y-20597277D01*
X129699047Y-20644896D01*
X129556190Y-20644896D01*
X130318095Y-19978230D02*
X130318095Y-20644896D01*
X130318095Y-20073468D02*
X130365714Y-20025849D01*
X130460952Y-19978230D01*
X130603809Y-19978230D01*
X130699047Y-20025849D01*
X130746666Y-20121087D01*
X130746666Y-20644896D01*
X131222857Y-20644896D02*
X131222857Y-19978230D01*
X131222857Y-19644896D02*
X131175238Y-19692516D01*
X131222857Y-19740135D01*
X131270476Y-19692516D01*
X131222857Y-19644896D01*
X131222857Y-19740135D01*
X132127619Y-20597277D02*
X132032380Y-20644896D01*
X131841904Y-20644896D01*
X131746666Y-20597277D01*
X131699047Y-20549658D01*
X131651428Y-20454420D01*
X131651428Y-20168706D01*
X131699047Y-20073468D01*
X131746666Y-20025849D01*
X131841904Y-19978230D01*
X132032380Y-19978230D01*
X132127619Y-20025849D01*
X132318095Y-20740135D02*
X133080000Y-20740135D01*
X133460952Y-20073468D02*
X133365714Y-20025849D01*
X133318095Y-19978230D01*
X133270476Y-19882992D01*
X133270476Y-19835373D01*
X133318095Y-19740135D01*
X133365714Y-19692516D01*
X133460952Y-19644896D01*
X133651428Y-19644896D01*
X133746666Y-19692516D01*
X133794285Y-19740135D01*
X133841904Y-19835373D01*
X133841904Y-19882992D01*
X133794285Y-19978230D01*
X133746666Y-20025849D01*
X133651428Y-20073468D01*
X133460952Y-20073468D01*
X133365714Y-20121087D01*
X133318095Y-20168706D01*
X133270476Y-20263944D01*
X133270476Y-20454420D01*
X133318095Y-20549658D01*
X133365714Y-20597277D01*
X133460952Y-20644896D01*
X133651428Y-20644896D01*
X133746666Y-20597277D01*
X133794285Y-20549658D01*
X133841904Y-20454420D01*
X133841904Y-20263944D01*
X133794285Y-20168706D01*
X133746666Y-20121087D01*
X133651428Y-20073468D01*
X134413333Y-20073468D02*
X134318095Y-20025849D01*
X134270476Y-19978230D01*
X134222857Y-19882992D01*
X134222857Y-19835373D01*
X134270476Y-19740135D01*
X134318095Y-19692516D01*
X134413333Y-19644896D01*
X134603809Y-19644896D01*
X134699047Y-19692516D01*
X134746666Y-19740135D01*
X134794285Y-19835373D01*
X134794285Y-19882992D01*
X134746666Y-19978230D01*
X134699047Y-20025849D01*
X134603809Y-20073468D01*
X134413333Y-20073468D01*
X134318095Y-20121087D01*
X134270476Y-20168706D01*
X134222857Y-20263944D01*
X134222857Y-20454420D01*
X134270476Y-20549658D01*
X134318095Y-20597277D01*
X134413333Y-20644896D01*
X134603809Y-20644896D01*
X134699047Y-20597277D01*
X134746666Y-20549658D01*
X134794285Y-20454420D01*
X134794285Y-20263944D01*
X134746666Y-20168706D01*
X134699047Y-20121087D01*
X134603809Y-20073468D01*
X135222857Y-19978230D02*
X135222857Y-20978230D01*
X135222857Y-20025849D02*
X135318095Y-19978230D01*
X135508571Y-19978230D01*
X135603809Y-20025849D01*
X135651428Y-20073468D01*
X135699047Y-20168706D01*
X135699047Y-20454420D01*
X135651428Y-20549658D01*
X135603809Y-20597277D01*
X135508571Y-20644896D01*
X135318095Y-20644896D01*
X135222857Y-20597277D01*
X136127619Y-20644896D02*
X136127619Y-19978230D01*
X136127619Y-19644896D02*
X136080000Y-19692516D01*
X136127619Y-19740135D01*
X136175238Y-19692516D01*
X136127619Y-19644896D01*
X136127619Y-19740135D01*
X136603809Y-19978230D02*
X136603809Y-20644896D01*
X136603809Y-20073468D02*
X136651428Y-20025849D01*
X136746666Y-19978230D01*
X136889523Y-19978230D01*
X136984761Y-20025849D01*
X137032380Y-20121087D01*
X137032380Y-20644896D01*
X138032380Y-20644896D02*
X137460952Y-20644896D01*
X137746666Y-20644896D02*
X137746666Y-19644896D01*
X137651428Y-19787754D01*
X137556190Y-19882992D01*
X137460952Y-19930611D01*
%TO.C,U13*%
X179047497Y-143425826D02*
X179047497Y-144235350D01*
X179095116Y-144330588D01*
X179142735Y-144378207D01*
X179237973Y-144425826D01*
X179428450Y-144425826D01*
X179523688Y-144378207D01*
X179571307Y-144330588D01*
X179618926Y-144235350D01*
X179618926Y-143425826D01*
X180618926Y-144425826D02*
X180047497Y-144425826D01*
X180333212Y-144425826D02*
X180333212Y-143425826D01*
X180237973Y-143568684D01*
X180142735Y-143663922D01*
X180047497Y-143711541D01*
X180952259Y-143425826D02*
X181571307Y-143425826D01*
X181237973Y-143806779D01*
X181380831Y-143806779D01*
X181476069Y-143854398D01*
X181523688Y-143902017D01*
X181571307Y-143997255D01*
X181571307Y-144235350D01*
X181523688Y-144330588D01*
X181476069Y-144378207D01*
X181380831Y-144425826D01*
X181095116Y-144425826D01*
X180999878Y-144378207D01*
X180952259Y-144330588D01*
%TO.C,Q6*%
X163638336Y-61457694D02*
X163543098Y-61410075D01*
X163447860Y-61314836D01*
X163305003Y-61171979D01*
X163209765Y-61124360D01*
X163114527Y-61124360D01*
X163162146Y-61362455D02*
X163066908Y-61314836D01*
X162971670Y-61219598D01*
X162924051Y-61029122D01*
X162924051Y-60695789D01*
X162971670Y-60505313D01*
X163066908Y-60410075D01*
X163162146Y-60362455D01*
X163352622Y-60362455D01*
X163447860Y-60410075D01*
X163543098Y-60505313D01*
X163590717Y-60695789D01*
X163590717Y-61029122D01*
X163543098Y-61219598D01*
X163447860Y-61314836D01*
X163352622Y-61362455D01*
X163162146Y-61362455D01*
X164447860Y-60362455D02*
X164257384Y-60362455D01*
X164162146Y-60410075D01*
X164114527Y-60457694D01*
X164019289Y-60600551D01*
X163971670Y-60791027D01*
X163971670Y-61171979D01*
X164019289Y-61267217D01*
X164066908Y-61314836D01*
X164162146Y-61362455D01*
X164352622Y-61362455D01*
X164447860Y-61314836D01*
X164495479Y-61267217D01*
X164543098Y-61171979D01*
X164543098Y-60933884D01*
X164495479Y-60838646D01*
X164447860Y-60791027D01*
X164352622Y-60743408D01*
X164162146Y-60743408D01*
X164066908Y-60791027D01*
X164019289Y-60838646D01*
X163971670Y-60933884D01*
%TO.C,Q4*%
X147954697Y-44538263D02*
X147859459Y-44490644D01*
X147764221Y-44395405D01*
X147621364Y-44252548D01*
X147526126Y-44204929D01*
X147430888Y-44204929D01*
X147478507Y-44443024D02*
X147383269Y-44395405D01*
X147288031Y-44300167D01*
X147240412Y-44109691D01*
X147240412Y-43776358D01*
X147288031Y-43585882D01*
X147383269Y-43490644D01*
X147478507Y-43443024D01*
X147668983Y-43443024D01*
X147764221Y-43490644D01*
X147859459Y-43585882D01*
X147907078Y-43776358D01*
X147907078Y-44109691D01*
X147859459Y-44300167D01*
X147764221Y-44395405D01*
X147668983Y-44443024D01*
X147478507Y-44443024D01*
X148764221Y-43776358D02*
X148764221Y-44443024D01*
X148526126Y-43395405D02*
X148288031Y-44109691D01*
X148907078Y-44109691D01*
%TO.C,R2*%
X131467966Y-42874656D02*
X130991776Y-43207990D01*
X131467966Y-43446085D02*
X130467966Y-43446085D01*
X130467966Y-43065132D01*
X130515586Y-42969894D01*
X130563205Y-42922275D01*
X130658443Y-42874656D01*
X130801300Y-42874656D01*
X130896538Y-42922275D01*
X130944157Y-42969894D01*
X130991776Y-43065132D01*
X130991776Y-43446085D01*
X130563205Y-42493704D02*
X130515586Y-42446085D01*
X130467966Y-42350847D01*
X130467966Y-42112751D01*
X130515586Y-42017513D01*
X130563205Y-41969894D01*
X130658443Y-41922275D01*
X130753681Y-41922275D01*
X130896538Y-41969894D01*
X131467966Y-42541323D01*
X131467966Y-41922275D01*
%TO.C,C14*%
X185414510Y-141066854D02*
X185366891Y-141114473D01*
X185224034Y-141162092D01*
X185128796Y-141162092D01*
X184985939Y-141114473D01*
X184890701Y-141019235D01*
X184843082Y-140923997D01*
X184795463Y-140733521D01*
X184795463Y-140590664D01*
X184843082Y-140400188D01*
X184890701Y-140304950D01*
X184985939Y-140209712D01*
X185128796Y-140162092D01*
X185224034Y-140162092D01*
X185366891Y-140209712D01*
X185414510Y-140257331D01*
X186366891Y-141162092D02*
X185795463Y-141162092D01*
X186081177Y-141162092D02*
X186081177Y-140162092D01*
X185985939Y-140304950D01*
X185890701Y-140400188D01*
X185795463Y-140447807D01*
X187224034Y-140495426D02*
X187224034Y-141162092D01*
X186985939Y-140114473D02*
X186747844Y-140828759D01*
X187366891Y-140828759D01*
%TO.C,R13*%
X138551490Y-135366977D02*
X138075300Y-135700310D01*
X138551490Y-135938405D02*
X137551490Y-135938405D01*
X137551490Y-135557453D01*
X137599110Y-135462215D01*
X137646729Y-135414596D01*
X137741967Y-135366977D01*
X137884824Y-135366977D01*
X137980062Y-135414596D01*
X138027681Y-135462215D01*
X138075300Y-135557453D01*
X138075300Y-135938405D01*
X138551490Y-134414596D02*
X138551490Y-134986024D01*
X138551490Y-134700310D02*
X137551490Y-134700310D01*
X137694348Y-134795548D01*
X137789586Y-134890786D01*
X137837205Y-134986024D01*
X137551490Y-134081262D02*
X137551490Y-133462215D01*
X137932443Y-133795548D01*
X137932443Y-133652691D01*
X137980062Y-133557453D01*
X138027681Y-133509834D01*
X138122919Y-133462215D01*
X138361014Y-133462215D01*
X138456252Y-133509834D01*
X138503871Y-133557453D01*
X138551490Y-133652691D01*
X138551490Y-133938405D01*
X138503871Y-134033643D01*
X138456252Y-134081262D01*
%TO.C,C9*%
X107256800Y-42335601D02*
X107304419Y-42383220D01*
X107352038Y-42526077D01*
X107352038Y-42621315D01*
X107304419Y-42764173D01*
X107209181Y-42859411D01*
X107113943Y-42907030D01*
X106923467Y-42954649D01*
X106780610Y-42954649D01*
X106590134Y-42907030D01*
X106494896Y-42859411D01*
X106399658Y-42764173D01*
X106352038Y-42621315D01*
X106352038Y-42526077D01*
X106399658Y-42383220D01*
X106447277Y-42335601D01*
X107352038Y-41859411D02*
X107352038Y-41668935D01*
X107304419Y-41573696D01*
X107256800Y-41526077D01*
X107113943Y-41430839D01*
X106923467Y-41383220D01*
X106542515Y-41383220D01*
X106447277Y-41430839D01*
X106399658Y-41478458D01*
X106352038Y-41573696D01*
X106352038Y-41764173D01*
X106399658Y-41859411D01*
X106447277Y-41907030D01*
X106542515Y-41954649D01*
X106780610Y-41954649D01*
X106875848Y-41907030D01*
X106923467Y-41859411D01*
X106971086Y-41764173D01*
X106971086Y-41573696D01*
X106923467Y-41478458D01*
X106875848Y-41430839D01*
X106780610Y-41383220D01*
%TO.C,RN1*%
X184960573Y-73655305D02*
X184627240Y-73179115D01*
X184389145Y-73655305D02*
X184389145Y-72655305D01*
X184770097Y-72655305D01*
X184865335Y-72702925D01*
X184912954Y-72750544D01*
X184960573Y-72845782D01*
X184960573Y-72988639D01*
X184912954Y-73083877D01*
X184865335Y-73131496D01*
X184770097Y-73179115D01*
X184389145Y-73179115D01*
X185389145Y-73655305D02*
X185389145Y-72655305D01*
X185960573Y-73655305D01*
X185960573Y-72655305D01*
X186960573Y-73655305D02*
X186389145Y-73655305D01*
X186674859Y-73655305D02*
X186674859Y-72655305D01*
X186579621Y-72798163D01*
X186484383Y-72893401D01*
X186389145Y-72941020D01*
%TO.C,U1*%
X208134507Y-129786309D02*
X208944031Y-129786309D01*
X209039269Y-129738690D01*
X209086888Y-129691071D01*
X209134507Y-129595833D01*
X209134507Y-129405357D01*
X209086888Y-129310119D01*
X209039269Y-129262500D01*
X208944031Y-129214881D01*
X208134507Y-129214881D01*
X209134507Y-128214881D02*
X209134507Y-128786309D01*
X209134507Y-128500595D02*
X208134507Y-128500595D01*
X208277365Y-128595833D01*
X208372603Y-128691071D01*
X208420222Y-128786309D01*
%TO.C,Q3*%
X156957151Y-44330273D02*
X156861913Y-44282654D01*
X156766675Y-44187415D01*
X156623818Y-44044558D01*
X156528580Y-43996939D01*
X156433342Y-43996939D01*
X156480961Y-44235034D02*
X156385723Y-44187415D01*
X156290485Y-44092177D01*
X156242866Y-43901701D01*
X156242866Y-43568368D01*
X156290485Y-43377892D01*
X156385723Y-43282654D01*
X156480961Y-43235034D01*
X156671437Y-43235034D01*
X156766675Y-43282654D01*
X156861913Y-43377892D01*
X156909532Y-43568368D01*
X156909532Y-43901701D01*
X156861913Y-44092177D01*
X156766675Y-44187415D01*
X156671437Y-44235034D01*
X156480961Y-44235034D01*
X157242866Y-43235034D02*
X157861913Y-43235034D01*
X157528580Y-43615987D01*
X157671437Y-43615987D01*
X157766675Y-43663606D01*
X157814294Y-43711225D01*
X157861913Y-43806463D01*
X157861913Y-44044558D01*
X157814294Y-44139796D01*
X157766675Y-44187415D01*
X157671437Y-44235034D01*
X157385723Y-44235034D01*
X157290485Y-44187415D01*
X157242866Y-44139796D01*
%TO.C,U2*%
X98115632Y-50448547D02*
X98115632Y-51258071D01*
X98163251Y-51353309D01*
X98210870Y-51400928D01*
X98306108Y-51448547D01*
X98496584Y-51448547D01*
X98591822Y-51400928D01*
X98639441Y-51353309D01*
X98687060Y-51258071D01*
X98687060Y-50448547D01*
X99115632Y-50543786D02*
X99163251Y-50496167D01*
X99258489Y-50448547D01*
X99496584Y-50448547D01*
X99591822Y-50496167D01*
X99639441Y-50543786D01*
X99687060Y-50639024D01*
X99687060Y-50734262D01*
X99639441Y-50877119D01*
X99068013Y-51448547D01*
X99687060Y-51448547D01*
%TO.C,C10*%
X133864336Y-135358990D02*
X133911955Y-135406609D01*
X133959574Y-135549466D01*
X133959574Y-135644704D01*
X133911955Y-135787561D01*
X133816717Y-135882799D01*
X133721479Y-135930418D01*
X133531003Y-135978037D01*
X133388146Y-135978037D01*
X133197670Y-135930418D01*
X133102432Y-135882799D01*
X133007194Y-135787561D01*
X132959574Y-135644704D01*
X132959574Y-135549466D01*
X133007194Y-135406609D01*
X133054813Y-135358990D01*
X133959574Y-134406609D02*
X133959574Y-134978037D01*
X133959574Y-134692323D02*
X132959574Y-134692323D01*
X133102432Y-134787561D01*
X133197670Y-134882799D01*
X133245289Y-134978037D01*
X132959574Y-133787561D02*
X132959574Y-133692323D01*
X133007194Y-133597085D01*
X133054813Y-133549466D01*
X133150051Y-133501847D01*
X133340527Y-133454228D01*
X133578622Y-133454228D01*
X133769098Y-133501847D01*
X133864336Y-133549466D01*
X133911955Y-133597085D01*
X133959574Y-133692323D01*
X133959574Y-133787561D01*
X133911955Y-133882799D01*
X133864336Y-133930418D01*
X133769098Y-133978037D01*
X133578622Y-134025656D01*
X133340527Y-134025656D01*
X133150051Y-133978037D01*
X133054813Y-133930418D01*
X133007194Y-133882799D01*
X132959574Y-133787561D01*
%TO.C,JP2*%
X131191396Y-59605944D02*
X131191396Y-60320230D01*
X131143777Y-60463087D01*
X131048539Y-60558325D01*
X130905682Y-60605944D01*
X130810444Y-60605944D01*
X131667587Y-60605944D02*
X131667587Y-59605944D01*
X132048539Y-59605944D01*
X132143777Y-59653564D01*
X132191396Y-59701183D01*
X132239015Y-59796421D01*
X132239015Y-59939278D01*
X132191396Y-60034516D01*
X132143777Y-60082135D01*
X132048539Y-60129754D01*
X131667587Y-60129754D01*
X132619968Y-59701183D02*
X132667587Y-59653564D01*
X132762825Y-59605944D01*
X133000920Y-59605944D01*
X133096158Y-59653564D01*
X133143777Y-59701183D01*
X133191396Y-59796421D01*
X133191396Y-59891659D01*
X133143777Y-60034516D01*
X132572349Y-60605944D01*
X133191396Y-60605944D01*
%TO.C,R3*%
X138364904Y-42856777D02*
X137888714Y-43190111D01*
X138364904Y-43428206D02*
X137364904Y-43428206D01*
X137364904Y-43047253D01*
X137412524Y-42952015D01*
X137460143Y-42904396D01*
X137555381Y-42856777D01*
X137698238Y-42856777D01*
X137793476Y-42904396D01*
X137841095Y-42952015D01*
X137888714Y-43047253D01*
X137888714Y-43428206D01*
X137364904Y-42523444D02*
X137364904Y-41904396D01*
X137745857Y-42237730D01*
X137745857Y-42094872D01*
X137793476Y-41999634D01*
X137841095Y-41952015D01*
X137936333Y-41904396D01*
X138174428Y-41904396D01*
X138269666Y-41952015D01*
X138317285Y-41999634D01*
X138364904Y-42094872D01*
X138364904Y-42380587D01*
X138317285Y-42475825D01*
X138269666Y-42523444D01*
%TO.C,C4*%
X134342705Y-49719046D02*
X134295086Y-49766665D01*
X134152229Y-49814284D01*
X134056991Y-49814284D01*
X133914133Y-49766665D01*
X133818895Y-49671427D01*
X133771276Y-49576189D01*
X133723657Y-49385713D01*
X133723657Y-49242856D01*
X133771276Y-49052380D01*
X133818895Y-48957142D01*
X133914133Y-48861904D01*
X134056991Y-48814284D01*
X134152229Y-48814284D01*
X134295086Y-48861904D01*
X134342705Y-48909523D01*
X135199848Y-49147618D02*
X135199848Y-49814284D01*
X134961752Y-48766665D02*
X134723657Y-49480951D01*
X135342705Y-49480951D01*
%TO.C,C2*%
X105289737Y-43633134D02*
X105337356Y-43680753D01*
X105384975Y-43823610D01*
X105384975Y-43918848D01*
X105337356Y-44061706D01*
X105242118Y-44156944D01*
X105146880Y-44204563D01*
X104956404Y-44252182D01*
X104813547Y-44252182D01*
X104623071Y-44204563D01*
X104527833Y-44156944D01*
X104432595Y-44061706D01*
X104384975Y-43918848D01*
X104384975Y-43823610D01*
X104432595Y-43680753D01*
X104480214Y-43633134D01*
X104480214Y-43252182D02*
X104432595Y-43204563D01*
X104384975Y-43109325D01*
X104384975Y-42871229D01*
X104432595Y-42775991D01*
X104480214Y-42728372D01*
X104575452Y-42680753D01*
X104670690Y-42680753D01*
X104813547Y-42728372D01*
X105384975Y-43299801D01*
X105384975Y-42680753D01*
%TO.C,J4*%
X136899204Y-100259141D02*
X136899204Y-99544855D01*
X136946823Y-99401998D01*
X137042061Y-99306760D01*
X137184918Y-99259141D01*
X137280156Y-99259141D01*
X135994442Y-99925807D02*
X135994442Y-99259141D01*
X136232537Y-100306760D02*
X136470632Y-99592474D01*
X135851585Y-99592474D01*
%TO.C,R8*%
X138870215Y-53961633D02*
X138394025Y-54294967D01*
X138870215Y-54533062D02*
X137870215Y-54533062D01*
X137870215Y-54152109D01*
X137917835Y-54056871D01*
X137965454Y-54009252D01*
X138060692Y-53961633D01*
X138203549Y-53961633D01*
X138298787Y-54009252D01*
X138346406Y-54056871D01*
X138394025Y-54152109D01*
X138394025Y-54533062D01*
X138298787Y-53390205D02*
X138251168Y-53485443D01*
X138203549Y-53533062D01*
X138108311Y-53580681D01*
X138060692Y-53580681D01*
X137965454Y-53533062D01*
X137917835Y-53485443D01*
X137870215Y-53390205D01*
X137870215Y-53199728D01*
X137917835Y-53104490D01*
X137965454Y-53056871D01*
X138060692Y-53009252D01*
X138108311Y-53009252D01*
X138203549Y-53056871D01*
X138251168Y-53104490D01*
X138298787Y-53199728D01*
X138298787Y-53390205D01*
X138346406Y-53485443D01*
X138394025Y-53533062D01*
X138489263Y-53580681D01*
X138679739Y-53580681D01*
X138774977Y-53533062D01*
X138822596Y-53485443D01*
X138870215Y-53390205D01*
X138870215Y-53199728D01*
X138822596Y-53104490D01*
X138774977Y-53056871D01*
X138679739Y-53009252D01*
X138489263Y-53009252D01*
X138394025Y-53056871D01*
X138346406Y-53104490D01*
X138298787Y-53199728D01*
%TO.C,C7*%
X123707149Y-46660688D02*
X123754768Y-46708307D01*
X123802387Y-46851164D01*
X123802387Y-46946402D01*
X123754768Y-47089260D01*
X123659530Y-47184498D01*
X123564292Y-47232117D01*
X123373816Y-47279736D01*
X123230959Y-47279736D01*
X123040483Y-47232117D01*
X122945245Y-47184498D01*
X122850007Y-47089260D01*
X122802387Y-46946402D01*
X122802387Y-46851164D01*
X122850007Y-46708307D01*
X122897626Y-46660688D01*
X122802387Y-46327355D02*
X122802387Y-45660688D01*
X123802387Y-46089260D01*
%TO.C,R11*%
X126351540Y-53124573D02*
X125875350Y-53457906D01*
X126351540Y-53696001D02*
X125351540Y-53696001D01*
X125351540Y-53315049D01*
X125399160Y-53219811D01*
X125446779Y-53172192D01*
X125542017Y-53124573D01*
X125684874Y-53124573D01*
X125780112Y-53172192D01*
X125827731Y-53219811D01*
X125875350Y-53315049D01*
X125875350Y-53696001D01*
X126351540Y-52172192D02*
X126351540Y-52743620D01*
X126351540Y-52457906D02*
X125351540Y-52457906D01*
X125494398Y-52553144D01*
X125589636Y-52648382D01*
X125637255Y-52743620D01*
X126351540Y-51219811D02*
X126351540Y-51791239D01*
X126351540Y-51505525D02*
X125351540Y-51505525D01*
X125494398Y-51600763D01*
X125589636Y-51696001D01*
X125637255Y-51791239D01*
%TO.C,Q1*%
X174490035Y-44317946D02*
X174394797Y-44270327D01*
X174299559Y-44175088D01*
X174156702Y-44032231D01*
X174061464Y-43984612D01*
X173966226Y-43984612D01*
X174013845Y-44222707D02*
X173918607Y-44175088D01*
X173823369Y-44079850D01*
X173775750Y-43889374D01*
X173775750Y-43556041D01*
X173823369Y-43365565D01*
X173918607Y-43270327D01*
X174013845Y-43222707D01*
X174204321Y-43222707D01*
X174299559Y-43270327D01*
X174394797Y-43365565D01*
X174442416Y-43556041D01*
X174442416Y-43889374D01*
X174394797Y-44079850D01*
X174299559Y-44175088D01*
X174204321Y-44222707D01*
X174013845Y-44222707D01*
X175394797Y-44222707D02*
X174823369Y-44222707D01*
X175109083Y-44222707D02*
X175109083Y-43222707D01*
X175013845Y-43365565D01*
X174918607Y-43460803D01*
X174823369Y-43508422D01*
D12*
%TO.C,C6*%
X135869474Y-64363699D02*
X135869474Y-64886203D01*
X137339474Y-64363699D02*
X137339474Y-64886203D01*
%TO.C,U14*%
X58390183Y-136945000D02*
X79980183Y-136945000D01*
X79980183Y-136945000D02*
X79980183Y-107735000D01*
X79980183Y-107735000D02*
X58390183Y-107735000D01*
X58390183Y-107735000D02*
X58390183Y-136945000D01*
%TO.C,RN3*%
X60684961Y-70647853D02*
X59684961Y-70647853D01*
X60684961Y-74007853D02*
X59684961Y-74007853D01*
%TO.C,Q2*%
X168797124Y-52570737D02*
X168797124Y-53670737D01*
X169067124Y-51070737D02*
X169067124Y-52570737D01*
X162167124Y-51070737D02*
X162167124Y-52570737D01*
X169067124Y-52570737D02*
X168797124Y-52570737D01*
X162437124Y-52570737D02*
X162437124Y-55400737D01*
X162167124Y-52570737D02*
X162437124Y-52570737D01*
%TO.C,U10*%
X66454476Y-65541561D02*
X70214476Y-65541561D01*
X64204476Y-58721561D02*
X70214476Y-58721561D01*
X70214476Y-65541561D02*
X70214476Y-64281561D01*
X70214476Y-58721561D02*
X70214476Y-59981561D01*
%TO.C,C11*%
X104103052Y-66150107D02*
X104103052Y-68999107D01*
X103743052Y-61125107D02*
X103743052Y-64070107D01*
X105903052Y-62369107D02*
X105903052Y-67851107D01*
X105703052Y-62165107D02*
X105703052Y-68055107D01*
X104343052Y-61305107D02*
X104343052Y-64070107D01*
X105423052Y-66150107D02*
X105423052Y-68299107D01*
X106223052Y-62765107D02*
X106223052Y-67455107D01*
X104823052Y-66150107D02*
X104823052Y-68694107D01*
X105183052Y-66150107D02*
X105183052Y-68475107D01*
X104143052Y-61233107D02*
X104143052Y-64070107D01*
X105463052Y-66150107D02*
X105463052Y-68266107D01*
X104303052Y-66150107D02*
X104303052Y-68931107D01*
X98852354Y-62395107D02*
X98852354Y-63195107D01*
X106423052Y-63076107D02*
X106423052Y-67144107D01*
X103823052Y-66150107D02*
X103823052Y-69077107D01*
X106303052Y-62882107D02*
X106303052Y-67338107D01*
X105343052Y-61860107D02*
X105343052Y-64070107D01*
X104423052Y-66150107D02*
X104423052Y-68884107D01*
X103182052Y-61042107D02*
X103182052Y-69178107D01*
X104503052Y-66150107D02*
X104503052Y-68850107D01*
X106943052Y-64577107D02*
X106943052Y-65643107D01*
X105303052Y-61830107D02*
X105303052Y-64070107D01*
X106143052Y-62656107D02*
X106143052Y-67564107D01*
X103983052Y-66150107D02*
X103983052Y-69035107D01*
X104943052Y-61593107D02*
X104943052Y-64070107D01*
X103903052Y-61163107D02*
X103903052Y-64070107D01*
X105583052Y-62055107D02*
X105583052Y-64070107D01*
X105023052Y-66150107D02*
X105023052Y-68579107D01*
X104743052Y-66150107D02*
X104743052Y-68737107D01*
X104783052Y-61504107D02*
X104783052Y-64070107D01*
X103583052Y-61093107D02*
X103583052Y-64070107D01*
X105543052Y-62020107D02*
X105543052Y-64070107D01*
X105863052Y-62326107D02*
X105863052Y-67894107D01*
X104223052Y-61260107D02*
X104223052Y-64070107D01*
X98452354Y-62795107D02*
X99252354Y-62795107D01*
X105143052Y-61718107D02*
X105143052Y-64070107D01*
X105103052Y-66150107D02*
X105103052Y-68528107D01*
X103022052Y-61033107D02*
X103022052Y-69187107D01*
X104983052Y-61617107D02*
X104983052Y-64070107D01*
X105223052Y-61772107D02*
X105223052Y-64070107D01*
X105183052Y-61745107D02*
X105183052Y-64070107D01*
X104263052Y-66150107D02*
X104263052Y-68945107D01*
X103623052Y-61100107D02*
X103623052Y-64070107D01*
X103062052Y-61034107D02*
X103062052Y-69186107D01*
X103703052Y-66150107D02*
X103703052Y-69104107D01*
X104743052Y-61483107D02*
X104743052Y-64070107D01*
X104143052Y-66150107D02*
X104143052Y-68987107D01*
X104303052Y-61289107D02*
X104303052Y-64070107D01*
X104903052Y-61570107D02*
X104903052Y-64070107D01*
X103583052Y-66150107D02*
X103583052Y-69127107D01*
X106863052Y-64162107D02*
X106863052Y-66058107D01*
X106743052Y-63764107D02*
X106743052Y-66456107D01*
X104023052Y-61196107D02*
X104023052Y-64070107D01*
X105663052Y-62127107D02*
X105663052Y-68093107D01*
X104543052Y-66150107D02*
X104543052Y-68832107D01*
X106463052Y-63146107D02*
X106463052Y-67074107D01*
X105263052Y-66150107D02*
X105263052Y-68419107D01*
X105463052Y-61954107D02*
X105463052Y-64070107D01*
X104223052Y-66150107D02*
X104223052Y-68960107D01*
X104063052Y-61208107D02*
X104063052Y-64070107D01*
X105543052Y-66150107D02*
X105543052Y-68200107D01*
X105423052Y-61921107D02*
X105423052Y-64070107D01*
X105343052Y-66150107D02*
X105343052Y-68360107D01*
X104343052Y-66150107D02*
X104343052Y-68915107D01*
X104943052Y-66150107D02*
X104943052Y-68627107D01*
X106903052Y-64342107D02*
X106903052Y-65878107D01*
X103102052Y-61036107D02*
X103102052Y-69184107D01*
X103302052Y-61053107D02*
X103302052Y-69167107D01*
X102982052Y-61031107D02*
X102982052Y-69189107D01*
X103222052Y-61045107D02*
X103222052Y-69175107D01*
X105783052Y-62243107D02*
X105783052Y-67977107D01*
X102862052Y-61030107D02*
X102862052Y-69190107D01*
X104663052Y-66150107D02*
X104663052Y-68776107D01*
X105583052Y-66150107D02*
X105583052Y-68165107D01*
X104863052Y-61548107D02*
X104863052Y-64070107D01*
X105223052Y-66150107D02*
X105223052Y-68448107D01*
X105383052Y-66150107D02*
X105383052Y-68330107D01*
X104263052Y-61275107D02*
X104263052Y-64070107D01*
X102942052Y-61030107D02*
X102942052Y-69190107D01*
X103462052Y-61073107D02*
X103462052Y-69147107D01*
X103863052Y-66150107D02*
X103863052Y-69067107D01*
X103502052Y-61080107D02*
X103502052Y-69140107D01*
X105383052Y-61890107D02*
X105383052Y-64070107D01*
X106103052Y-62605107D02*
X106103052Y-67615107D01*
X106023052Y-62506107D02*
X106023052Y-67714107D01*
X104623052Y-61424107D02*
X104623052Y-64070107D01*
X104183052Y-61247107D02*
X104183052Y-64070107D01*
X103623052Y-66150107D02*
X103623052Y-69120107D01*
X103262052Y-61049107D02*
X103262052Y-69171107D01*
X104463052Y-66150107D02*
X104463052Y-68867107D01*
X104383052Y-66150107D02*
X104383052Y-68900107D01*
X104583052Y-61406107D02*
X104583052Y-64070107D01*
X106063052Y-62554107D02*
X106063052Y-67666107D01*
X104103052Y-61221107D02*
X104103052Y-64070107D01*
X103422052Y-61068107D02*
X103422052Y-69152107D01*
X105983052Y-62459107D02*
X105983052Y-67761107D01*
X106663052Y-63558107D02*
X106663052Y-66662107D01*
X105943052Y-62413107D02*
X105943052Y-67807107D01*
X104463052Y-61353107D02*
X104463052Y-64070107D01*
X106383052Y-63008107D02*
X106383052Y-67212107D01*
X104903052Y-66150107D02*
X104903052Y-68650107D01*
X103743052Y-66150107D02*
X103743052Y-69095107D01*
X105303052Y-66150107D02*
X105303052Y-68390107D01*
X103142052Y-61039107D02*
X103142052Y-69181107D01*
X106823052Y-64012107D02*
X106823052Y-66208107D01*
X103663052Y-66150107D02*
X103663052Y-69112107D01*
X105263052Y-61801107D02*
X105263052Y-64070107D01*
X105063052Y-61666107D02*
X105063052Y-64070107D01*
X103943052Y-66150107D02*
X103943052Y-69046107D01*
X104063052Y-66150107D02*
X104063052Y-69012107D01*
X104703052Y-66150107D02*
X104703052Y-68757107D01*
X104623052Y-66150107D02*
X104623052Y-68796107D01*
X104543052Y-61388107D02*
X104543052Y-64070107D01*
X105623052Y-62091107D02*
X105623052Y-64070107D01*
X104503052Y-61370107D02*
X104503052Y-64070107D01*
X105823052Y-62284107D02*
X105823052Y-67936107D01*
X103663052Y-61108107D02*
X103663052Y-64070107D01*
X103943052Y-61174107D02*
X103943052Y-64070107D01*
X105503052Y-66150107D02*
X105503052Y-68234107D01*
X102902052Y-61030107D02*
X102902052Y-69190107D01*
X106183052Y-62710107D02*
X106183052Y-67510107D01*
X104023052Y-66150107D02*
X104023052Y-69024107D01*
X106263052Y-62823107D02*
X106263052Y-67397107D01*
X103783052Y-61134107D02*
X103783052Y-64070107D01*
X105743052Y-62203107D02*
X105743052Y-68017107D01*
X104423052Y-61336107D02*
X104423052Y-64070107D01*
X103863052Y-61153107D02*
X103863052Y-64070107D01*
X105143052Y-66150107D02*
X105143052Y-68502107D01*
X104863052Y-66150107D02*
X104863052Y-68672107D01*
X104663052Y-61444107D02*
X104663052Y-64070107D01*
X105023052Y-61641107D02*
X105023052Y-64070107D01*
X103823052Y-61143107D02*
X103823052Y-64070107D01*
X104983052Y-66150107D02*
X104983052Y-68603107D01*
X106583052Y-63379107D02*
X106583052Y-66841107D01*
X105103052Y-61692107D02*
X105103052Y-64070107D01*
X104583052Y-66150107D02*
X104583052Y-68814107D01*
X104383052Y-61320107D02*
X104383052Y-64070107D01*
X106343052Y-62944107D02*
X106343052Y-67276107D01*
X106703052Y-63657107D02*
X106703052Y-66563107D01*
X104703052Y-61463107D02*
X104703052Y-64070107D01*
X104783052Y-66150107D02*
X104783052Y-68716107D01*
X103983052Y-61185107D02*
X103983052Y-64070107D01*
X106503052Y-63220107D02*
X106503052Y-67000107D01*
X103382052Y-61062107D02*
X103382052Y-69158107D01*
X105063052Y-66150107D02*
X105063052Y-68554107D01*
X103783052Y-66150107D02*
X103783052Y-69086107D01*
X103542052Y-61086107D02*
X103542052Y-69134107D01*
X105503052Y-61986107D02*
X105503052Y-64070107D01*
X103903052Y-66150107D02*
X103903052Y-69057107D01*
X104823052Y-61526107D02*
X104823052Y-64070107D01*
X103703052Y-61116107D02*
X103703052Y-64070107D01*
X105623052Y-66150107D02*
X105623052Y-68129107D01*
X103342052Y-61058107D02*
X103342052Y-69162107D01*
X106783052Y-63881107D02*
X106783052Y-66339107D01*
X104183052Y-66150107D02*
X104183052Y-68973107D01*
X106543052Y-63297107D02*
X106543052Y-66923107D01*
X106623052Y-63465107D02*
X106623052Y-66755107D01*
X106982052Y-65110107D02*
G75*
G03*
X106982052Y-65110107I-4120000J0D01*
G01*
%TO.C,U15*%
X75481624Y-142831545D02*
X77431624Y-142831545D01*
X75481624Y-137711545D02*
X77431624Y-137711545D01*
X75481624Y-137711545D02*
X72031624Y-137711545D01*
X75481624Y-142831545D02*
X73531624Y-142831545D01*
%TO.C,RN2*%
X190262544Y-72153813D02*
X189262544Y-72153813D01*
X190262544Y-68793813D02*
X189262544Y-68793813D01*
%TO.C,R12*%
X120968685Y-52311085D02*
X120968685Y-51856957D01*
X122438685Y-52311085D02*
X122438685Y-51856957D01*
%TO.C,U9*%
X70251189Y-58115741D02*
X70251189Y-56855741D01*
X64241189Y-51295741D02*
X70251189Y-51295741D01*
X70251189Y-51295741D02*
X70251189Y-52555741D01*
X66491189Y-58115741D02*
X70251189Y-58115741D01*
%TO.C,C19*%
X68523717Y-142103958D02*
X68001213Y-142103958D01*
X68523717Y-143573958D02*
X68001213Y-143573958D01*
%TO.C,J5*%
X209331976Y-99836217D02*
X210331976Y-100836217D01*
X193961976Y-109966217D02*
X193961976Y-100836217D01*
X194961976Y-99836217D02*
X209331976Y-99836217D01*
X193961976Y-100836217D02*
X194961976Y-99836217D01*
X210331976Y-100836217D02*
X210331976Y-109966217D01*
X210331976Y-109966217D02*
X193961976Y-109966217D01*
%TO.C,U6*%
X210038488Y-52840546D02*
X206278488Y-52840546D01*
X206278488Y-59660546D02*
X206278488Y-58400546D01*
X206278488Y-52840546D02*
X206278488Y-54100546D01*
X212288488Y-59660546D02*
X206278488Y-59660546D01*
%TO.C,C8*%
X124343913Y-42100627D02*
X123821409Y-42100627D01*
X124343913Y-43570627D02*
X123821409Y-43570627D01*
%TO.C,C15*%
X178494274Y-137075000D02*
X179016778Y-137075000D01*
X178494274Y-135605000D02*
X179016778Y-135605000D01*
%TO.C,U7*%
X206095466Y-67896559D02*
X206095466Y-66636559D01*
X206095466Y-61076559D02*
X206095466Y-62336559D01*
X209855466Y-61076559D02*
X206095466Y-61076559D01*
X212105466Y-67896559D02*
X206095466Y-67896559D01*
%TO.C,C16*%
X82079419Y-138298839D02*
X81556915Y-138298839D01*
X82079419Y-136828839D02*
X81556915Y-136828839D01*
%TO.C,U12*%
X64204476Y-66245819D02*
X70214476Y-66245819D01*
X70214476Y-73065819D02*
X70214476Y-71805819D01*
X70214476Y-66245819D02*
X70214476Y-67505819D01*
X66454476Y-73065819D02*
X70214476Y-73065819D01*
%TO.C,R5*%
X135421488Y-46401372D02*
X135421488Y-45947244D01*
X136891488Y-46401372D02*
X136891488Y-45947244D01*
%TO.C,C13*%
X174333713Y-137773591D02*
X173811209Y-137773591D01*
X174333713Y-136303591D02*
X173811209Y-136303591D01*
%TO.C,Q7*%
X159150000Y-68310000D02*
X159150000Y-69810000D01*
X152250000Y-68310000D02*
X152250000Y-69810000D01*
X158880000Y-69810000D02*
X158880000Y-70910000D01*
X159150000Y-69810000D02*
X158880000Y-69810000D01*
X152250000Y-69810000D02*
X152520000Y-69810000D01*
X152520000Y-69810000D02*
X152520000Y-72640000D01*
%TO.C,C17*%
X80973479Y-143866829D02*
X81495983Y-143866829D01*
X80973479Y-142396829D02*
X81495983Y-142396829D01*
%TO.C,C12*%
X171566544Y-143766045D02*
X172089048Y-143766045D01*
X171566544Y-142296045D02*
X172089048Y-142296045D01*
D11*
%TO.C,U3*%
X132136353Y-54405996D02*
X132436353Y-54405996D01*
X135486353Y-54405996D02*
X135486353Y-57755996D01*
X135486353Y-57755996D02*
X135186353Y-57755996D01*
X132136353Y-54405996D02*
X132136353Y-57755996D01*
X135486353Y-54405996D02*
X135261353Y-54405996D01*
X132136353Y-57755996D02*
X132436353Y-57755996D01*
X135261353Y-54405996D02*
X135261353Y-53180996D01*
D12*
%TO.C,R4*%
X131930586Y-46425956D02*
X131930586Y-45971828D01*
X133400586Y-46425956D02*
X133400586Y-45971828D01*
%TO.C,U4*%
X209855466Y-77274051D02*
X206095466Y-77274051D01*
X206095466Y-84094051D02*
X206095466Y-82834051D01*
X212105466Y-84094051D02*
X206095466Y-84094051D01*
X206095466Y-77274051D02*
X206095466Y-78534051D01*
%TO.C,RN4*%
X74058314Y-75019005D02*
X75058314Y-75019005D01*
X74058314Y-71659005D02*
X75058314Y-71659005D01*
D11*
%TO.C,U8*%
X111837906Y-48408604D02*
X111837906Y-48758604D01*
X121537906Y-48758604D02*
X118137906Y-48758604D01*
X119637906Y-42408604D02*
X119637906Y-42058604D01*
X111837906Y-42058604D02*
X113387906Y-42058604D01*
X119637906Y-42058604D02*
X118087906Y-42058604D01*
X111837906Y-48758604D02*
X113387906Y-48758604D01*
X111837906Y-42408604D02*
X111837906Y-42058604D01*
D12*
%TO.C,R6*%
X134736436Y-48229572D02*
X134282308Y-48229572D01*
X134736436Y-49699572D02*
X134282308Y-49699572D01*
%TO.C,U11*%
X64177619Y-74222820D02*
X70187619Y-74222820D01*
X70187619Y-74222820D02*
X70187619Y-75482820D01*
X70187619Y-81042820D02*
X70187619Y-79782820D01*
X66427619Y-81042820D02*
X70187619Y-81042820D01*
%TO.C,R15*%
X175924418Y-141393194D02*
X175924418Y-139939066D01*
X174104418Y-141393194D02*
X174104418Y-139939066D01*
%TO.C,J1*%
X59733375Y-94115066D02*
X74103375Y-94115066D01*
X74103375Y-94115066D02*
X75103375Y-95115066D01*
X58733375Y-95115066D02*
X59733375Y-94115066D01*
X58733375Y-104245066D02*
X58733375Y-95115066D01*
X75103375Y-104245066D02*
X58733375Y-104245066D01*
X75103375Y-95115066D02*
X75103375Y-104245066D01*
%TO.C,R9*%
X130548452Y-52230545D02*
X131070956Y-52230545D01*
X130548452Y-50810545D02*
X131070956Y-50810545D01*
%TO.C,Q8*%
X143520000Y-69772005D02*
X143520000Y-72602005D01*
X149880000Y-69772005D02*
X149880000Y-70872005D01*
X143250000Y-69772005D02*
X143520000Y-69772005D01*
X143250000Y-68272005D02*
X143250000Y-69772005D01*
X150150000Y-68272005D02*
X150150000Y-69772005D01*
X150150000Y-69772005D02*
X149880000Y-69772005D01*
%TO.C,F1*%
X187194464Y-47402664D02*
X187194464Y-63602664D01*
X194134464Y-47402664D02*
X187194464Y-47402664D01*
X188664464Y-57102664D02*
X188664464Y-53902664D01*
X194134464Y-63602664D02*
X194134464Y-47402664D01*
X192664464Y-53902664D02*
X192664464Y-57102664D01*
X187194464Y-63602664D02*
X194134464Y-63602664D01*
X190664464Y-54752664D02*
X190664464Y-56252664D01*
%TO.C,R1*%
X100605513Y-52409404D02*
X100605513Y-51955276D01*
X102075513Y-52409404D02*
X102075513Y-51955276D01*
%TO.C,U5*%
X206095466Y-69038038D02*
X206095466Y-70298038D01*
X206095466Y-75858038D02*
X206095466Y-74598038D01*
X212105466Y-75858038D02*
X206095466Y-75858038D01*
X209855466Y-69038038D02*
X206095466Y-69038038D01*
%TO.C,R14*%
X136581345Y-134951184D02*
X136581345Y-134497056D01*
X138051345Y-134951184D02*
X138051345Y-134497056D01*
%TO.C,R16*%
X80890686Y-139640045D02*
X82344814Y-139640045D01*
X80890686Y-141460045D02*
X82344814Y-141460045D01*
%TO.C,C5*%
X136024056Y-60599844D02*
X136024056Y-61122348D01*
X137494056Y-60599844D02*
X137494056Y-61122348D01*
%TO.C,D1*%
X171527171Y-141624880D02*
X173202171Y-141624880D01*
X171527171Y-141624880D02*
X170877171Y-141624880D01*
X171527171Y-138504880D02*
X170877171Y-138504880D01*
X171527171Y-138504880D02*
X172177171Y-138504880D01*
%TO.C,R10*%
X132586330Y-61183061D02*
X133108834Y-61183061D01*
X132586330Y-62603061D02*
X133108834Y-62603061D01*
%TO.C,R7*%
X136042157Y-57540420D02*
X136042157Y-57086292D01*
X137512157Y-57540420D02*
X137512157Y-57086292D01*
%TO.C,C3*%
X92358348Y-43822641D02*
X92358348Y-44345145D01*
X90888348Y-43822641D02*
X90888348Y-44345145D01*
%TO.C,D2*%
X86006872Y-140894002D02*
X84331872Y-140894002D01*
X86006872Y-144014002D02*
X85356872Y-144014002D01*
X86006872Y-144014002D02*
X86656872Y-144014002D01*
X86006872Y-140894002D02*
X86656872Y-140894002D01*
%TO.C,C1*%
X105652042Y-48575852D02*
X105652042Y-47153348D01*
X107472042Y-48575852D02*
X107472042Y-47153348D01*
%TO.C,Q5*%
X169250000Y-68310000D02*
X169250000Y-69810000D01*
X169520000Y-69810000D02*
X169520000Y-72640000D01*
X176150000Y-68310000D02*
X176150000Y-69810000D01*
X169250000Y-69810000D02*
X169520000Y-69810000D01*
X176150000Y-69810000D02*
X175880000Y-69810000D01*
X175880000Y-69810000D02*
X175880000Y-70910000D01*
%TO.C,C18*%
X69258202Y-139391826D02*
X69258202Y-138869322D01*
X70728202Y-139391826D02*
X70728202Y-138869322D01*
D13*
%TO.C,Motronic_88pin1*%
X82277500Y-37892516D02*
X84527500Y-40392516D01*
X191027500Y-40392516D02*
X193777500Y-37892516D01*
X60027500Y-26392516D02*
X60027500Y-36392516D01*
X60027500Y-36392516D02*
X82277500Y-36392516D01*
X193777500Y-37892516D02*
X193777500Y-36392516D01*
X193777500Y-36392516D02*
X214292500Y-36392516D01*
X84527500Y-40392516D02*
X191027500Y-40392516D01*
X214292500Y-36392516D02*
X214277500Y-26392516D01*
X82277500Y-36392516D02*
X82277500Y-37892516D01*
X214277500Y-26392516D02*
X60027500Y-26392516D01*
D12*
%TO.C,U13*%
X180285593Y-138013446D02*
X178335593Y-138013446D01*
X180285593Y-138013446D02*
X182235593Y-138013446D01*
X180285593Y-143133446D02*
X178335593Y-143133446D01*
X180285593Y-143133446D02*
X183735593Y-143133446D01*
%TO.C,Q6*%
X167150000Y-69810000D02*
X166880000Y-69810000D01*
X160520000Y-69810000D02*
X160520000Y-72640000D01*
X160250000Y-69810000D02*
X160520000Y-69810000D01*
X160250000Y-68310000D02*
X160250000Y-69810000D01*
X166880000Y-69810000D02*
X166880000Y-70910000D01*
X167150000Y-68310000D02*
X167150000Y-69810000D01*
%TO.C,Q4*%
X151652936Y-51370022D02*
X151652936Y-52870022D01*
X151382936Y-52870022D02*
X151382936Y-53970022D01*
X144752936Y-51370022D02*
X144752936Y-52870022D01*
X145022936Y-52870022D02*
X145022936Y-55700022D01*
X151652936Y-52870022D02*
X151382936Y-52870022D01*
X144752936Y-52870022D02*
X145022936Y-52870022D01*
%TO.C,R2*%
X133400586Y-42935054D02*
X133400586Y-42480926D01*
X131930586Y-42935054D02*
X131930586Y-42480926D01*
%TO.C,C14*%
X185796116Y-141654712D02*
X186318620Y-141654712D01*
X185796116Y-143124712D02*
X186318620Y-143124712D01*
%TO.C,R13*%
X139014110Y-134951184D02*
X139014110Y-134497056D01*
X140484110Y-134951184D02*
X140484110Y-134497056D01*
%TO.C,C9*%
X107844658Y-42430187D02*
X107844658Y-41907683D01*
X109314658Y-42430187D02*
X109314658Y-41907683D01*
%TO.C,RN1*%
X185151050Y-68722925D02*
X186151050Y-68722925D01*
X185151050Y-72082925D02*
X186151050Y-72082925D01*
%TO.C,U1*%
X188362127Y-143629405D02*
X209952127Y-143629405D01*
X209952127Y-143629405D02*
X209952127Y-114419405D01*
X209952127Y-114419405D02*
X188362127Y-114419405D01*
X188362127Y-114419405D02*
X188362127Y-143629405D01*
%TO.C,Q3*%
X160582819Y-51177290D02*
X160582819Y-52677290D01*
X153682819Y-51177290D02*
X153682819Y-52677290D01*
X153682819Y-52677290D02*
X153952819Y-52677290D01*
X160312819Y-52677290D02*
X160312819Y-53777290D01*
X160582819Y-52677290D02*
X160312819Y-52677290D01*
X153952819Y-52677290D02*
X153952819Y-55507290D01*
D11*
%TO.C,U2*%
X104677537Y-48946167D02*
X101277537Y-48946167D01*
X102777537Y-42246167D02*
X101227537Y-42246167D01*
X94977537Y-42596167D02*
X94977537Y-42246167D01*
X94977537Y-48596167D02*
X94977537Y-48946167D01*
X102777537Y-42596167D02*
X102777537Y-42246167D01*
X94977537Y-48946167D02*
X96527537Y-48946167D01*
X94977537Y-42246167D02*
X96527537Y-42246167D01*
D12*
%TO.C,C10*%
X134422194Y-134943197D02*
X134422194Y-134489069D01*
X135892194Y-134943197D02*
X135892194Y-134489069D01*
%TO.C,JP2*%
X134021425Y-63949871D02*
X134321425Y-63649871D01*
X134871425Y-64849871D02*
X134871425Y-65449871D01*
X130771425Y-65449871D02*
X130771425Y-64849871D01*
X131421425Y-64149871D02*
X134221425Y-64149871D01*
X134321425Y-63649871D02*
X133721425Y-63649871D01*
X134221425Y-66149871D02*
X131421425Y-66149871D01*
X134021425Y-63949871D02*
X133721425Y-63649871D01*
X130771425Y-65449871D02*
G75*
G03*
X131471425Y-66149871I699999J-1D01*
G01*
X134871425Y-64849871D02*
G75*
G03*
X134171425Y-64149871I-699999J1D01*
G01*
X131471425Y-64149871D02*
G75*
G03*
X130771425Y-64849871I-1J-699999D01*
G01*
X134171425Y-66149871D02*
G75*
G03*
X134871425Y-65449871I1J699999D01*
G01*
%TO.C,R3*%
X135409196Y-42922762D02*
X135409196Y-42468634D01*
X136879196Y-42922762D02*
X136879196Y-42468634D01*
%TO.C,C4*%
X134248120Y-51776904D02*
X134770624Y-51776904D01*
X134248120Y-50306904D02*
X134770624Y-50306904D01*
%TO.C,C2*%
X105877595Y-43727720D02*
X105877595Y-43205216D01*
X107347595Y-43727720D02*
X107347595Y-43205216D01*
%TO.C,J4*%
X115884579Y-54972538D02*
X103124579Y-54972538D01*
X118484579Y-54972538D02*
X118484579Y-56302538D01*
X117154579Y-54972538D02*
X118484579Y-54972538D01*
X115884579Y-57632538D02*
X103124579Y-57632538D01*
X103124579Y-54972538D02*
X103124579Y-57632538D01*
X115884579Y-54972538D02*
X115884579Y-57632538D01*
%TO.C,R8*%
X137502835Y-53567903D02*
X137502835Y-54022031D01*
X136032835Y-53567903D02*
X136032835Y-54022031D01*
%TO.C,C7*%
X126110007Y-47205274D02*
X126110007Y-45782770D01*
X124290007Y-47205274D02*
X124290007Y-45782770D01*
%TO.C,R11*%
X128455250Y-52027588D02*
X128455250Y-52481716D01*
X126985250Y-52027588D02*
X126985250Y-52481716D01*
%TO.C,Q1*%
X178101404Y-51143011D02*
X178101404Y-52643011D01*
X178101404Y-52643011D02*
X177831404Y-52643011D01*
X177831404Y-52643011D02*
X177831404Y-53743011D01*
X171201404Y-51143011D02*
X171201404Y-52643011D01*
X171471404Y-52643011D02*
X171471404Y-55473011D01*
X171201404Y-52643011D02*
X171471404Y-52643011D01*
%TD*%
%LPC*%
D14*
%TO.C,C6*%
X136604474Y-63587451D03*
X136604474Y-65662451D03*
%TD*%
D15*
%TO.C,U14*%
X60295183Y-135040000D03*
X62835183Y-135040000D03*
X65375183Y-135040000D03*
X67915183Y-135040000D03*
X70455183Y-135040000D03*
X72995183Y-135040000D03*
X75535183Y-135040000D03*
X78075183Y-135040000D03*
X60295183Y-109640000D03*
X62835183Y-109640000D03*
X65375183Y-109640000D03*
X67915183Y-109640000D03*
X70455183Y-109640000D03*
X72995183Y-109640000D03*
X75535183Y-109640000D03*
X78075183Y-109640000D03*
%TD*%
D16*
%TO.C,RN3*%
X59284961Y-71127853D03*
D17*
X59284961Y-71927853D03*
X59284961Y-72727853D03*
D16*
X59284961Y-73527853D03*
X61084961Y-73527853D03*
D17*
X61084961Y-72727853D03*
X61084961Y-71927853D03*
D16*
X61084961Y-71127853D03*
%TD*%
D18*
%TO.C,Q2*%
X163337124Y-54300737D03*
D19*
X165617124Y-48000737D03*
D18*
X167897124Y-54300737D03*
%TD*%
D20*
%TO.C,U10*%
X65154476Y-59831561D03*
X65154476Y-62131561D03*
X65154476Y-64431561D03*
D21*
X71454476Y-62131561D03*
%TD*%
D22*
%TO.C,C11*%
X101112052Y-65110107D03*
D23*
X104612052Y-65110107D03*
%TD*%
D24*
%TO.C,U15*%
X73006624Y-138366545D03*
X73006624Y-139636545D03*
X73006624Y-140906545D03*
X73006624Y-142176545D03*
X77956624Y-142176545D03*
X77956624Y-140906545D03*
X77956624Y-139636545D03*
X77956624Y-138366545D03*
%TD*%
D16*
%TO.C,RN2*%
X188862544Y-69273813D03*
D17*
X188862544Y-70073813D03*
X188862544Y-70873813D03*
D16*
X188862544Y-71673813D03*
X190662544Y-71673813D03*
D17*
X190662544Y-70873813D03*
X190662544Y-70073813D03*
D16*
X190662544Y-69273813D03*
%TD*%
D25*
%TO.C,R12*%
X121703685Y-52996521D03*
X121703685Y-51171521D03*
%TD*%
D20*
%TO.C,U9*%
X65191189Y-52405741D03*
X65191189Y-54705741D03*
X65191189Y-57005741D03*
D21*
X71491189Y-54705741D03*
%TD*%
D26*
%TO.C,C19*%
X69212465Y-142838958D03*
X67312465Y-142838958D03*
%TD*%
D27*
%TO.C,J5*%
X204506976Y-104546217D03*
X199806976Y-104546217D03*
D28*
X197646976Y-108866217D03*
D29*
X200646976Y-108866217D03*
X203646976Y-108866217D03*
X206646976Y-108866217D03*
X197646976Y-111866217D03*
X200646976Y-111866217D03*
X203646976Y-111866217D03*
X206646976Y-111866217D03*
%TD*%
D20*
%TO.C,U6*%
X211338488Y-58550546D03*
X211338488Y-56250546D03*
X211338488Y-53950546D03*
D21*
X205038488Y-56250546D03*
%TD*%
D26*
%TO.C,C8*%
X125032661Y-42835627D03*
X123132661Y-42835627D03*
%TD*%
D30*
%TO.C,C15*%
X177805526Y-136340000D03*
X179705526Y-136340000D03*
%TD*%
D20*
%TO.C,U7*%
X211155466Y-66786559D03*
X211155466Y-64486559D03*
X211155466Y-62186559D03*
D21*
X204855466Y-64486559D03*
%TD*%
D26*
%TO.C,C16*%
X82768167Y-137563839D03*
X80868167Y-137563839D03*
%TD*%
D20*
%TO.C,U12*%
X65154476Y-67355819D03*
X65154476Y-69655819D03*
X65154476Y-71955819D03*
D21*
X71454476Y-69655819D03*
%TD*%
D25*
%TO.C,R5*%
X136156488Y-47086808D03*
X136156488Y-45261808D03*
%TD*%
D26*
%TO.C,C13*%
X175022461Y-137038591D03*
X173122461Y-137038591D03*
%TD*%
D18*
%TO.C,Q7*%
X153420000Y-71540000D03*
D19*
X155700000Y-65240000D03*
D18*
X157980000Y-71540000D03*
%TD*%
D30*
%TO.C,C17*%
X80284731Y-143131829D03*
X82184731Y-143131829D03*
%TD*%
%TO.C,C12*%
X170877796Y-143031045D03*
X172777796Y-143031045D03*
%TD*%
D31*
%TO.C,U3*%
X134811353Y-53880996D03*
X134311353Y-53880996D03*
X133811353Y-53880996D03*
X133311353Y-53880996D03*
X132811353Y-53880996D03*
X132811353Y-58280996D03*
X133311353Y-58280996D03*
X133811353Y-58280996D03*
X134311353Y-58280996D03*
X134811353Y-58280996D03*
%TD*%
D25*
%TO.C,R4*%
X132665586Y-47111392D03*
X132665586Y-45286392D03*
%TD*%
D20*
%TO.C,U4*%
X211155466Y-82984051D03*
X211155466Y-80684051D03*
X211155466Y-78384051D03*
D21*
X204855466Y-80684051D03*
%TD*%
D16*
%TO.C,RN4*%
X75458314Y-74539005D03*
D17*
X75458314Y-73739005D03*
X75458314Y-72939005D03*
D16*
X75458314Y-72139005D03*
X73658314Y-72139005D03*
D17*
X73658314Y-72939005D03*
X73658314Y-73739005D03*
D16*
X73658314Y-74539005D03*
%TD*%
D32*
%TO.C,U8*%
X120537906Y-47908604D03*
X120537906Y-46908604D03*
X120537906Y-45908604D03*
X120537906Y-44908604D03*
X120537906Y-43908604D03*
X120537906Y-42908604D03*
X110937906Y-42908604D03*
X110937906Y-43908604D03*
X110937906Y-44908604D03*
X110937906Y-45908604D03*
X110937906Y-46908604D03*
X110937906Y-47908604D03*
D33*
X115737906Y-45408604D03*
%TD*%
D34*
%TO.C,R6*%
X135421872Y-48964572D03*
X133596872Y-48964572D03*
%TD*%
D20*
%TO.C,U11*%
X65127619Y-75332820D03*
X65127619Y-77632820D03*
X65127619Y-79932820D03*
D21*
X71427619Y-77632820D03*
%TD*%
D35*
%TO.C,R15*%
X175014418Y-142128630D03*
X175014418Y-139203630D03*
%TD*%
D27*
%TO.C,J1*%
X64578375Y-98825066D03*
X69278375Y-98825066D03*
D28*
X62418375Y-103145066D03*
D29*
X65418375Y-103145066D03*
X68418375Y-103145066D03*
X71418375Y-103145066D03*
X62418375Y-106145066D03*
X65418375Y-106145066D03*
X68418375Y-106145066D03*
X71418375Y-106145066D03*
%TD*%
D36*
%TO.C,R9*%
X129784704Y-51520545D03*
X131834704Y-51520545D03*
%TD*%
D18*
%TO.C,Q8*%
X144420000Y-71502005D03*
D19*
X146700000Y-65202005D03*
D18*
X148980000Y-71502005D03*
%TD*%
D37*
%TO.C,F1*%
X188964464Y-50542664D03*
X192364464Y-50542664D03*
X192364464Y-60462664D03*
X188964464Y-60462664D03*
%TD*%
D25*
%TO.C,R1*%
X101340513Y-53094840D03*
X101340513Y-51269840D03*
%TD*%
D20*
%TO.C,U5*%
X211155466Y-74748038D03*
X211155466Y-72448038D03*
X211155466Y-70148038D03*
D21*
X204855466Y-72448038D03*
%TD*%
D25*
%TO.C,R14*%
X137316345Y-135636620D03*
X137316345Y-133811620D03*
%TD*%
D38*
%TO.C,R16*%
X80155250Y-140550045D03*
X83080250Y-140550045D03*
%TD*%
D39*
%TO.C,C5*%
X136759056Y-59911096D03*
X136759056Y-61811096D03*
%TD*%
D40*
%TO.C,D1*%
X172464671Y-141014880D03*
X172464671Y-139114880D03*
X170589671Y-140064880D03*
%TD*%
D36*
%TO.C,R10*%
X131822582Y-61893061D03*
X133872582Y-61893061D03*
%TD*%
D25*
%TO.C,R7*%
X136777157Y-58225856D03*
X136777157Y-56400856D03*
%TD*%
D39*
%TO.C,C3*%
X91623348Y-43133893D03*
X91623348Y-45033893D03*
%TD*%
D41*
%TO.C,D2*%
X85069372Y-141504002D03*
X85069372Y-143404002D03*
X86944372Y-142454002D03*
%TD*%
D42*
%TO.C,C1*%
X106562042Y-49339600D03*
X106562042Y-46389600D03*
%TD*%
D18*
%TO.C,Q5*%
X170420000Y-71540000D03*
D19*
X172700000Y-65240000D03*
D18*
X174980000Y-71540000D03*
%TD*%
D43*
%TO.C,C18*%
X69993202Y-140080574D03*
X69993202Y-138180574D03*
%TD*%
D44*
%TO.C,Motronic_88pin1*%
X64017500Y-30392516D03*
X209727500Y-30642516D03*
D15*
X83527500Y-32642516D03*
X88527500Y-32642516D03*
X93527500Y-32642516D03*
X98527500Y-32642516D03*
X103527500Y-32642516D03*
X108527500Y-32642516D03*
X113277500Y-33392516D03*
X116527500Y-33392516D03*
X119777500Y-33392516D03*
X123027500Y-33392516D03*
X126277500Y-33392516D03*
X129527500Y-33392516D03*
X132777500Y-33392516D03*
X136027500Y-33392516D03*
X139277500Y-33392516D03*
X142527500Y-33392516D03*
X145777500Y-33392516D03*
X149027500Y-33392516D03*
X152277500Y-33392516D03*
X155527500Y-33392516D03*
X158777500Y-33392516D03*
X163777500Y-32642516D03*
X168777500Y-32642516D03*
X173777500Y-32642516D03*
X178777500Y-32642516D03*
X183777500Y-32642516D03*
X188777500Y-32642516D03*
X193777500Y-32642516D03*
X86027500Y-32642516D03*
X91027500Y-32642516D03*
X96027500Y-32642516D03*
X101027500Y-32642516D03*
X106027500Y-32642516D03*
X111027500Y-32642516D03*
X115027500Y-31892516D03*
X118277500Y-31892516D03*
X121527500Y-31892516D03*
X124777500Y-31892516D03*
X128027500Y-31892516D03*
X131277500Y-31892516D03*
X134527500Y-31892516D03*
X137777500Y-31892516D03*
X141027500Y-31892516D03*
X144277500Y-31892516D03*
X147527500Y-31892516D03*
X150777500Y-31892516D03*
X154027500Y-31892516D03*
X157277500Y-31892516D03*
X161277500Y-32642516D03*
X166277500Y-32642516D03*
X171277500Y-32642516D03*
X176277500Y-32642516D03*
X181277500Y-32642516D03*
X186277500Y-32642516D03*
X191277500Y-32642516D03*
X85777500Y-38892516D03*
X89027500Y-38892516D03*
X92277500Y-38892516D03*
X95527500Y-38892516D03*
X98777500Y-38892516D03*
X102027500Y-38892516D03*
X105277500Y-38892516D03*
X108527500Y-38892516D03*
X111777500Y-38892516D03*
X115027500Y-38892516D03*
X118277500Y-38892516D03*
X121527500Y-38892516D03*
X124777500Y-38892516D03*
X128027500Y-38892516D03*
X131277500Y-38892516D03*
X134527500Y-38892516D03*
X137777500Y-38892516D03*
X141027500Y-38892516D03*
X144277500Y-38892516D03*
X147527500Y-38892516D03*
X150777500Y-38892516D03*
X154027500Y-38892516D03*
X157277500Y-38892516D03*
X160527500Y-38892516D03*
X163777500Y-38892516D03*
X167027500Y-38892516D03*
X170277500Y-38892516D03*
X173527500Y-38892516D03*
X176777500Y-38892516D03*
X180027500Y-38892516D03*
X183277500Y-38892516D03*
X186527500Y-38892516D03*
X189777500Y-38892516D03*
%TD*%
D45*
%TO.C,U13*%
X182760593Y-142478446D03*
X182760593Y-141208446D03*
X182760593Y-139938446D03*
X182760593Y-138668446D03*
X177810593Y-138668446D03*
X177810593Y-139938446D03*
X177810593Y-141208446D03*
X177810593Y-142478446D03*
%TD*%
D18*
%TO.C,Q6*%
X161420000Y-71540000D03*
D19*
X163700000Y-65240000D03*
D18*
X165980000Y-71540000D03*
%TD*%
%TO.C,Q4*%
X145922936Y-54600022D03*
D19*
X148202936Y-48300022D03*
D18*
X150482936Y-54600022D03*
%TD*%
D25*
%TO.C,R2*%
X132665586Y-43620490D03*
X132665586Y-41795490D03*
%TD*%
D30*
%TO.C,C14*%
X185107368Y-142389712D03*
X187007368Y-142389712D03*
%TD*%
D25*
%TO.C,R13*%
X139749110Y-135636620D03*
X139749110Y-133811620D03*
%TD*%
D43*
%TO.C,C9*%
X108579658Y-43118935D03*
X108579658Y-41218935D03*
%TD*%
D16*
%TO.C,RN1*%
X186551050Y-71602925D03*
D17*
X186551050Y-70802925D03*
X186551050Y-70002925D03*
D16*
X186551050Y-69202925D03*
X184751050Y-69202925D03*
D17*
X184751050Y-70002925D03*
X184751050Y-70802925D03*
D16*
X184751050Y-71602925D03*
%TD*%
D15*
%TO.C,U1*%
X190267127Y-141724405D03*
X192807127Y-141724405D03*
X195347127Y-141724405D03*
X197887127Y-141724405D03*
X200427127Y-141724405D03*
X202967127Y-141724405D03*
X205507127Y-141724405D03*
X208047127Y-141724405D03*
X190267127Y-116324405D03*
X192807127Y-116324405D03*
X195347127Y-116324405D03*
X197887127Y-116324405D03*
X200427127Y-116324405D03*
X202967127Y-116324405D03*
X205507127Y-116324405D03*
X208047127Y-116324405D03*
%TD*%
D18*
%TO.C,Q3*%
X154852819Y-54407290D03*
D19*
X157132819Y-48107290D03*
D18*
X159412819Y-54407290D03*
%TD*%
D32*
%TO.C,U2*%
X103677537Y-48096167D03*
X103677537Y-47096167D03*
X103677537Y-46096167D03*
X103677537Y-45096167D03*
X103677537Y-44096167D03*
X103677537Y-43096167D03*
X94077537Y-43096167D03*
X94077537Y-44096167D03*
X94077537Y-45096167D03*
X94077537Y-46096167D03*
X94077537Y-47096167D03*
X94077537Y-48096167D03*
D33*
X98877537Y-45596167D03*
%TD*%
D25*
%TO.C,C10*%
X135157194Y-135628633D03*
X135157194Y-133803633D03*
%TD*%
D46*
%TO.C,JP2*%
X134121425Y-65149871D03*
D47*
X132821425Y-65149871D03*
D48*
X131521425Y-65149871D03*
%TD*%
D25*
%TO.C,R3*%
X136144196Y-43608198D03*
X136144196Y-41783198D03*
%TD*%
D30*
%TO.C,C4*%
X133559372Y-51041904D03*
X135459372Y-51041904D03*
%TD*%
D43*
%TO.C,C2*%
X106612595Y-44416468D03*
X106612595Y-42516468D03*
%TD*%
D49*
%TO.C,J4*%
X181672763Y-132012059D03*
D50*
X181672763Y-129472059D03*
X181672763Y-126932059D03*
X181672763Y-124392059D03*
X181672763Y-121852059D03*
X181672763Y-119312059D03*
X181672763Y-116772059D03*
X181672763Y-114232059D03*
X181672763Y-111692059D03*
X181672763Y-109152059D03*
X181672763Y-106612059D03*
X181672763Y-104072059D03*
X181672763Y-101532059D03*
X181672763Y-98992059D03*
X181672763Y-96452059D03*
X181672763Y-93912059D03*
X181672763Y-91372059D03*
X181672763Y-88832059D03*
X181672763Y-86292059D03*
X181672763Y-83752059D03*
X181672763Y-81212059D03*
X181672763Y-78672059D03*
X181672763Y-76132059D03*
X181672763Y-73592059D03*
X181672763Y-71052059D03*
X181672763Y-68512059D03*
X181672763Y-65972059D03*
X181672763Y-63432059D03*
X181672763Y-60892059D03*
X181672763Y-58352059D03*
X181672763Y-55812059D03*
X181672763Y-53272059D03*
D49*
X87760080Y-132017154D03*
D50*
X87760080Y-129477154D03*
X87760080Y-126937154D03*
X87760080Y-124397154D03*
X87760080Y-121857154D03*
X87760080Y-119317154D03*
X87760080Y-116777154D03*
X87760080Y-114237154D03*
X87760080Y-111697154D03*
X87760080Y-109157154D03*
X87760080Y-106617154D03*
X87760080Y-104077154D03*
X87760080Y-101537154D03*
X87760080Y-98997154D03*
X87760080Y-96457154D03*
X87760080Y-93917154D03*
X87760080Y-91377154D03*
X87760080Y-88837154D03*
X87760080Y-86297154D03*
X87760080Y-83757154D03*
X87760080Y-81217154D03*
X87760080Y-78677154D03*
X87760080Y-76137154D03*
X87760080Y-73597154D03*
X87760080Y-71057154D03*
X87760080Y-68517154D03*
X87760080Y-65977154D03*
X87760080Y-63437154D03*
X87760080Y-60897154D03*
X87760080Y-58357154D03*
X87760080Y-55817154D03*
X87760080Y-53277154D03*
D49*
X165230080Y-131026287D03*
D50*
X162690080Y-131026287D03*
X160150080Y-131026287D03*
X157610080Y-131026287D03*
X155070080Y-131026287D03*
X152530080Y-131026287D03*
X149990080Y-131026287D03*
X147450080Y-131026287D03*
X144910080Y-131026287D03*
X142370080Y-131026287D03*
X139830080Y-131026287D03*
X137290080Y-131026287D03*
X134750080Y-131026287D03*
X132210080Y-131026287D03*
X129670080Y-131026287D03*
X127130080Y-131026287D03*
D49*
X141953794Y-117134404D03*
D50*
X139413794Y-117134404D03*
X136873794Y-117134404D03*
X134333794Y-117134404D03*
X131793794Y-117134404D03*
X129253794Y-117134404D03*
X126713794Y-117134404D03*
X124173794Y-117134404D03*
X121633794Y-117134404D03*
X119093794Y-117134404D03*
X116553794Y-117134404D03*
X114013794Y-117134404D03*
X111473794Y-117134404D03*
X108933794Y-117134404D03*
X106393794Y-117134404D03*
X103853794Y-117134404D03*
D23*
X164425871Y-101751522D03*
X161925871Y-101751522D03*
X159425871Y-101751522D03*
X156925871Y-101751522D03*
D22*
X154425871Y-101751522D03*
D49*
X117154579Y-56302538D03*
D50*
X114614579Y-56302538D03*
X112074579Y-56302538D03*
X109534579Y-56302538D03*
X106994579Y-56302538D03*
X104454579Y-56302538D03*
%TD*%
D51*
%TO.C,R8*%
X136767835Y-52882467D03*
X136767835Y-54707467D03*
%TD*%
D42*
%TO.C,C7*%
X125200007Y-47969022D03*
X125200007Y-45019022D03*
%TD*%
D51*
%TO.C,R11*%
X127720250Y-51342152D03*
X127720250Y-53167152D03*
%TD*%
D18*
%TO.C,Q1*%
X172371404Y-54373011D03*
D19*
X174651404Y-48073011D03*
D18*
X176931404Y-54373011D03*
%TD*%
M02*
