%TF.GenerationSoftware,KiCad,Pcbnew,(6.0.1)*%
%TF.CreationDate,2023-10-23T01:26:03+01:00*%
%TF.ProjectId,Polygonus-Universal-Base,506f6c79-676f-46e7-9573-2d556e697665,rev?*%
%TF.SameCoordinates,Original*%
%TF.FileFunction,Profile,NP*%
%FSLAX46Y46*%
G04 Gerber Fmt 4.6, Leading zero omitted, Abs format (unit mm)*
G04 Created by KiCad (PCBNEW (6.0.1)) date 2023-10-23 01:26:03*
%MOMM*%
%LPD*%
G01*
G04 APERTURE LIST*
%TA.AperFunction,Profile*%
%ADD10C,0.200000*%
%TD*%
%TA.AperFunction,Profile*%
%ADD11C,0.120000*%
%TD*%
G04 APERTURE END LIST*
D10*
X57160000Y-82380000D02*
X57160000Y-50580000D01*
X57160000Y-50580000D02*
X57160000Y-37380000D01*
X217160000Y-138338000D02*
X211160000Y-144338000D01*
X214160000Y-26380000D02*
X217160000Y-29380000D01*
X60160000Y-26380000D02*
X214160000Y-26380000D01*
X211160000Y-144338000D02*
X63160000Y-144338000D01*
X57160000Y-29380000D02*
X60160000Y-26380000D01*
X57160000Y-37380000D02*
X57160000Y-29380000D01*
X57160000Y-95580000D02*
X57160000Y-82380000D01*
X63160000Y-144338000D02*
X57160000Y-138338000D01*
X217160000Y-50580000D02*
X217160000Y-87380000D01*
X217160000Y-37380000D02*
X217160000Y-50580000D01*
X57160000Y-138338000D02*
X57160000Y-95580000D01*
X217160000Y-100580000D02*
X217160000Y-138338000D01*
X217160000Y-87380000D02*
X217160000Y-100580000D01*
X217160000Y-29380000D02*
X217160000Y-37380000D01*
D11*
%TO.C,U14*%
X62200183Y-133516000D02*
X67534183Y-133516000D01*
X67534183Y-133516000D02*
X67534183Y-125642000D01*
X67534183Y-125642000D02*
X62200183Y-125642000D01*
X62200183Y-125642000D02*
X62200183Y-133516000D01*
%TO.C,U1*%
X197008269Y-132326258D02*
X192666690Y-132323846D01*
X192168293Y-139699445D02*
X192170962Y-132824770D01*
X192668945Y-140204408D02*
X197013913Y-140200743D01*
X197508000Y-139695997D02*
X197508545Y-132820470D01*
X197013913Y-140200743D02*
G75*
G03*
X197508000Y-139695997I-5771J499849D01*
G01*
X197508545Y-132820470D02*
G75*
G03*
X197008269Y-132326258I-500284J-6109D01*
G01*
X192168292Y-139699445D02*
G75*
G03*
X192668945Y-140204408I505469J483D01*
G01*
X192666690Y-132323846D02*
G75*
G03*
X192170962Y-132824770I4795J-500500D01*
G01*
%TD*%
M02*
