%TF.GenerationSoftware,KiCad,Pcbnew,(6.0.1)*%
%TF.CreationDate,2023-10-20T02:01:24+01:00*%
%TF.ProjectId,Polygonus-Universal-Base,506f6c79-676f-46e7-9573-2d556e697665,rev?*%
%TF.SameCoordinates,Original*%
%TF.FileFunction,Paste,Top*%
%TF.FilePolarity,Positive*%
%FSLAX46Y46*%
G04 Gerber Fmt 4.6, Leading zero omitted, Abs format (unit mm)*
G04 Created by KiCad (PCBNEW (6.0.1)) date 2023-10-20 02:01:24*
%MOMM*%
%LPD*%
G01*
G04 APERTURE LIST*
G04 Aperture macros list*
%AMRoundRect*
0 Rectangle with rounded corners*
0 $1 Rounding radius*
0 $2 $3 $4 $5 $6 $7 $8 $9 X,Y pos of 4 corners*
0 Add a 4 corners polygon primitive as box body*
4,1,4,$2,$3,$4,$5,$6,$7,$8,$9,$2,$3,0*
0 Add four circle primitives for the rounded corners*
1,1,$1+$1,$2,$3*
1,1,$1+$1,$4,$5*
1,1,$1+$1,$6,$7*
1,1,$1+$1,$8,$9*
0 Add four rect primitives between the rounded corners*
20,1,$1+$1,$2,$3,$4,$5,0*
20,1,$1+$1,$4,$5,$6,$7,0*
20,1,$1+$1,$6,$7,$8,$9,0*
20,1,$1+$1,$8,$9,$2,$3,0*%
G04 Aperture macros list end*
%ADD10RoundRect,0.250000X0.475000X-0.250000X0.475000X0.250000X-0.475000X0.250000X-0.475000X-0.250000X0*%
%ADD11RoundRect,0.250000X0.250000X0.475000X-0.250000X0.475000X-0.250000X-0.475000X0.250000X-0.475000X0*%
%ADD12RoundRect,0.250000X-0.475000X0.250000X-0.475000X-0.250000X0.475000X-0.250000X0.475000X0.250000X0*%
%ADD13RoundRect,0.250000X0.450000X-0.262500X0.450000X0.262500X-0.450000X0.262500X-0.450000X-0.262500X0*%
%ADD14RoundRect,0.250000X-0.250000X-0.475000X0.250000X-0.475000X0.250000X0.475000X-0.250000X0.475000X0*%
%ADD15RoundRect,0.250000X-0.475000X0.337500X-0.475000X-0.337500X0.475000X-0.337500X0.475000X0.337500X0*%
%ADD16RoundRect,0.250000X-0.450000X0.262500X-0.450000X-0.262500X0.450000X-0.262500X0.450000X0.262500X0*%
%ADD17R,0.800000X0.500000*%
%ADD18R,0.800000X0.400000*%
%ADD19R,1.200000X2.200000*%
%ADD20R,2.750000X3.050000*%
%ADD21R,2.000000X1.500000*%
%ADD22R,2.000000X3.800000*%
%ADD23RoundRect,0.150000X-0.825000X-0.150000X0.825000X-0.150000X0.825000X0.150000X-0.825000X0.150000X0*%
%ADD24R,0.300000X1.400000*%
%ADD25R,2.000000X0.650000*%
%ADD26R,1.950000X1.160000*%
%ADD27RoundRect,0.250000X0.262500X0.450000X-0.262500X0.450000X-0.262500X-0.450000X0.262500X-0.450000X0*%
%ADD28RoundRect,0.250000X0.625000X-0.312500X0.625000X0.312500X-0.625000X0.312500X-0.625000X-0.312500X0*%
%ADD29RoundRect,0.249999X-0.325001X-0.450001X0.325001X-0.450001X0.325001X0.450001X-0.325001X0.450001X0*%
%ADD30RoundRect,0.250000X-0.312500X-0.625000X0.312500X-0.625000X0.312500X0.625000X-0.312500X0.625000X0*%
%ADD31RoundRect,0.150000X0.587500X0.150000X-0.587500X0.150000X-0.587500X-0.150000X0.587500X-0.150000X0*%
%ADD32RoundRect,0.150000X-0.587500X-0.150000X0.587500X-0.150000X0.587500X0.150000X-0.587500X0.150000X0*%
%ADD33RoundRect,0.250000X0.650000X-0.325000X0.650000X0.325000X-0.650000X0.325000X-0.650000X-0.325000X0*%
%ADD34RoundRect,0.150000X0.825000X0.150000X-0.825000X0.150000X-0.825000X-0.150000X0.825000X-0.150000X0*%
G04 APERTURE END LIST*
D10*
%TO.C,C9*%
X108579658Y-43118935D03*
X108579658Y-41218935D03*
%TD*%
D11*
%TO.C,C8*%
X125032661Y-42835627D03*
X123132661Y-42835627D03*
%TD*%
D12*
%TO.C,C3*%
X91623348Y-43133893D03*
X91623348Y-45033893D03*
%TD*%
D10*
%TO.C,C2*%
X106612595Y-44416468D03*
X106612595Y-42516468D03*
%TD*%
D13*
%TO.C,R12*%
X121703685Y-52996521D03*
X121703685Y-51171521D03*
%TD*%
%TO.C,R1*%
X101340513Y-53094840D03*
X101340513Y-51269840D03*
%TD*%
D14*
%TO.C,C4*%
X133559372Y-51041904D03*
X135459372Y-51041904D03*
%TD*%
D13*
%TO.C,R7*%
X136777157Y-58225856D03*
X136777157Y-56400856D03*
%TD*%
D12*
%TO.C,C5*%
X136759056Y-59911096D03*
X136759056Y-61811096D03*
%TD*%
D15*
%TO.C,C6*%
X136604474Y-63587451D03*
X136604474Y-65662451D03*
%TD*%
D16*
%TO.C,R8*%
X136767835Y-52882467D03*
X136767835Y-54707467D03*
%TD*%
D17*
%TO.C,RN3*%
X59284961Y-71127853D03*
D18*
X59284961Y-71927853D03*
X59284961Y-72727853D03*
D17*
X59284961Y-73527853D03*
X61084961Y-73527853D03*
D18*
X61084961Y-72727853D03*
X61084961Y-71927853D03*
D17*
X61084961Y-71127853D03*
%TD*%
D19*
%TO.C,Q2*%
X167897124Y-54300737D03*
X163337124Y-54300737D03*
D20*
X167142124Y-46325737D03*
X164092124Y-49675737D03*
X164092124Y-46325737D03*
X167142124Y-49675737D03*
%TD*%
D21*
%TO.C,U10*%
X65154476Y-59831561D03*
X65154476Y-62131561D03*
X65154476Y-64431561D03*
D22*
X71454476Y-62131561D03*
%TD*%
D23*
%TO.C,U15*%
X73006624Y-138366545D03*
X73006624Y-139636545D03*
X73006624Y-140906545D03*
X73006624Y-142176545D03*
X77956624Y-142176545D03*
X77956624Y-140906545D03*
X77956624Y-139636545D03*
X77956624Y-138366545D03*
%TD*%
D17*
%TO.C,RN2*%
X188862544Y-69273813D03*
D18*
X188862544Y-70073813D03*
X188862544Y-70873813D03*
D17*
X188862544Y-71673813D03*
X190662544Y-71673813D03*
D18*
X190662544Y-70873813D03*
X190662544Y-70073813D03*
D17*
X190662544Y-69273813D03*
%TD*%
D21*
%TO.C,U9*%
X65191189Y-52405741D03*
X65191189Y-54705741D03*
X65191189Y-57005741D03*
D22*
X71491189Y-54705741D03*
%TD*%
D11*
%TO.C,C19*%
X69212465Y-142838958D03*
X67312465Y-142838958D03*
%TD*%
D21*
%TO.C,U6*%
X211338488Y-58550546D03*
X211338488Y-56250546D03*
X211338488Y-53950546D03*
D22*
X205038488Y-56250546D03*
%TD*%
D14*
%TO.C,C15*%
X177805526Y-136340000D03*
X179705526Y-136340000D03*
%TD*%
D21*
%TO.C,U7*%
X211155466Y-66786559D03*
X211155466Y-64486559D03*
X211155466Y-62186559D03*
D22*
X204855466Y-64486559D03*
%TD*%
D11*
%TO.C,C16*%
X82768167Y-137563839D03*
X80868167Y-137563839D03*
%TD*%
D21*
%TO.C,U12*%
X65154476Y-67355819D03*
X65154476Y-69655819D03*
X65154476Y-71955819D03*
D22*
X71454476Y-69655819D03*
%TD*%
D13*
%TO.C,R5*%
X136156488Y-47086808D03*
X136156488Y-45261808D03*
%TD*%
D11*
%TO.C,C13*%
X175022461Y-137038591D03*
X173122461Y-137038591D03*
%TD*%
D19*
%TO.C,Q7*%
X157980000Y-71540000D03*
X153420000Y-71540000D03*
D20*
X157225000Y-63565000D03*
X157225000Y-66915000D03*
X154175000Y-63565000D03*
X154175000Y-66915000D03*
%TD*%
D14*
%TO.C,C17*%
X80284731Y-143131829D03*
X82184731Y-143131829D03*
%TD*%
%TO.C,C12*%
X170877796Y-143031045D03*
X172777796Y-143031045D03*
%TD*%
D24*
%TO.C,U3*%
X134811353Y-53880996D03*
X134311353Y-53880996D03*
X133811353Y-53880996D03*
X133311353Y-53880996D03*
X132811353Y-53880996D03*
X132811353Y-58280996D03*
X133311353Y-58280996D03*
X133811353Y-58280996D03*
X134311353Y-58280996D03*
X134811353Y-58280996D03*
%TD*%
D13*
%TO.C,R4*%
X132665586Y-47111392D03*
X132665586Y-45286392D03*
%TD*%
D21*
%TO.C,U4*%
X211155466Y-82984051D03*
X211155466Y-80684051D03*
X211155466Y-78384051D03*
D22*
X204855466Y-80684051D03*
%TD*%
D17*
%TO.C,RN4*%
X75458314Y-74539005D03*
D18*
X75458314Y-73739005D03*
X75458314Y-72939005D03*
D17*
X75458314Y-72139005D03*
X73658314Y-72139005D03*
D18*
X73658314Y-72939005D03*
X73658314Y-73739005D03*
D17*
X73658314Y-74539005D03*
%TD*%
D25*
%TO.C,U8*%
X110937906Y-47908604D03*
X110937906Y-46908604D03*
X110937906Y-45908604D03*
X110937906Y-44908604D03*
X110937906Y-43908604D03*
X110937906Y-42908604D03*
X120537906Y-42908604D03*
X120537906Y-43908604D03*
X120537906Y-44908604D03*
X120537906Y-45908604D03*
X120537906Y-46908604D03*
X120537906Y-47908604D03*
D26*
X114612906Y-43948604D03*
X116862906Y-43948604D03*
X114612906Y-42488604D03*
X114612906Y-48328604D03*
X116862906Y-42488604D03*
X116862906Y-48328604D03*
X116862906Y-45408604D03*
X114612906Y-46868604D03*
X114612906Y-45408604D03*
X116862906Y-46868604D03*
%TD*%
D27*
%TO.C,R6*%
X135421872Y-48964572D03*
X133596872Y-48964572D03*
%TD*%
D21*
%TO.C,U11*%
X65127619Y-75332820D03*
X65127619Y-77632820D03*
X65127619Y-79932820D03*
D22*
X71427619Y-77632820D03*
%TD*%
D28*
%TO.C,R15*%
X175014418Y-142128630D03*
X175014418Y-139203630D03*
%TD*%
D29*
%TO.C,R9*%
X129784704Y-51520545D03*
X131834704Y-51520545D03*
%TD*%
D19*
%TO.C,Q8*%
X148980000Y-71502005D03*
X144420000Y-71502005D03*
D20*
X145175000Y-63527005D03*
X148225000Y-63527005D03*
X145175000Y-66877005D03*
X148225000Y-66877005D03*
%TD*%
D21*
%TO.C,U5*%
X211155466Y-74748038D03*
X211155466Y-72448038D03*
X211155466Y-70148038D03*
D22*
X204855466Y-72448038D03*
%TD*%
D13*
%TO.C,R14*%
X137316345Y-135636620D03*
X137316345Y-133811620D03*
%TD*%
D30*
%TO.C,R16*%
X80155250Y-140550045D03*
X83080250Y-140550045D03*
%TD*%
D31*
%TO.C,D1*%
X172464671Y-141014880D03*
X172464671Y-139114880D03*
X170589671Y-140064880D03*
%TD*%
D29*
%TO.C,R10*%
X131822582Y-61893061D03*
X133872582Y-61893061D03*
%TD*%
D32*
%TO.C,D2*%
X85069372Y-141504002D03*
X85069372Y-143404002D03*
X86944372Y-142454002D03*
%TD*%
D33*
%TO.C,C1*%
X106562042Y-49339600D03*
X106562042Y-46389600D03*
%TD*%
D19*
%TO.C,Q5*%
X174980000Y-71540000D03*
X170420000Y-71540000D03*
D20*
X171175000Y-63565000D03*
X171175000Y-66915000D03*
X174225000Y-63565000D03*
X174225000Y-66915000D03*
%TD*%
D10*
%TO.C,C18*%
X69993202Y-140080574D03*
X69993202Y-138180574D03*
%TD*%
D34*
%TO.C,U13*%
X182760593Y-142478446D03*
X182760593Y-141208446D03*
X182760593Y-139938446D03*
X182760593Y-138668446D03*
X177810593Y-138668446D03*
X177810593Y-139938446D03*
X177810593Y-141208446D03*
X177810593Y-142478446D03*
%TD*%
D19*
%TO.C,Q6*%
X165980000Y-71540000D03*
X161420000Y-71540000D03*
D20*
X165225000Y-63565000D03*
X162175000Y-63565000D03*
X162175000Y-66915000D03*
X165225000Y-66915000D03*
%TD*%
D19*
%TO.C,Q4*%
X150482936Y-54600022D03*
X145922936Y-54600022D03*
D20*
X149727936Y-49975022D03*
X146677936Y-49975022D03*
X146677936Y-46625022D03*
X149727936Y-46625022D03*
%TD*%
D13*
%TO.C,R2*%
X132665586Y-43620490D03*
X132665586Y-41795490D03*
%TD*%
D14*
%TO.C,C14*%
X185107368Y-142389712D03*
X187007368Y-142389712D03*
%TD*%
D13*
%TO.C,R13*%
X139749110Y-135636620D03*
X139749110Y-133811620D03*
%TD*%
D17*
%TO.C,RN1*%
X186551050Y-71602925D03*
D18*
X186551050Y-70802925D03*
X186551050Y-70002925D03*
D17*
X186551050Y-69202925D03*
X184751050Y-69202925D03*
D18*
X184751050Y-70002925D03*
X184751050Y-70802925D03*
D17*
X184751050Y-71602925D03*
%TD*%
D19*
%TO.C,Q3*%
X159412819Y-54407290D03*
X154852819Y-54407290D03*
D20*
X158657819Y-49782290D03*
X155607819Y-46432290D03*
X155607819Y-49782290D03*
X158657819Y-46432290D03*
%TD*%
D25*
%TO.C,U2*%
X94077537Y-48096167D03*
X94077537Y-47096167D03*
X94077537Y-46096167D03*
X94077537Y-45096167D03*
X94077537Y-44096167D03*
X94077537Y-43096167D03*
X103677537Y-43096167D03*
X103677537Y-44096167D03*
X103677537Y-45096167D03*
X103677537Y-46096167D03*
X103677537Y-47096167D03*
X103677537Y-48096167D03*
D26*
X100002537Y-48516167D03*
X97752537Y-44136167D03*
X100002537Y-44136167D03*
X97752537Y-47056167D03*
X100002537Y-42676167D03*
X97752537Y-45596167D03*
X100002537Y-47056167D03*
X100002537Y-45596167D03*
X97752537Y-48516167D03*
X97752537Y-42676167D03*
%TD*%
D13*
%TO.C,C10*%
X135157194Y-135628633D03*
X135157194Y-133803633D03*
%TD*%
%TO.C,R3*%
X136144196Y-43608198D03*
X136144196Y-41783198D03*
%TD*%
D33*
%TO.C,C7*%
X125200007Y-47969022D03*
X125200007Y-45019022D03*
%TD*%
D16*
%TO.C,R11*%
X127720250Y-51342152D03*
X127720250Y-53167152D03*
%TD*%
D19*
%TO.C,Q1*%
X176931404Y-54373011D03*
X172371404Y-54373011D03*
D20*
X176176404Y-46398011D03*
X176176404Y-49748011D03*
X173126404Y-49748011D03*
X173126404Y-46398011D03*
%TD*%
M02*
